<svg width="18" height="18" viewBox="0 0 18 18" fill="none" xmlns="http://www.w3.org/2000/svg">
<path fill-rule="evenodd" clip-rule="evenodd" d="M9 15.6875C8.72386 15.6875 8.5 15.4636 8.5 15.1875L8.5 2.8125C8.5 2.53636 8.72386 2.3125 9 2.3125C9.27614 2.3125 9.5 2.53636 9.5 2.8125L9.5 15.1875C9.5 15.4636 9.27614 15.6875 9 15.6875Z" fill="#8B91B4"/>
<path fill-rule="evenodd" clip-rule="evenodd" d="M14.4161 8.22855C14.2208 8.42382 13.9042 8.42382 13.7089 8.22855L9 3.51961L4.29105 8.22855C4.09579 8.42382 3.77921 8.42382 3.58395 8.22855C3.38868 8.03329 3.38868 7.71671 3.58395 7.52145L8.64645 2.45895C8.84171 2.26368 9.15829 2.26368 9.35355 2.45895L14.4161 7.52145C14.6113 7.71671 14.6113 8.03329 14.4161 8.22855Z" fill="#8B91B4"/>
</svg>
