<svg width="98" height="32" viewBox="0 0 98 32" fill="none" xmlns="http://www.w3.org/2000/svg">
<path d="M7.40848 0.651966L12.8734 3.83533C10.5664 7.46674 9.34481 11.6925 9.35488 16.0068C9.35488 16.2264 9.35938 16.4414 9.36387 16.6606C9.36387 16.7203 9.36873 16.7842 9.36873 16.8439C9.36873 16.9036 9.37322 16.9626 9.38221 17.0223C9.38221 17.1595 9.39119 17.2922 9.40017 17.4248C9.40467 17.5254 9.40916 17.6259 9.41852 17.7272C9.43199 17.8965 9.44547 18.0613 9.46381 18.2306L9.47728 18.3818C9.49076 18.528 9.5091 18.6743 9.52707 18.8209C9.53077 18.8685 9.53691 18.9157 9.54541 18.9627C9.55888 19.0496 9.56787 19.141 9.58284 19.2272C9.58377 19.2519 9.58688 19.2764 9.5922 19.3005C9.60118 19.3553 9.61016 19.4101 9.61915 19.4604C9.62813 19.5609 9.64647 19.6618 9.66444 19.7627C9.67342 19.8175 9.68278 19.8678 9.69176 19.9226C9.69101 19.9306 9.69258 19.9386 9.69625 19.9457L9.72358 20.1059C9.73256 20.1607 9.74154 20.211 9.75502 20.2658C9.79245 20.4763 9.83662 20.6868 9.88191 20.8969C9.9272 21.0938 9.97249 21.2994 10.0223 21.4963C10.0541 21.6245 10.0859 21.7477 10.1222 21.8713C10.1582 22.0369 10.2036 22.2003 10.2581 22.3607C10.2635 22.3902 10.271 22.4192 10.2805 22.4476C10.2895 22.4752 10.2944 22.4979 10.3034 22.5209L10.3303 22.6169C10.3532 22.6944 10.3756 22.7723 10.4029 22.8437C10.4164 22.8894 10.4303 22.9352 10.4437 22.9763C10.447 22.994 10.4531 23.011 10.4617 23.0266C10.507 23.1778 10.5568 23.324 10.6114 23.4748C10.6384 23.5572 10.6657 23.6396 10.6975 23.7171C10.7428 23.8547 10.7971 23.9919 10.8473 24.1245C10.8577 24.1573 10.8702 24.1894 10.8847 24.2205C10.9071 24.2844 10.9345 24.3532 10.9595 24.417C10.9734 24.4582 10.9914 24.4949 11.0048 24.5304C11.0685 24.6948 11.1411 24.8551 11.2088 25.0153C11.2088 25.0199 11.2088 25.0199 11.2133 25.0244C11.3084 25.253 11.4128 25.4779 11.5169 25.6967C11.612 25.8978 11.707 26.0992 11.8115 26.2958C11.8433 26.36 11.8792 26.4284 11.9155 26.4923C11.9971 26.6525 12.0832 26.8128 12.1693 26.9681C12.2101 27.046 12.2509 27.1193 12.2962 27.1922C12.3711 27.3294 12.4545 27.4666 12.5361 27.6038C12.5469 27.6262 12.5594 27.6477 12.5736 27.6681C12.5813 27.6777 12.5874 27.6885 12.5915 27.7002C12.6821 27.8555 12.7821 28.0108 12.8771 28.162L9.72882 29.9962C9.71497 30.0052 9.697 30.0143 9.66968 30.0283L7.40848 31.3462C6.67648 31.7738 5.84589 31.9993 5.00025 32C4.15458 32.0007 3.3236 31.7767 2.59087 31.3504C1.85815 30.9241 1.24948 30.3105 0.826051 29.5714C0.402627 28.8322 0.179366 27.9936 0.178711 27.1397L0.178711 4.86899C0.178711 4.78244 0.178711 4.70005 0.183203 4.61312V4.60406C0.186924 4.57828 0.188427 4.55224 0.187694 4.5262C0.245251 3.70271 0.509247 2.9075 0.954866 2.2153C1.40049 1.52315 2.0131 0.956734 2.73512 0.569345C3.45715 0.181961 4.26489 -0.0136948 5.08238 0.000741959C5.8999 0.0151787 6.70033 0.239296 7.40848 0.651966Z" fill="url(#paint0_linear_2476:16950)"/>
<path d="M12.8721 3.83511L13.325 4.0997L14.5707 4.82228L15.4316 5.32569H15.4361C15.4406 5.33023 15.4406 5.33476 15.445 5.33476L26.5119 11.7892C27.2439 12.2167 27.8517 12.8311 28.2742 13.5708C28.6968 14.3105 28.9192 15.1493 28.9192 16.0032C28.9192 16.857 28.6968 17.6959 28.2742 18.4356C27.8517 19.1752 27.2439 19.7897 26.5119 20.2172L25.6285 20.7342L25.6195 20.7387C25.6146 20.7411 25.6101 20.7441 25.606 20.7478L14.2038 27.3867L12.8721 28.1641C12.777 28.0129 12.677 27.8576 12.5865 27.7022C12.5823 27.6906 12.5762 27.6797 12.5685 27.6701C12.5543 27.6498 12.5418 27.6283 12.5311 27.6059C12.4495 27.4687 12.3679 27.3315 12.2911 27.1943C12.2458 27.1214 12.205 27.0481 12.1642 26.9702C12.0781 26.8149 11.9921 26.6546 11.9105 26.4943C11.873 26.4305 11.8382 26.3621 11.8064 26.2978C11.702 26.1013 11.6069 25.8999 11.5118 25.6988C11.4078 25.4792 11.3033 25.2551 11.2082 25.0264C11.2038 25.0219 11.2038 25.0219 11.2038 25.0174C11.136 24.8571 11.0634 24.6969 10.9998 24.5325C10.9863 24.4947 10.9683 24.4592 10.9545 24.4191C10.9275 24.3552 10.9002 24.2864 10.8796 24.2226C10.8651 24.1914 10.8526 24.1594 10.8422 24.1266C10.7924 23.9939 10.7381 23.8567 10.6925 23.7191C10.6606 23.6417 10.6333 23.5593 10.6064 23.4769C10.5517 23.3257 10.5019 23.1795 10.4566 23.0287C10.448 23.013 10.4419 22.996 10.4387 22.9784C10.4252 22.9372 10.4113 22.8915 10.3979 22.8458C10.3705 22.7724 10.3481 22.6946 10.3253 22.619L10.2983 22.523C10.2893 22.5 10.2845 22.4773 10.2755 22.4497C10.2659 22.4213 10.2584 22.3922 10.253 22.3628C10.2029 22.2025 10.1576 22.0381 10.1171 21.8733C10.0797 21.7497 10.049 21.6265 10.0172 21.4984C9.96742 21.297 9.92212 21.1005 9.87683 20.899C9.83154 20.6889 9.78625 20.4784 9.74994 20.2679C9.73647 20.2131 9.72748 20.1628 9.7185 20.108L9.69118 19.9477C9.68755 19.9406 9.68597 19.9326 9.68668 19.9247C9.6777 19.8699 9.66834 19.8196 9.65936 19.7648C9.63241 19.6091 9.60958 19.4583 9.58712 19.3029C9.58184 19.2789 9.5787 19.2543 9.57776 19.2296C9.56429 19.1427 9.55081 19.0513 9.54033 18.9651C9.53183 18.9182 9.52573 18.8709 9.52199 18.8234L9.50851 18.7179C9.49504 18.6083 9.48119 18.4938 9.47108 18.3842L9.45761 18.233C9.43927 18.0637 9.42579 17.8989 9.41232 17.7296C9.40296 17.6291 9.39847 17.5286 9.39398 17.4273C9.38948 17.326 9.3805 17.2213 9.37601 17.1207C9.37376 17.0888 9.37376 17.0567 9.37601 17.0247C9.36702 16.9057 9.36253 16.7866 9.35767 16.6631C9.35318 16.4438 9.34868 16.2288 9.34868 16.0093C9.33955 11.6936 10.5629 7.46674 12.8721 3.83511Z" fill="url(#paint1_linear_2476:16950)"/>
<g style="mix-blend-mode:multiply" opacity="0.1">
<g style="mix-blend-mode:multiply" opacity="0.1">
<path d="M12.8721 3.83527L13.325 4.09987L14.5707 4.82244C10.5708 14.2497 12.6591 23.0636 14.2038 27.3853L12.8721 28.1627C12.777 28.0115 12.677 27.8562 12.5865 27.7009C12.5823 27.6892 12.5762 27.6784 12.5685 27.6688C12.5543 27.6484 12.5418 27.6269 12.5311 27.6045C12.4495 27.4673 12.3679 27.3301 12.2911 27.1929C12.2458 27.12 12.205 27.0467 12.1642 26.9688C12.0781 26.8135 11.992 26.6532 11.9105 26.493C11.873 26.4291 11.8382 26.3607 11.8064 26.2965C11.702 26.0999 11.6069 25.8985 11.5118 25.6974C11.4078 25.4779 11.3033 25.2537 11.2082 25.0251C11.2038 25.0205 11.2038 25.0205 11.2038 25.016C11.136 24.8558 11.0634 24.6955 10.9998 24.5311C10.9863 24.4933 10.9683 24.4578 10.9545 24.4177C10.9275 24.3539 10.9002 24.2851 10.8796 24.2212C10.8651 24.1901 10.8526 24.158 10.8422 24.1252C10.7924 23.9926 10.7381 23.8554 10.6924 23.7178C10.6606 23.6403 10.6333 23.5579 10.6064 23.4755C10.5517 23.3244 10.5019 23.1781 10.4566 23.0273C10.448 23.0117 10.4419 22.9947 10.4387 22.977C10.4252 22.9358 10.4113 22.8901 10.3979 22.8444C10.3705 22.7711 10.3481 22.6932 10.3253 22.6176L10.2983 22.5216C10.2893 22.4986 10.2845 22.4759 10.2755 22.4483C10.2659 22.4199 10.2584 22.3909 10.253 22.3614C10.2029 22.2011 10.1576 22.0367 10.1171 21.872C10.0797 21.7484 10.049 21.6252 10.0172 21.497C9.96741 21.2956 9.92212 21.0991 9.87683 20.8977C9.83154 20.6875 9.78625 20.477 9.74994 20.2665C9.73646 20.2117 9.72748 20.1614 9.7185 20.1066L9.69117 19.9464C9.68751 19.9393 9.68597 19.9313 9.68668 19.9233C9.65936 19.768 9.63241 19.6172 9.61407 19.4615C9.60508 19.4112 9.5961 19.3564 9.58711 19.3016C9.58184 19.2775 9.57869 19.253 9.57776 19.2283C9.56428 19.1414 9.55081 19.0499 9.54033 18.9637C9.53183 18.9169 9.52573 18.8695 9.52199 18.822L9.50851 18.7166C9.49504 18.607 9.48119 18.4924 9.47108 18.3828L9.4576 18.2317C9.43926 18.0623 9.42579 17.8976 9.41231 17.7282C9.40296 17.6277 9.39846 17.5272 9.39397 17.4259C9.38948 17.3246 9.3805 17.2199 9.376 17.1194L9.36253 16.845C9.36253 16.7853 9.35766 16.7214 9.35766 16.6617C9.35317 16.4425 9.34868 16.2275 9.34868 16.0079C9.33985 11.6927 10.5631 7.46649 12.8721 3.83527Z" fill="black"/>
</g>
</g>
<path d="M32.4253 7.40003H35.6209C36.4507 7.40003 37.1832 7.57003 37.8186 7.91003C38.454 8.24248 38.9474 8.71092 39.2987 9.31536C39.6501 9.91225 39.8257 10.596 39.8257 11.3667C39.8257 12.1374 39.6501 12.8249 39.2987 13.4294C38.9474 14.0263 38.454 14.4947 37.8186 14.8347C37.1832 15.1671 36.4507 15.3334 35.6209 15.3334H32.4253V7.40003ZM35.5761 14.608C36.2638 14.608 36.8655 14.472 37.3813 14.2C37.8971 13.9205 38.297 13.5389 38.5811 13.0554C38.8652 12.5643 39.0072 12.0014 39.0072 11.3667C39.0072 10.732 38.8652 10.1729 38.5811 9.68936C38.297 9.19825 37.8971 8.8167 37.3813 8.5447C36.8655 8.26514 36.2638 8.12536 35.5761 8.12536H33.255V14.608H35.5761Z" fill="#2B2D3A"/>
<path d="M42.7021 15.4014C42.2535 15.4014 41.8387 15.3031 41.4574 15.1067C41.0762 14.9103 40.766 14.6307 40.5268 14.268L41.0201 13.7014C41.4537 14.3511 42.0181 14.676 42.7133 14.676C43.685 14.676 44.1709 14.0943 44.1709 12.9307V8.12536H41.3005V7.40003H44.9895V12.8967C44.9895 13.7278 44.7951 14.3549 44.4064 14.778C44.0252 15.1936 43.457 15.4014 42.7021 15.4014Z" fill="#2B2D3A"/>
<path d="M49.9789 15.4014C49.3958 15.4014 48.8352 15.3069 48.297 15.118C47.7662 14.9291 47.3551 14.6798 47.0636 14.37L47.3887 13.724C47.6728 14.0111 48.0503 14.2454 48.5212 14.4267C48.9922 14.6005 49.478 14.6874 49.9789 14.6874C50.6815 14.6874 51.2085 14.5589 51.5599 14.302C51.9112 14.0376 52.0869 13.6976 52.0869 13.282C52.0869 12.9647 51.9897 12.7116 51.7953 12.5227C51.6085 12.3338 51.3767 12.1903 51.1002 12.092C50.8236 11.9863 50.4386 11.8729 49.9452 11.752C49.3547 11.6009 48.8838 11.4574 48.5324 11.3214C48.1811 11.1778 47.8784 10.9625 47.6242 10.6754C47.3775 10.3883 47.2542 9.99914 47.2542 9.50803C47.2542 9.10759 47.3588 8.74492 47.5681 8.42003C47.7774 8.08759 48.0989 7.82314 48.5324 7.6267C48.966 7.43025 49.5042 7.33203 50.1471 7.33203C50.5956 7.33203 51.0329 7.39625 51.459 7.5247C51.8925 7.64559 52.2663 7.81559 52.5802 8.0347L52.2999 8.70336C51.971 8.48425 51.6197 8.32181 51.2459 8.21603C50.8722 8.1027 50.5059 8.04603 50.1471 8.04603C49.4594 8.04603 48.9398 8.18203 48.5885 8.45403C48.2446 8.71848 48.0727 9.06225 48.0727 9.48536C48.0727 9.8027 48.1661 10.0596 48.353 10.256C48.5474 10.4449 48.7866 10.5923 49.0706 10.698C49.3622 10.7963 49.7509 10.9058 50.2368 11.0267C50.8124 11.1703 51.2758 11.3138 51.6272 11.4574C51.986 11.5934 52.2887 11.8049 52.5354 12.092C52.7821 12.3716 52.9054 12.7531 52.9054 13.2367C52.9054 13.6371 52.797 14.0036 52.5802 14.336C52.3709 14.6609 52.0458 14.9216 51.6047 15.118C51.1637 15.3069 50.6217 15.4014 49.9789 15.4014Z" fill="#2B2D3A"/>
<path d="M56.4651 8.12536H53.7068V7.40003H60.0532V8.12536H57.2949V15.3334H56.4651V8.12536Z" fill="#2B2D3A"/>
<path d="M65.0367 15.4014C64.2593 15.4014 63.5529 15.2276 62.9175 14.88C62.2896 14.5249 61.7963 14.0414 61.4374 13.4294C61.0861 12.8174 60.9104 12.1298 60.9104 11.3667C60.9104 10.6036 61.0861 9.91603 61.4374 9.30403C61.7963 8.69203 62.2896 8.21225 62.9175 7.8647C63.5529 7.50959 64.2593 7.33203 65.0367 7.33203C65.8142 7.33203 66.5131 7.50581 67.1335 7.85336C67.7614 8.20092 68.2548 8.68448 68.6136 9.30403C68.9724 9.91603 69.1518 10.6036 69.1518 11.3667C69.1518 12.1298 68.9724 12.8211 68.6136 13.4407C68.2548 14.0527 67.7614 14.5325 67.1335 14.88C66.5131 15.2276 65.8142 15.4014 65.0367 15.4014ZM65.0367 14.6534C65.6572 14.6534 66.2178 14.5136 66.7187 14.234C67.2195 13.9469 67.6119 13.554 67.896 13.0554C68.1801 12.5491 68.3221 11.9863 68.3221 11.3667C68.3221 10.7471 68.1801 10.188 67.896 9.68936C67.6119 9.18314 67.2195 8.79025 66.7187 8.5107C66.2178 8.22359 65.6572 8.08003 65.0367 8.08003C64.4163 8.08003 63.8519 8.22359 63.3436 8.5107C62.8428 8.79025 62.4466 9.18314 62.1551 9.68936C61.871 10.188 61.729 10.7471 61.729 11.3667C61.729 11.9863 61.871 12.5491 62.1551 13.0554C62.4466 13.554 62.8428 13.9469 63.3436 14.234C63.8519 14.5136 64.4163 14.6534 65.0367 14.6534Z" fill="#2B2D3A"/>
<path d="M76.7077 15.3334L74.9137 12.7834C74.7119 12.806 74.5026 12.8174 74.2858 12.8174H72.1778V15.3334H71.348V7.40003H74.2858C75.2875 7.40003 76.0724 7.64181 76.6405 8.12536C77.2086 8.60892 77.4926 9.27381 77.4926 10.12C77.4926 10.7396 77.3357 11.2647 77.0217 11.6954C76.7152 12.1185 76.2742 12.4245 75.6986 12.6134L77.616 15.3334H76.7077ZM74.2634 12.1034C75.0408 12.1034 75.6351 11.9296 76.0462 11.582C76.4573 11.2345 76.6629 10.7471 76.6629 10.12C76.6629 9.47781 76.4573 8.9867 76.0462 8.6467C75.6351 8.29914 75.0408 8.12536 74.2634 8.12536H72.1778V12.1034H74.2634Z" fill="#2B2D3A"/>
<path d="M85.3377 14.608V15.3334H79.7874V7.40003H85.1695V8.12536H80.6171V10.9474H84.6762V11.6614H80.6171V14.608H85.3377Z" fill="#2B2D3A"/>
<path d="M35.1025 23.4427C35.4473 23.5236 35.712 23.6636 35.8967 23.8627C36.0875 24.0618 36.1829 24.3044 36.1829 24.5907C36.1829 24.8769 36.0844 25.132 35.8874 25.356C35.6966 25.58 35.435 25.7542 35.1025 25.8787C34.7701 25.9969 34.4038 26.056 34.0037 26.056C33.6528 26.056 33.3081 26.0062 32.9695 25.9067C32.6309 25.8009 32.3354 25.6484 32.083 25.4493L32.3046 24.9547C32.5262 25.1227 32.7848 25.2533 33.0803 25.3467C33.3758 25.44 33.6743 25.4867 33.976 25.4867C34.4254 25.4867 34.7917 25.4027 35.0748 25.2347C35.3642 25.0604 35.5088 24.8271 35.5088 24.5347C35.5088 24.2733 35.3919 24.0711 35.1579 23.928C34.924 23.7787 34.6039 23.704 34.1976 23.704H33.3665V23.2187H34.1607C34.5239 23.2187 34.8163 23.1502 35.0379 23.0133C35.2595 22.8702 35.3703 22.6804 35.3703 22.444C35.3703 22.1827 35.2441 21.9773 34.9917 21.828C34.7455 21.6787 34.4223 21.604 34.0222 21.604C33.4989 21.604 32.9818 21.7378 32.4708 22.0053L32.2862 21.492C32.8648 21.1871 33.465 21.0347 34.0868 21.0347C34.4562 21.0347 34.7886 21.0907 35.0841 21.2027C35.3857 21.3084 35.6196 21.4609 35.7859 21.66C35.9582 21.8591 36.0444 22.0893 36.0444 22.3507C36.0444 22.5996 35.9582 22.8204 35.7859 23.0133C35.6196 23.2062 35.3919 23.3493 35.1025 23.4427Z" fill="#2B2D3A" fill-opacity="0.8"/>
<path d="M40.4876 23.4613C41.1463 23.6169 41.4757 24.0182 41.4757 24.6653C41.4757 25.0947 41.3187 25.4244 41.0048 25.6547C40.6908 25.8849 40.2229 26 39.6012 26H37.3942V21.0907H39.5365C40.0906 21.0907 40.5246 21.1996 40.8385 21.4173C41.1525 21.6351 41.3095 21.9462 41.3095 22.3507C41.3095 22.6182 41.2356 22.8484 41.0879 23.0413C40.9463 23.228 40.7462 23.368 40.4876 23.4613ZM38.0314 23.2747H39.4904C39.8659 23.2747 40.1521 23.2031 40.3491 23.06C40.5523 22.9169 40.6539 22.7084 40.6539 22.4347C40.6539 22.1609 40.5523 21.9556 40.3491 21.8187C40.1521 21.6818 39.8659 21.6133 39.4904 21.6133H38.0314V23.2747ZM39.5735 25.4773C39.9921 25.4773 40.306 25.4089 40.5153 25.272C40.7247 25.1351 40.8293 24.9204 40.8293 24.628C40.8293 24.3356 40.7339 24.1209 40.543 23.984C40.3522 23.8409 40.0506 23.7693 39.6381 23.7693H38.0314V25.4773H39.5735Z" fill="#2B2D3A" fill-opacity="0.8"/>
<path d="M46.8628 21.0907L44.4343 26.588C44.2373 27.0484 44.0095 27.3751 43.7509 27.568C43.4924 27.7609 43.1815 27.8573 42.8183 27.8573C42.5844 27.8573 42.3658 27.82 42.1627 27.7453C41.9595 27.6707 41.7841 27.5587 41.6363 27.4093L41.9411 26.9147C42.1873 27.1636 42.4828 27.288 42.8275 27.288C43.0492 27.288 43.2369 27.2258 43.3908 27.1013C43.5509 26.9769 43.6986 26.7653 43.834 26.4667L44.0464 25.9907L41.8764 21.0907H42.5597L44.3881 25.2627L46.2164 21.0907H46.8628Z" fill="#2B2D3A" fill-opacity="0.8"/>
<path d="M49.3709 23.816H48.2629V26H47.6072V21.0907H48.2629V23.2467H49.3802L51.0885 21.0907H51.7995L49.888 23.4707L51.938 26H51.1623L49.3709 23.816Z" fill="#2B2D3A" fill-opacity="0.8"/>
<path d="M57.9288 23.4613C58.5875 23.6169 58.9168 24.0182 58.9168 24.6653C58.9168 25.0947 58.7599 25.4244 58.4459 25.6547C58.132 25.8849 57.6641 26 57.0423 26H54.8354V21.0907H56.9777C57.5317 21.0907 57.9657 21.1996 58.2797 21.4173C58.5937 21.6351 58.7506 21.9462 58.7506 22.3507C58.7506 22.6182 58.6768 22.8484 58.529 23.0413C58.3874 23.228 58.1874 23.368 57.9288 23.4613ZM55.4725 23.2747H56.9315C57.307 23.2747 57.5933 23.2031 57.7903 23.06C57.9934 22.9169 58.095 22.7084 58.095 22.4347C58.095 22.1609 57.9934 21.9556 57.7903 21.8187C57.5933 21.6818 57.307 21.6133 56.9315 21.6133H55.4725V23.2747ZM57.0146 25.4773C57.4332 25.4773 57.7472 25.4089 57.9565 25.272C58.1658 25.1351 58.2705 24.9204 58.2705 24.628C58.2705 24.3356 58.175 24.1209 57.9842 23.984C57.7934 23.8409 57.4917 23.7693 57.0793 23.7693H55.4725V25.4773H57.0146Z" fill="#2B2D3A" fill-opacity="0.8"/>
<path d="M67.0531 25.4213V27.1853H66.4344V26H62.0852V27.1853H61.4665V25.4213H61.7435C62.0698 25.4027 62.2914 25.16 62.4084 24.6933C62.5254 24.2267 62.6054 23.5733 62.6485 22.7333L62.7131 21.0907H66.2959V25.4213H67.0531ZM63.2487 22.7707C63.2179 23.4676 63.1594 24.0431 63.0732 24.4973C62.9871 24.9453 62.8332 25.2533 62.6115 25.4213H65.6403V21.6787H63.3041L63.2487 22.7707Z" fill="#2B2D3A" fill-opacity="0.8"/>
<path d="M72.3014 23.7507H68.2385C68.2754 24.2609 68.4693 24.6747 68.8202 24.992C69.1711 25.3031 69.6143 25.4587 70.1499 25.4587C70.4516 25.4587 70.7286 25.4058 70.981 25.3C71.2334 25.188 71.4519 25.0262 71.6366 24.8147L72.006 25.244C71.7905 25.5053 71.5196 25.7044 71.1934 25.8413C70.8732 25.9782 70.5193 26.0467 70.1314 26.0467C69.6328 26.0467 69.1896 25.9409 68.8017 25.7293C68.4201 25.5116 68.1215 25.2129 67.906 24.8333C67.6906 24.4538 67.5828 24.0244 67.5828 23.5453C67.5828 23.0662 67.6844 22.6369 67.8876 22.2573C68.0969 21.8778 68.3801 21.5822 68.7371 21.3707C69.1003 21.1591 69.5066 21.0533 69.956 21.0533C70.4054 21.0533 70.8086 21.1591 71.1657 21.3707C71.5227 21.5822 71.8028 21.8778 72.006 22.2573C72.2091 22.6307 72.3107 23.06 72.3107 23.5453L72.3014 23.7507ZM69.956 21.6227C69.4881 21.6227 69.0942 21.7751 68.774 22.08C68.4601 22.3787 68.2816 22.7707 68.2385 23.256H71.6828C71.6397 22.7707 71.4581 22.3787 71.138 22.08C70.824 21.7751 70.43 21.6227 69.956 21.6227Z" fill="#2B2D3A" fill-opacity="0.8"/>
<path d="M76.6851 21.6787H74.8475V26H74.1919V21.6787H72.3543V21.0907H76.6851V21.6787Z" fill="#2B2D3A" fill-opacity="0.8"/>
<path d="M79.0274 21.0533C79.6614 21.0533 80.1478 21.2151 80.4863 21.5387C80.8249 21.856 80.9942 22.3289 80.9942 22.9573V26H80.3663V25.2347C80.2186 25.4898 80 25.6889 79.7107 25.832C79.4275 25.9751 79.0889 26.0467 78.6949 26.0467C78.1532 26.0467 77.7223 25.916 77.4022 25.6547C77.0821 25.3933 76.922 25.048 76.922 24.6187C76.922 24.2018 77.0697 23.8658 77.3652 23.6107C77.6669 23.3556 78.144 23.228 78.7965 23.228H80.3386V22.9293C80.3386 22.5062 80.2216 22.1858 79.9877 21.968C79.7538 21.744 79.4121 21.632 78.9627 21.632C78.6549 21.632 78.3594 21.6849 78.0763 21.7907C77.7931 21.8902 77.5499 22.0302 77.3468 22.2107L77.0513 21.716C77.2975 21.5044 77.593 21.3427 77.9377 21.2307C78.2825 21.1124 78.6457 21.0533 79.0274 21.0533ZM78.7965 25.524C79.1659 25.524 79.4829 25.44 79.7476 25.272C80.0123 25.0978 80.2093 24.8489 80.3386 24.5253V23.7227H78.815C77.9839 23.7227 77.5684 24.0151 77.5684 24.6C77.5684 24.8862 77.6761 25.1133 77.8916 25.2813C78.107 25.4431 78.4087 25.524 78.7965 25.524Z" fill="#2B2D3A" fill-opacity="0.8"/>
<path d="M86.4331 21.0907V26H85.7775V21.6787H83.4505L83.3859 22.892C83.3367 23.9124 83.2197 24.6964 83.035 25.244C82.8503 25.7916 82.521 26.0653 82.047 26.0653C81.9177 26.0653 81.7607 26.0404 81.576 25.9907L81.6222 25.4213C81.733 25.4462 81.81 25.4587 81.853 25.4587C82.1054 25.4587 82.2963 25.3404 82.4256 25.104C82.5548 24.8676 82.641 24.5751 82.6841 24.2267C82.7272 23.8782 82.7641 23.4178 82.7949 22.8453L82.878 21.0907H86.4331Z" fill="#2B2D3A" fill-opacity="0.8"/>
<path d="M91.7504 21.0907V26H91.1502V24.376H89.6266H89.4419L88.3154 26H87.6043L88.814 24.2827C88.4385 24.1769 88.1492 23.9964 87.946 23.7413C87.7429 23.4862 87.6413 23.1627 87.6413 22.7707C87.6413 22.2231 87.826 21.8062 88.1953 21.52C88.5647 21.2338 89.0695 21.0907 89.7097 21.0907H91.7504ZM88.3061 22.7893C88.3061 23.5173 88.7648 23.8813 89.682 23.8813H91.1502V21.6787H89.7282C88.7801 21.6787 88.3061 22.0489 88.3061 22.7893Z" fill="#2B2D3A" fill-opacity="0.8"/>
<path d="M96.3808 26L94.8387 23.9467L93.2874 26H92.5487L94.4693 23.48L92.641 21.0907H93.3797L94.8387 23.0133L96.2977 21.0907H97.0179L95.1896 23.48L97.1288 26H96.3808Z" fill="#2B2D3A" fill-opacity="0.8"/>
<defs>
<linearGradient id="paint0_linear_2476:16950" x1="0.293015" y1="16" x2="12.5851" y2="16" gradientUnits="userSpaceOnUse">
<stop stop-color="#4757D6"/>
<stop offset="0.244792" stop-color="#5062F0"/>
<stop offset="0.515625" stop-color="#5568FF"/>
<stop offset="0.885417" stop-color="#6173FF"/>
<stop offset="1" stop-color="#6B7CFF"/>
</linearGradient>
<linearGradient id="paint1_linear_2476:16950" x1="9.5248" y1="15.9996" x2="28.4691" y2="15.9996" gradientUnits="userSpaceOnUse">
<stop stop-color="#4757D6"/>
<stop offset="0.244792" stop-color="#5062F0"/>
<stop offset="0.515625" stop-color="#5568FF"/>
<stop offset="0.885417" stop-color="#6173FF"/>
<stop offset="1" stop-color="#6B7CFF"/>
</linearGradient>
</defs>
</svg>
