<svg width="24" height="24" viewBox="0 0 24 24" fill="none" xmlns="http://www.w3.org/2000/svg">
<path d="M6.432 14.4478C5.424 14.4478 4.608 15.2638 4.608 16.2718V21.6958C4.608 22.7038 5.424 23.5198 6.432 23.5198C7.44 23.5198 8.256 22.7038 8.256 21.6958V16.2718C8.256 15.2638 7.44 14.4478 6.432 14.4478Z" fill="white"/>
<path d="M17.568 14.4478C16.56 14.4478 15.744 15.2638 15.744 16.2718V21.6958C15.744 22.7038 16.56 23.5198 17.568 23.5198C18.576 23.5198 19.392 22.7038 19.392 21.6958V16.2718C19.392 15.2638 18.576 14.4478 17.568 14.4478Z" fill="white"/>
<path d="M22.368 16.56V10.8C22.368 5.08798 17.664 0.47998 11.952 0.47998C6.24001 0.47998 1.53601 5.08798 1.53601 10.8V16.656C0.912011 17.232 0.480011 18.048 0.480011 19.008C0.480011 20.736 1.87201 22.128 3.60001 22.128V15.888C3.21601 15.888 2.88001 15.936 2.54401 16.08V13.824C2.54401 8.68798 6.76801 4.51198 11.952 4.51198C17.136 4.51198 21.36 8.68798 21.36 13.824V16.032C21.072 15.936 20.736 15.888 20.4 15.888V22.128C22.128 22.128 23.52 20.736 23.52 19.008C23.52 18 23.088 17.136 22.368 16.56Z" fill="white"/>
</svg>
