<svg width="11" height="21" viewBox="0 0 11 21" fill="none" xmlns="http://www.w3.org/2000/svg">
<mask id="mask0_1116_3736" style="mask-type:alpha" maskUnits="userSpaceOnUse" x="0" y="0" width="11" height="21">
<path d="M8.20986 3.48687H9.04348C9.59576 3.48687 10.0435 3.03916 10.0435 2.48688V1.01434C10.0435 0.517047 9.67749 0.10041 9.18147 0.0649588C8.69413 0.0301273 8.05948 0 7.37214 0C4.72841 0 2.91739 1.73862 2.91739 4.93412V7.875H0.5C0.223857 7.875 0 8.09886 0 8.375V11.1077C0 11.3839 0.223858 11.6077 0.5 11.6077H2.91739V20C2.91739 20.5523 3.3651 21 3.91739 21H5.49424C6.04653 21 6.49424 20.5523 6.49424 20V11.6086H8.84962C9.1029 11.6086 9.31617 11.4192 9.34612 11.1677L9.67145 8.43498C9.70687 8.13751 9.47453 7.87588 9.17496 7.87588H6.4934V5.30425C6.49424 4.22537 6.77209 3.48687 8.20986 3.48687Z" fill="#EBEEF5"/>
</mask>
<g mask="url(#mask0_1116_3736)">
<circle cx="5.4782" cy="10.0435" r="14.6087" fill="white"/>
</g>
</svg>
