<svg width="24" height="24" viewBox="0 0 24 24" fill="none" xmlns="http://www.w3.org/2000/svg">
<path d="M12.5304 19.8639L20.1271 12.2672C21.9937 10.4006 22.2691 7.32975 20.5027 5.36812C20.0602 4.87533 19.522 4.47786 18.9208 4.19996C18.3197 3.92205 17.6682 3.76954 17.0062 3.75173C16.3441 3.73392 15.6854 3.85119 15.0702 4.09637C14.455 4.34156 13.8962 4.70952 13.4278 5.17781L12 6.60562L10.7672 5.37281C8.90065 3.50625 5.82978 3.231 3.86815 4.99743C3.37536 5.4399 2.97789 5.97812 2.69999 6.57927C2.42208 7.18042 2.26957 7.83189 2.25176 8.49393C2.23395 9.15597 2.35122 9.8147 2.5964 10.4299C2.84159 11.0451 3.20955 11.604 3.67784 12.0723L11.4697 19.864C11.5393 19.9337 11.622 19.9889 11.713 20.0266C11.804 20.0643 11.9015 20.0837 12 20.0837C12.0985 20.0837 12.1961 20.0643 12.287 20.0266C12.378 19.9889 12.4607 19.9337 12.5304 19.864V19.8639Z" fill="#2B2D3A"/>
<path d="M12 20.8328C11.8031 20.8332 11.608 20.7947 11.426 20.7194C11.244 20.6442 11.0786 20.5337 10.9394 20.3944L3.14749 12.6024C2.60723 12.0621 2.1827 11.4175 1.8998 10.7077C1.6169 9.99794 1.48155 9.23799 1.50202 8.4742C1.52248 7.71041 1.69833 6.95879 2.01884 6.2652C2.33935 5.57161 2.79779 4.95058 3.36621 4.44C3.91247 3.95257 4.55147 3.58038 5.24496 3.34573C5.93844 3.11107 6.67215 3.01877 7.40215 3.07435C8.87219 3.17132 10.2567 3.79982 11.2975 4.84256L12 5.54503L12.8975 4.64756C13.4378 4.10728 14.0825 3.68273 14.7923 3.39981C15.502 3.11689 16.262 2.98153 17.0258 3.00199C17.7896 3.02244 18.5413 3.19829 19.2349 3.5188C19.9285 3.83931 20.5495 4.29776 21.0601 4.86619C21.5476 5.41242 21.9198 6.05142 22.1544 6.74491C22.3891 7.43841 22.4813 8.17213 22.4257 8.90213C22.3288 10.3722 21.7003 11.7568 20.6576 12.7975L13.0607 20.3943V20.3944C12.9215 20.5337 12.7561 20.6442 12.5741 20.7194C12.3921 20.7946 12.197 20.8332 12 20.8328ZM7.03015 4.56788C6.05177 4.55574 5.10376 4.90742 4.36999 5.55469C3.95283 5.92902 3.61632 6.38444 3.38102 6.89316C3.14572 7.40187 3.01656 7.9532 3.00143 8.51348C2.98629 9.07377 3.0855 9.63127 3.293 10.1519C3.50049 10.6726 3.81192 11.1455 4.20827 11.5418L12.5305 19.864L12 19.3336L19.5968 11.7368C21.2307 10.103 21.3871 7.47103 19.9453 5.86997C19.571 5.45284 19.1156 5.11636 18.6069 4.88107C18.0982 4.64579 17.5469 4.51663 16.9866 4.50149C16.4263 4.48635 15.8689 4.58554 15.3482 4.793C14.8275 5.00046 14.3546 5.31185 13.9583 5.70816L12.5305 7.13597C12.3898 7.27664 12.199 7.35566 12.0001 7.35566C11.8011 7.35566 11.6104 7.27664 11.4697 7.13597L10.2369 5.90316C9.38624 5.05206 8.23345 4.57203 7.03015 4.56788Z" fill="#1B1E30"/>
</svg>
