<svg width="19" height="18" viewBox="0 0 19 18" fill="none" xmlns="http://www.w3.org/2000/svg">
<path d="M3.45908 3.375H15.541C15.6499 3.375 15.7566 3.40665 15.8479 3.46611C15.9392 3.52557 16.0113 3.61028 16.0554 3.70994C16.0995 3.8096 16.1136 3.91991 16.0962 4.02748C16.0788 4.13505 16.0305 4.23524 15.9572 4.31588L11.3338 9.40159C11.2397 9.50513 11.1875 9.64004 11.1875 9.77997V13.7615C11.1875 13.8541 11.1647 13.9452 11.121 14.0269C11.0773 14.1085 11.0141 14.1781 10.937 14.2295L8.68704 15.7295C8.60232 15.786 8.50387 15.8184 8.40218 15.8233C8.30048 15.8282 8.19936 15.8054 8.1096 15.7574C8.01983 15.7094 7.94479 15.6379 7.89247 15.5505C7.84015 15.4632 7.81252 15.3633 7.81252 15.2615V9.77997C7.81252 9.64004 7.76036 9.50513 7.66623 9.40159L3.04286 4.31588C2.96956 4.23524 2.92125 4.13505 2.90382 4.02748C2.88639 3.91991 2.90058 3.8096 2.94466 3.70994C2.98875 3.61028 3.06083 3.52557 3.15215 3.46611C3.24348 3.40665 3.3501 3.375 3.45908 3.375V3.375Z" stroke="#5568FF" stroke-linecap="round" stroke-linejoin="round"/>
</svg>
