<svg width="18" height="18" viewBox="0 0 18 18" fill="none" xmlns="http://www.w3.org/2000/svg">
<circle cx="9" cy="9" r="9" fill="#EDEDED"/>
<path d="M8.26154 7.59841H9.73846V14H8.26154V7.59841ZM9 5.98151C8.71282 5.98151 8.47179 5.88639 8.27692 5.69617C8.09231 5.50594 8 5.27345 8 4.99868C8 4.72391 8.09231 4.49141 8.27692 4.30119C8.47179 4.1004 8.71282 4 9 4C9.28718 4 9.52308 4.09511 9.70769 4.28534C9.90256 4.46499 10 4.69221 10 4.96697C10 5.25231 9.90256 5.49538 9.70769 5.69617C9.52308 5.88639 9.28718 5.98151 9 5.98151Z" fill="#D2D2D2"/>
</svg>
