<svg width="188" height="48" viewBox="0 0 188 48" fill="none" xmlns="http://www.w3.org/2000/svg">
<path d="M49.1351 0.977951L57.4206 5.753C53.9229 11.2001 52.0709 17.5388 52.0861 24.0102C52.0861 24.3396 52.093 24.6621 52.0998 24.991C52.0998 25.0805 52.1071 25.1763 52.1071 25.2659C52.1071 25.3555 52.114 25.4439 52.1276 25.5335C52.1276 25.7393 52.1412 25.9383 52.1548 26.1372C52.1616 26.288 52.1684 26.4388 52.1826 26.5908C52.2031 26.8447 52.2235 27.0919 52.2513 27.3459L52.2717 27.5726C52.2922 27.792 52.32 28.0114 52.3472 28.2314C52.3528 28.3027 52.3621 28.3736 52.375 28.444C52.3954 28.5744 52.4091 28.7116 52.4318 28.8408C52.4332 28.8778 52.4379 28.9146 52.4459 28.9508C52.4596 29.033 52.4732 29.1152 52.4868 29.1906C52.5004 29.3414 52.5282 29.4928 52.5555 29.6441C52.5691 29.7263 52.5833 29.8017 52.5969 29.8839C52.5958 29.8959 52.5981 29.9079 52.6037 29.9185L52.6451 30.1589C52.6588 30.2411 52.6724 30.3165 52.6928 30.3987C52.7496 30.7144 52.8165 31.0302 52.8852 31.3454C52.9539 31.6408 53.0225 31.9492 53.098 32.2445C53.1462 32.4367 53.1945 32.6215 53.2495 32.8069C53.3041 33.0554 53.3729 33.3004 53.4555 33.541C53.4637 33.5852 53.475 33.6288 53.4896 33.6714C53.5032 33.7128 53.5106 33.7468 53.5242 33.7814L53.5651 33.9254C53.5997 34.0416 53.6337 34.1584 53.6751 34.2655C53.6956 34.3341 53.7166 34.4027 53.737 34.4645C53.7419 34.491 53.7511 34.5164 53.7642 34.5399C53.8329 34.7667 53.9084 34.9861 53.9912 35.2123C54.0321 35.3359 54.0735 35.4594 54.1218 35.5757C54.1904 35.782 54.2727 35.9878 54.3488 36.1868C54.3645 36.236 54.3835 36.2841 54.4055 36.3308C54.4396 36.4266 54.481 36.5298 54.519 36.6256C54.54 36.6874 54.5673 36.7423 54.5877 36.7956C54.6842 37.0422 54.7943 37.2826 54.897 37.523C54.897 37.5298 54.897 37.5298 54.9038 37.5366C55.0479 37.8796 55.2063 38.2169 55.364 38.5451C55.5082 38.8467 55.6523 39.1489 55.8106 39.4437C55.8589 39.54 55.9134 39.6426 55.9684 39.7384C56.0921 39.9788 56.2227 40.2192 56.3532 40.4522C56.415 40.569 56.4769 40.6789 56.5456 40.7884C56.6591 40.9941 56.7856 41.1999 56.9093 41.4057C56.9256 41.4393 56.9446 41.4715 56.9661 41.5021C56.9778 41.5165 56.987 41.5328 56.9933 41.5503C57.1307 41.7833 57.2822 42.0163 57.4263 42.243L52.6531 44.9942C52.6321 45.0079 52.6048 45.0215 52.5634 45.0424L49.1351 47.0192C48.0253 47.6606 46.7661 47.9989 45.484 48C44.2018 48.0011 42.9419 47.665 41.831 47.0256C40.7201 46.3861 39.7973 45.4657 39.1553 44.357C38.5134 43.2484 38.1749 41.9904 38.1739 40.7096V7.30349C38.1739 7.17366 38.1739 7.05008 38.1807 6.91969V6.90609C38.1863 6.86742 38.1886 6.82836 38.1875 6.7893C38.2748 5.55407 38.675 4.36124 39.3506 3.32296C40.0263 2.28472 40.9551 1.4351 42.0497 0.854019C43.1444 0.272942 44.3691 -0.0205421 45.6085 0.00111389C46.848 0.0227699 48.0615 0.358944 49.1351 0.977951Z" fill="url(#paint0_linear)"/>
<path d="M57.4188 5.75275L58.1055 6.14964L59.9941 7.23351L61.2994 7.98863H61.3062C61.313 7.99543 61.313 8.00223 61.3198 8.00223L78.0985 17.6839C79.2084 18.3252 80.1299 19.2468 80.7705 20.3563C81.4111 21.4658 81.7483 22.724 81.7483 24.0049C81.7483 25.2857 81.4111 26.544 80.7705 27.6535C80.1299 28.763 79.2084 29.6846 78.0985 30.3259L76.7592 31.1014L76.7456 31.1082C76.7381 31.1118 76.7313 31.1163 76.7252 31.1218L59.438 41.0801L57.4188 42.2462C57.2747 42.0194 57.1231 41.7864 56.9858 41.5534C56.9795 41.536 56.9703 41.5197 56.9586 41.5053C56.9371 41.4747 56.9182 41.4425 56.9018 41.4089C56.7781 41.2031 56.6544 40.9973 56.538 40.7916C56.4694 40.6821 56.4075 40.5722 56.3457 40.4554C56.2151 40.2224 56.0846 39.982 55.9609 39.7416C55.9041 39.6458 55.8514 39.5432 55.8031 39.4468C55.6448 39.152 55.5006 38.8499 55.3565 38.5483C55.1987 38.2189 55.0404 37.8827 54.8963 37.5397C54.8895 37.5329 54.8895 37.5329 54.8895 37.5261C54.7867 37.2858 54.6766 37.0454 54.5802 36.7988C54.5597 36.7422 54.5325 36.6889 54.5115 36.6288C54.4706 36.533 54.4292 36.4297 54.398 36.3339C54.376 36.2872 54.357 36.2391 54.3412 36.1899C54.2658 35.9909 54.1835 35.7852 54.1142 35.5788C54.066 35.4626 54.0246 35.3391 53.9837 35.2155C53.9009 34.9887 53.8254 34.7693 53.7567 34.5431C53.7436 34.5196 53.7344 34.4941 53.7295 34.4677C53.7091 34.4059 53.6881 34.3373 53.6676 34.2687C53.6262 34.1588 53.5921 34.042 53.5575 33.9286L53.5167 33.7846C53.503 33.75 53.4957 33.716 53.4821 33.6746C53.4676 33.632 53.4562 33.5885 53.448 33.5442C53.372 33.3039 53.3033 33.0572 53.242 32.81C53.1852 32.6247 53.1387 32.4399 53.0905 32.2477C53.015 31.9456 52.9463 31.6508 52.8777 31.3486C52.809 31.0334 52.7403 30.7176 52.6853 30.4019C52.6649 30.3197 52.6512 30.2443 52.6376 30.1621L52.5962 29.9217C52.5907 29.911 52.5883 29.899 52.5894 29.8871C52.5758 29.8049 52.5616 29.7295 52.5479 29.6473C52.5071 29.4137 52.4725 29.1875 52.4384 28.9545C52.4304 28.9184 52.4256 28.8815 52.4242 28.8445C52.4038 28.7141 52.3834 28.577 52.3675 28.4478C52.3546 28.3774 52.3453 28.3064 52.3397 28.2352L52.3192 28.0769C52.2988 27.9125 52.2778 27.7408 52.2625 27.5764L52.2421 27.3497C52.2143 27.0957 52.1938 26.8485 52.1734 26.5945C52.1592 26.4437 52.1524 26.2929 52.1456 26.141C52.1388 25.9891 52.1252 25.832 52.1183 25.6812C52.1149 25.6333 52.1149 25.5852 52.1183 25.5372C52.1047 25.3586 52.0979 25.18 52.0905 24.9947C52.0837 24.6659 52.0769 24.3434 52.0769 24.014C52.0631 17.5405 53.9178 11.2002 57.4188 5.75275Z" fill="url(#paint1_linear)"/>
<g style="mix-blend-mode:multiply" opacity="0.1">
<g style="mix-blend-mode:multiply" opacity="0.1">
<path d="M57.4188 5.75285L58.1055 6.14974L59.9941 7.2336C53.9298 21.3745 57.0959 34.5954 59.438 41.0779L57.4188 42.244C57.2747 42.0173 57.1231 41.7843 56.9858 41.5513C56.9795 41.5338 56.9703 41.5175 56.9586 41.5031C56.9371 41.4726 56.9181 41.4403 56.9018 41.4067C56.7781 41.2009 56.6544 40.9951 56.538 40.7893C56.4694 40.6799 56.4075 40.5699 56.3457 40.4532C56.2151 40.2202 56.0846 39.9798 55.9609 39.7394C55.9041 39.6436 55.8514 39.541 55.8031 39.4446C55.6448 39.1498 55.5006 38.8477 55.3565 38.5461C55.1987 38.2167 55.0404 37.8805 54.8963 37.5376C54.8894 37.5308 54.8894 37.5308 54.8894 37.524C54.7867 37.2836 54.6766 37.0432 54.5802 36.7966C54.5597 36.7399 54.5325 36.6866 54.5115 36.6265C54.4706 36.5307 54.4292 36.4276 54.398 36.3318C54.376 36.285 54.357 36.237 54.3412 36.1878C54.2658 35.9888 54.1835 35.783 54.1142 35.5766C54.066 35.4604 54.0246 35.3368 53.9837 35.2133C53.9009 34.9865 53.8254 34.7671 53.7567 34.5409C53.7436 34.5174 53.7344 34.492 53.7295 34.4655C53.709 34.4037 53.688 34.3351 53.6676 34.2665C53.6262 34.1565 53.5921 34.0398 53.5575 33.9264L53.5167 33.7824C53.503 33.7478 53.4957 33.7138 53.482 33.6724C53.4675 33.6298 53.4562 33.5863 53.448 33.542C53.372 33.3016 53.3033 33.055 53.242 32.8079C53.1852 32.6225 53.1387 32.4377 53.0905 32.2455C53.015 31.9433 52.9463 31.6486 52.8777 31.3464C52.809 31.0312 52.7403 30.7154 52.6853 30.3997C52.6648 30.3175 52.6512 30.2421 52.6376 30.1599L52.5962 29.9195C52.5906 29.9089 52.5883 29.8969 52.5894 29.8849C52.5479 29.6519 52.5071 29.4257 52.4793 29.1921C52.4657 29.1167 52.452 29.0345 52.4384 28.9523C52.4304 28.9162 52.4256 28.8794 52.4242 28.8424C52.4038 28.712 52.3834 28.5748 52.3675 28.4455C52.3546 28.3752 52.3453 28.3043 52.3397 28.2329L52.3192 28.0748C52.2988 27.9104 52.2778 27.7386 52.2625 27.5742L52.2421 27.3474C52.2143 27.0935 52.1938 26.8463 52.1734 26.5923C52.1592 26.4415 52.1524 26.2907 52.1456 26.1388C52.1388 25.9869 52.1252 25.8298 52.1183 25.679L52.0979 25.2675C52.0979 25.1779 52.0905 25.0821 52.0905 24.9925C52.0837 24.6637 52.0769 24.3411 52.0769 24.0118C52.0635 17.5391 53.9182 11.1997 57.4188 5.75285Z" fill="black"/>
</g>
</g>
<rect x="25.1937" y="11.353" width="5.64694" height="5.62763" rx="1.15977" fill="url(#paint2_linear)"/>
<rect x="17.3752" y="16.9807" width="5.64694" height="5.48333" rx="1.15977" fill="url(#paint3_linear)"/>
<rect x="9.84534" y="12.796" width="4.19901" height="4.18465" rx="0.869825" fill="url(#paint4_linear)"/>
<rect x="4.633" y="19.578" width="2.31669" height="2.16447" rx="0.434912" fill="url(#paint5_linear)"/>
<rect x="2.46185" y="16.9807" width="2.1719" height="2.16447" rx="0.434912" fill="url(#paint6_linear)"/>
<rect y="22.464" width="1.44793" height="1.58728" rx="0.289942" fill="url(#paint7_linear)"/>
<path d="M87.0641 11.1H91.9091C93.1671 11.1 94.2778 11.355 95.2411 11.865C96.2044 12.3637 96.9524 13.0663 97.4851 13.973C98.0178 14.8683 98.2841 15.894 98.2841 17.05C98.2841 18.206 98.0178 19.2373 97.4851 20.144C96.9524 21.0393 96.2044 21.742 95.2411 22.252C94.2778 22.7507 93.1671 23 91.9091 23H87.0641V11.1ZM91.8411 21.912C92.8838 21.912 93.7961 21.708 94.5781 21.3C95.3601 20.8807 95.9664 20.3083 96.3971 19.583C96.8278 18.8463 97.0431 18.002 97.0431 17.05C97.0431 16.098 96.8278 15.2593 96.3971 14.534C95.9664 13.7973 95.3601 13.225 94.5781 12.817C93.7961 12.3977 92.8838 12.188 91.8411 12.188H88.3221V21.912H91.8411ZM102.645 23.102C101.965 23.102 101.336 22.9547 100.758 22.66C100.18 22.3653 99.7097 21.946 99.347 21.402L100.095 20.552C100.752 21.5267 101.608 22.014 102.662 22.014C104.135 22.014 104.872 21.1413 104.872 19.396V12.188H100.52V11.1H106.113V19.345C106.113 20.5917 105.818 21.5323 105.229 22.167C104.651 22.7903 103.79 23.102 102.645 23.102ZM113.678 23.102C112.794 23.102 111.944 22.9603 111.128 22.677C110.323 22.3937 109.7 22.0197 109.258 21.555L109.751 20.586C110.181 21.0167 110.754 21.368 111.468 21.64C112.182 21.9007 112.918 22.031 113.678 22.031C114.743 22.031 115.542 21.8383 116.075 21.453C116.607 21.0563 116.874 20.5463 116.874 19.923C116.874 19.447 116.726 19.0673 116.432 18.784C116.148 18.5007 115.797 18.2853 115.378 18.138C114.958 17.9793 114.375 17.8093 113.627 17.628C112.731 17.4013 112.017 17.186 111.485 16.982C110.952 16.7667 110.493 16.4437 110.108 16.013C109.734 15.5823 109.547 14.9987 109.547 14.262C109.547 13.6613 109.705 13.1173 110.023 12.63C110.34 12.1313 110.827 11.7347 111.485 11.44C112.142 11.1453 112.958 10.998 113.933 10.998C114.613 10.998 115.276 11.0943 115.922 11.287C116.579 11.4683 117.146 11.7233 117.622 12.052L117.197 13.055C116.698 12.7263 116.165 12.4827 115.599 12.324C115.032 12.154 114.477 12.069 113.933 12.069C112.89 12.069 112.102 12.273 111.57 12.681C111.048 13.0777 110.788 13.5933 110.788 14.228C110.788 14.704 110.929 15.0893 111.213 15.384C111.507 15.6673 111.87 15.8883 112.301 16.047C112.743 16.1943 113.332 16.3587 114.069 16.54C114.941 16.7553 115.644 16.9707 116.177 17.186C116.721 17.39 117.18 17.7073 117.554 18.138C117.928 18.5573 118.115 19.1297 118.115 19.855C118.115 20.4557 117.95 21.0053 117.622 21.504C117.304 21.9913 116.811 22.3823 116.143 22.677C115.474 22.9603 114.652 23.102 113.678 23.102ZM123.512 12.188H119.33V11.1H128.952V12.188H124.77V23H123.512V12.188ZM136.507 23.102C135.329 23.102 134.258 22.8413 133.294 22.32C132.342 21.7873 131.594 21.062 131.05 20.144C130.518 19.226 130.251 18.1947 130.251 17.05C130.251 15.9053 130.518 14.874 131.05 13.956C131.594 13.038 132.342 12.3183 133.294 11.797C134.258 11.2643 135.329 10.998 136.507 10.998C137.686 10.998 138.746 11.2587 139.686 11.78C140.638 12.3013 141.386 13.0267 141.93 13.956C142.474 14.874 142.746 15.9053 142.746 17.05C142.746 18.1947 142.474 19.2317 141.93 20.161C141.386 21.079 140.638 21.7987 139.686 22.32C138.746 22.8413 137.686 23.102 136.507 23.102ZM136.507 21.98C137.448 21.98 138.298 21.7703 139.057 21.351C139.817 20.9203 140.412 20.331 140.842 19.583C141.273 18.8237 141.488 17.9793 141.488 17.05C141.488 16.1207 141.273 15.282 140.842 14.534C140.412 13.7747 139.817 13.1853 139.057 12.766C138.298 12.3353 137.448 12.12 136.507 12.12C135.567 12.12 134.711 12.3353 133.94 12.766C133.181 13.1853 132.58 13.7747 132.138 14.534C131.708 15.282 131.492 16.1207 131.492 17.05C131.492 17.9793 131.708 18.8237 132.138 19.583C132.58 20.331 133.181 20.9203 133.94 21.351C134.711 21.7703 135.567 21.98 136.507 21.98ZM154.202 23L151.482 19.175C151.176 19.209 150.859 19.226 150.53 19.226H147.334V23H146.076V11.1H150.53C152.049 11.1 153.239 11.4627 154.1 12.188C154.961 12.9133 155.392 13.9107 155.392 15.18C155.392 16.1093 155.154 16.897 154.678 17.543C154.213 18.1777 153.545 18.6367 152.672 18.92L155.579 23H154.202ZM150.496 18.155C151.675 18.155 152.576 17.8943 153.199 17.373C153.822 16.8517 154.134 16.1207 154.134 15.18C154.134 14.2167 153.822 13.48 153.199 12.97C152.576 12.4487 151.675 12.188 150.496 12.188H147.334V18.155H150.496ZM167.286 21.912V23H158.871V11.1H167.031V12.188H160.129V16.421H166.283V17.492H160.129V21.912H167.286Z" fill="#2B2D3A"/>
<path d="M91.1229 35.164C91.6455 35.2853 92.0469 35.4953 92.3269 35.794C92.6162 36.0927 92.7609 36.4567 92.7609 36.886C92.7609 37.3153 92.6115 37.698 92.3129 38.034C92.0235 38.37 91.6269 38.6313 91.1229 38.818C90.6189 38.9953 90.0635 39.084 89.4569 39.084C88.9249 39.084 88.4022 39.0093 87.8889 38.86C87.3755 38.7013 86.9275 38.4727 86.5449 38.174L86.8809 37.432C87.2169 37.684 87.6089 37.88 88.0569 38.02C88.5049 38.16 88.9575 38.23 89.4149 38.23C90.0962 38.23 90.6515 38.104 91.0809 37.852C91.5195 37.5907 91.7389 37.2407 91.7389 36.802C91.7389 36.41 91.5615 36.1067 91.2069 35.892C90.8522 35.668 90.3669 35.556 89.7509 35.556H88.4909V34.828H89.6949C90.2455 34.828 90.6889 34.7253 91.0249 34.52C91.3609 34.3053 91.5289 34.0207 91.5289 33.666C91.5289 33.274 91.3375 32.966 90.9549 32.742C90.5815 32.518 90.0915 32.406 89.4849 32.406C88.6915 32.406 87.9075 32.6067 87.1329 33.008L86.8529 32.238C87.7302 31.7807 88.6402 31.552 89.5829 31.552C90.1429 31.552 90.6469 31.636 91.0949 31.804C91.5522 31.9627 91.9069 32.1913 92.1589 32.49C92.4202 32.7887 92.5509 33.134 92.5509 33.526C92.5509 33.8993 92.4202 34.2307 92.1589 34.52C91.9069 34.8093 91.5615 35.024 91.1229 35.164ZM99.2874 35.192C100.286 35.4253 100.785 36.0273 100.785 36.998C100.785 37.642 100.547 38.1367 100.071 38.482C99.5954 38.8273 98.8861 39 97.9434 39H94.5974V31.636H97.8454C98.6854 31.636 99.3434 31.7993 99.8194 32.126C100.295 32.4527 100.533 32.9193 100.533 33.526C100.533 33.9273 100.421 34.2727 100.197 34.562C99.9827 34.842 99.6794 35.052 99.2874 35.192ZM95.5634 34.912H97.7754C98.3447 34.912 98.7787 34.8047 99.0774 34.59C99.3854 34.3753 99.5394 34.0627 99.5394 33.652C99.5394 33.2413 99.3854 32.9333 99.0774 32.728C98.7787 32.5227 98.3447 32.42 97.7754 32.42H95.5634V34.912ZM97.9014 38.216C98.5361 38.216 99.0121 38.1133 99.3294 37.908C99.6467 37.7027 99.8054 37.3807 99.8054 36.942C99.8054 36.5033 99.6607 36.1813 99.3714 35.976C99.0821 35.7613 98.6247 35.654 97.9994 35.654H95.5634V38.216H97.9014ZM108.953 31.636L105.271 39.882C104.972 40.5727 104.627 41.0627 104.235 41.352C103.843 41.6413 103.372 41.786 102.821 41.786C102.466 41.786 102.135 41.73 101.827 41.618C101.519 41.506 101.253 41.338 101.029 41.114L101.491 40.372C101.864 40.7453 102.312 40.932 102.835 40.932C103.171 40.932 103.456 40.8387 103.689 40.652C103.932 40.4653 104.156 40.148 104.361 39.7L104.683 38.986L101.393 31.636H102.429L105.201 37.894L107.973 31.636H108.953ZM112.756 35.724H111.076V39H110.082V31.636H111.076V34.87H112.77L115.36 31.636H116.438L113.54 35.206L116.648 39H115.472L112.756 35.724ZM125.73 35.192C126.729 35.4253 127.228 36.0273 127.228 36.998C127.228 37.642 126.99 38.1367 126.514 38.482C126.038 38.8273 125.329 39 124.386 39H121.04V31.636H124.288C125.128 31.636 125.786 31.7993 126.262 32.126C126.738 32.4527 126.976 32.9193 126.976 33.526C126.976 33.9273 126.864 34.2727 126.64 34.562C126.426 34.842 126.122 35.052 125.73 35.192ZM122.006 34.912H124.218C124.788 34.912 125.222 34.8047 125.52 34.59C125.828 34.3753 125.982 34.0627 125.982 33.652C125.982 33.2413 125.828 32.9333 125.52 32.728C125.222 32.5227 124.788 32.42 124.218 32.42H122.006V34.912ZM124.344 38.216C124.979 38.216 125.455 38.1133 125.772 37.908C126.09 37.7027 126.248 37.3807 126.248 36.942C126.248 36.5033 126.104 36.1813 125.814 35.976C125.525 35.7613 125.068 35.654 124.442 35.654H122.006V38.216H124.344ZM139.564 38.132V40.778H138.626V39H132.032V40.778H131.094V38.132H131.514C132.009 38.104 132.345 37.74 132.522 37.04C132.699 36.34 132.821 35.36 132.886 34.1L132.984 31.636H138.416V38.132H139.564ZM133.796 34.156C133.749 35.2013 133.661 36.0647 133.53 36.746C133.399 37.418 133.166 37.88 132.83 38.132H137.422V32.518H133.88L133.796 34.156ZM147.521 35.626H141.361C141.417 36.3913 141.711 37.012 142.243 37.488C142.775 37.9547 143.447 38.188 144.259 38.188C144.717 38.188 145.137 38.1087 145.519 37.95C145.902 37.782 146.233 37.5393 146.513 37.222L147.073 37.866C146.747 38.258 146.336 38.5567 145.841 38.762C145.356 38.9673 144.819 39.07 144.231 39.07C143.475 39.07 142.803 38.9113 142.215 38.594C141.637 38.2673 141.184 37.8193 140.857 37.25C140.531 36.6807 140.367 36.0367 140.367 35.318C140.367 34.5993 140.521 33.9553 140.829 33.386C141.147 32.8167 141.576 32.3733 142.117 32.056C142.668 31.7387 143.284 31.58 143.965 31.58C144.647 31.58 145.258 31.7387 145.799 32.056C146.341 32.3733 146.765 32.8167 147.073 33.386C147.381 33.946 147.535 34.59 147.535 35.318L147.521 35.626ZM143.965 32.434C143.256 32.434 142.659 32.6627 142.173 33.12C141.697 33.568 141.427 34.156 141.361 34.884H146.583C146.518 34.156 146.243 33.568 145.757 33.12C145.281 32.6627 144.684 32.434 143.965 32.434ZM154.167 32.518H151.381V39H150.387V32.518H147.601V31.636H154.167V32.518ZM157.719 31.58C158.68 31.58 159.417 31.8227 159.931 32.308C160.444 32.784 160.701 33.4933 160.701 34.436V39H159.749V37.852C159.525 38.2347 159.193 38.5333 158.755 38.748C158.325 38.9627 157.812 39.07 157.215 39.07C156.393 39.07 155.74 38.874 155.255 38.482C154.769 38.09 154.527 37.572 154.527 36.928C154.527 36.3027 154.751 35.7987 155.199 35.416C155.656 35.0333 156.379 34.842 157.369 34.842H159.707V34.394C159.707 33.7593 159.529 33.2787 159.175 32.952C158.82 32.616 158.302 32.448 157.621 32.448C157.154 32.448 156.706 32.5273 156.277 32.686C155.847 32.8353 155.479 33.0453 155.171 33.316L154.723 32.574C155.096 32.2567 155.544 32.014 156.067 31.846C156.589 31.6687 157.14 31.58 157.719 31.58ZM157.369 38.286C157.929 38.286 158.409 38.16 158.811 37.908C159.212 37.6467 159.511 37.2733 159.707 36.788V35.584H157.397C156.137 35.584 155.507 36.0227 155.507 36.9C155.507 37.3293 155.67 37.67 155.997 37.922C156.323 38.1647 156.781 38.286 157.369 38.286ZM168.947 31.636V39H167.953V32.518H164.425L164.327 34.338C164.252 35.8687 164.075 37.0447 163.795 37.866C163.515 38.6873 163.015 39.098 162.297 39.098C162.101 39.098 161.863 39.0607 161.583 38.986L161.653 38.132C161.821 38.1693 161.937 38.188 162.003 38.188C162.385 38.188 162.675 38.0107 162.871 37.656C163.067 37.3013 163.197 36.8627 163.263 36.34C163.328 35.8173 163.384 35.1267 163.431 34.268L163.557 31.636H168.947ZM177.008 31.636V39H176.098V36.564H173.788H173.508L171.8 39H170.722L172.556 36.424C171.987 36.2653 171.548 35.9947 171.24 35.612C170.932 35.2293 170.778 34.744 170.778 34.156C170.778 33.3347 171.058 32.7093 171.618 32.28C172.178 31.8507 172.944 31.636 173.914 31.636H177.008ZM171.786 34.184C171.786 35.276 172.482 35.822 173.872 35.822H176.098V32.518H173.942C172.505 32.518 171.786 33.0733 171.786 34.184ZM184.029 39L181.691 35.92L179.339 39H178.219L181.131 35.22L178.359 31.636H179.479L181.691 34.52L183.903 31.636H184.995L182.223 35.22L185.163 39H184.029Z" fill="#2B2D3A" fill-opacity="0.8"/>
<defs>
<linearGradient id="paint0_linear" x1="38.3472" y1="24" x2="56.9835" y2="24" gradientUnits="userSpaceOnUse">
<stop stop-color="#4757D6"/>
<stop offset="0.244792" stop-color="#5062F0"/>
<stop offset="0.515625" stop-color="#5568FF"/>
<stop offset="0.885417" stop-color="#6173FF"/>
<stop offset="1" stop-color="#6B7CFF"/>
</linearGradient>
<linearGradient id="paint1_linear" x1="52.3439" y1="23.9995" x2="81.0659" y2="23.9995" gradientUnits="userSpaceOnUse">
<stop stop-color="#4757D6"/>
<stop offset="0.244792" stop-color="#5062F0"/>
<stop offset="0.515625" stop-color="#5568FF"/>
<stop offset="0.885417" stop-color="#6173FF"/>
<stop offset="1" stop-color="#6B7CFF"/>
</linearGradient>
<linearGradient id="paint2_linear" x1="28.0172" y1="11.4037" x2="28.0172" y2="16.8512" gradientUnits="userSpaceOnUse">
<stop stop-color="#4757D6"/>
<stop offset="0.244792" stop-color="#5062F0"/>
<stop offset="0.515625" stop-color="#5568FF"/>
<stop offset="0.885417" stop-color="#6173FF"/>
<stop offset="1" stop-color="#6B7CFF"/>
</linearGradient>
<linearGradient id="paint3_linear" x1="20.1987" y1="17.03" x2="20.1987" y2="22.3379" gradientUnits="userSpaceOnUse">
<stop stop-color="#4757D6"/>
<stop offset="0.244792" stop-color="#5062F0"/>
<stop offset="0.515625" stop-color="#5568FF"/>
<stop offset="0.885417" stop-color="#6173FF"/>
<stop offset="1" stop-color="#6B7CFF"/>
</linearGradient>
<linearGradient id="paint4_linear" x1="11.9448" y1="12.8337" x2="11.9448" y2="16.8844" gradientUnits="userSpaceOnUse">
<stop stop-color="#4757D6"/>
<stop offset="0.244792" stop-color="#5062F0"/>
<stop offset="0.515625" stop-color="#5568FF"/>
<stop offset="0.885417" stop-color="#6173FF"/>
<stop offset="1" stop-color="#6B7CFF"/>
</linearGradient>
<linearGradient id="paint5_linear" x1="5.79134" y1="19.5975" x2="5.79134" y2="21.6927" gradientUnits="userSpaceOnUse">
<stop stop-color="#4757D6"/>
<stop offset="0.244792" stop-color="#5062F0"/>
<stop offset="0.515625" stop-color="#5568FF"/>
<stop offset="0.885417" stop-color="#6173FF"/>
<stop offset="1" stop-color="#6B7CFF"/>
</linearGradient>
<linearGradient id="paint6_linear" x1="3.5478" y1="17.0001" x2="3.5478" y2="19.0953" gradientUnits="userSpaceOnUse">
<stop stop-color="#4757D6"/>
<stop offset="0.244792" stop-color="#5062F0"/>
<stop offset="0.515625" stop-color="#5568FF"/>
<stop offset="0.885417" stop-color="#6173FF"/>
<stop offset="1" stop-color="#6B7CFF"/>
</linearGradient>
<linearGradient id="paint7_linear" x1="0.723967" y1="22.4783" x2="0.723967" y2="24.0148" gradientUnits="userSpaceOnUse">
<stop stop-color="#4757D6"/>
<stop offset="0.244792" stop-color="#5062F0"/>
<stop offset="0.515625" stop-color="#5568FF"/>
<stop offset="0.885417" stop-color="#6173FF"/>
<stop offset="1" stop-color="#6B7CFF"/>
</linearGradient>
</defs>
</svg>
