<svg width="115" height="32" viewBox="0 0 115 32" fill="none" xmlns="http://www.w3.org/2000/svg">
<rect x="1" width="112" height="32" rx="16" fill="#5568FF"/>
<path d="M20.762 14.108C20.12 14.108 19.538 13.97 19.016 13.694C18.5 13.412 18.092 13.025 17.792 12.533C17.498 12.035 17.351 11.474 17.351 10.85C17.351 10.226 17.498 9.668 17.792 9.176C18.092 8.678 18.5 8.291 19.016 8.015C19.538 7.733 20.123 7.592 20.771 7.592C21.317 7.592 21.809 7.688 22.247 7.88C22.691 8.072 23.063 8.348 23.363 8.708L22.427 9.572C22.001 9.08 21.473 8.834 20.843 8.834C20.453 8.834 20.105 8.921 19.799 9.095C19.493 9.263 19.253 9.5 19.079 9.806C18.911 10.112 18.827 10.46 18.827 10.85C18.827 11.24 18.911 11.588 19.079 11.894C19.253 12.2 19.493 12.44 19.799 12.614C20.105 12.782 20.453 12.866 20.843 12.866C21.473 12.866 22.001 12.617 22.427 12.119L23.363 12.983C23.063 13.349 22.691 13.628 22.247 13.82C21.803 14.012 21.308 14.108 20.762 14.108ZM28.6911 9.158V14H27.2871V10.31H25.7571L25.7121 11.165C25.6881 11.801 25.6281 12.329 25.5321 12.749C25.4361 13.169 25.2801 13.499 25.0641 13.739C24.8481 13.979 24.5481 14.099 24.1641 14.099C23.9601 14.099 23.7171 14.063 23.4351 13.991L23.5071 12.839C23.6031 12.851 23.6721 12.857 23.7141 12.857C23.9241 12.857 24.0801 12.782 24.1821 12.632C24.2901 12.476 24.3621 12.281 24.3981 12.047C24.4341 11.807 24.4611 11.492 24.4791 11.102L24.5511 9.158H28.6911ZM34.8922 9.158L32.7052 14.297C32.4832 14.855 32.2072 15.248 31.8772 15.476C31.5532 15.704 31.1602 15.818 30.6982 15.818C30.4462 15.818 30.1972 15.779 29.9512 15.701C29.7052 15.623 29.5042 15.515 29.3482 15.377L29.8612 14.378C29.9692 14.474 30.0922 14.549 30.2302 14.603C30.3742 14.657 30.5152 14.684 30.6532 14.684C30.8452 14.684 31.0012 14.636 31.1212 14.54C31.2412 14.45 31.3492 14.297 31.4452 14.081L31.4632 14.036L29.3662 9.158H30.8152L32.1742 12.443L33.5422 9.158H34.8922ZM42.9585 9.158V14H35.5695V9.158H36.9645V12.848H38.5755V9.158H39.9705V12.848H41.5635V9.158H42.9585ZM46.1869 9.086C46.9369 9.086 47.5129 9.266 47.9149 9.626C48.3169 9.98 48.5179 10.517 48.5179 11.237V14H47.2039V13.397C46.9399 13.847 46.4479 14.072 45.7279 14.072C45.3559 14.072 45.0319 14.009 44.7559 13.883C44.4859 13.757 44.2789 13.583 44.1349 13.361C43.9909 13.139 43.9189 12.887 43.9189 12.605C43.9189 12.155 44.0869 11.801 44.4229 11.543C44.7649 11.285 45.2899 11.156 45.9979 11.156H47.1139C47.1139 10.85 47.0209 10.616 46.8349 10.454C46.6489 10.286 46.3699 10.202 45.9979 10.202C45.7399 10.202 45.4849 10.244 45.2329 10.328C44.9869 10.406 44.7769 10.514 44.6029 10.652L44.0989 9.671C44.3629 9.485 44.6779 9.341 45.0439 9.239C45.4159 9.137 45.7969 9.086 46.1869 9.086ZM46.0789 13.127C46.3189 13.127 46.5319 13.073 46.7179 12.965C46.9039 12.851 47.0359 12.686 47.1139 12.47V11.975H46.1509C45.5749 11.975 45.2869 12.164 45.2869 12.542C45.2869 12.722 45.3559 12.866 45.4939 12.974C45.6379 13.076 45.8329 13.127 46.0789 13.127ZM49.7375 9.158H51.1325V12.038L53.4905 9.158H54.7775V14H53.3825V11.12L51.0335 14H49.7375V9.158ZM52.1675 8.636C51.1115 8.636 50.5805 8.171 50.5745 7.241H51.4925C51.4985 7.451 51.5555 7.616 51.6635 7.736C51.7775 7.85 51.9425 7.907 52.1585 7.907C52.3745 7.907 52.5395 7.85 52.6535 7.736C52.7735 7.616 52.8335 7.451 52.8335 7.241H53.7695C53.7635 8.171 53.2295 8.636 52.1675 8.636ZM22.49 20.158V25H21.086V21.31H19.07V25H17.675V20.158H22.49ZM26.1041 25.072C25.5941 25.072 25.1351 24.967 24.7271 24.757C24.3251 24.541 24.0101 24.244 23.7821 23.866C23.5541 23.488 23.4401 23.059 23.4401 22.579C23.4401 22.099 23.5541 21.67 23.7821 21.292C24.0101 20.914 24.3251 20.62 24.7271 20.41C25.1351 20.194 25.5941 20.086 26.1041 20.086C26.6141 20.086 27.0701 20.194 27.4721 20.41C27.8741 20.62 28.1891 20.914 28.4171 21.292C28.6451 21.67 28.7591 22.099 28.7591 22.579C28.7591 23.059 28.6451 23.488 28.4171 23.866C28.1891 24.244 27.8741 24.541 27.4721 24.757C27.0701 24.967 26.6141 25.072 26.1041 25.072ZM26.1041 23.92C26.4641 23.92 26.7581 23.8 26.9861 23.56C27.2201 23.314 27.3371 22.987 27.3371 22.579C27.3371 22.171 27.2201 21.847 26.9861 21.607C26.7581 21.361 26.4641 21.238 26.1041 21.238C25.7441 21.238 25.4471 21.361 25.2131 21.607C24.9791 21.847 24.8621 22.171 24.8621 22.579C24.8621 22.987 24.9791 23.314 25.2131 23.56C25.4471 23.8 25.7441 23.92 26.1041 23.92ZM35.0815 23.848V26.044H33.7765V25H30.3745V26.044H29.0695V23.848H29.2675C29.5675 23.842 29.7745 23.665 29.8885 23.317C30.0025 22.969 30.0745 22.474 30.1045 21.832L30.1675 20.158H34.3885V23.848H35.0815ZM31.3735 21.931C31.3555 22.423 31.3165 22.825 31.2565 23.137C31.2025 23.449 31.0975 23.686 30.9415 23.848H32.9845V21.31H31.4005L31.3735 21.931ZM38.098 23.164H37.369V25H35.965V20.158H37.369V22.039H38.125L39.439 20.158H40.933L39.241 22.48L41.05 25H39.394L38.098 23.164ZM43.5326 20.086C44.2826 20.086 44.8586 20.266 45.2606 20.626C45.6626 20.98 45.8636 21.517 45.8636 22.237V25H44.5496V24.397C44.2856 24.847 43.7936 25.072 43.0736 25.072C42.7016 25.072 42.3776 25.009 42.1016 24.883C41.8316 24.757 41.6246 24.583 41.4806 24.361C41.3366 24.139 41.2646 23.887 41.2646 23.605C41.2646 23.155 41.4326 22.801 41.7686 22.543C42.1106 22.285 42.6356 22.156 43.3436 22.156H44.4596C44.4596 21.85 44.3666 21.616 44.1806 21.454C43.9946 21.286 43.7156 21.202 43.3436 21.202C43.0856 21.202 42.8306 21.244 42.5786 21.328C42.3326 21.406 42.1226 21.514 41.9486 21.652L41.4446 20.671C41.7086 20.485 42.0236 20.341 42.3896 20.239C42.7616 20.137 43.1426 20.086 43.5326 20.086ZM43.4246 24.127C43.6646 24.127 43.8776 24.073 44.0636 23.965C44.2496 23.851 44.3816 23.686 44.4596 23.47V22.975H43.4966C42.9206 22.975 42.6326 23.164 42.6326 23.542C42.6326 23.722 42.7016 23.866 42.8396 23.974C42.9836 24.076 43.1786 24.127 43.4246 24.127ZM49.3872 25.072C48.8712 25.072 48.4062 24.967 47.9922 24.757C47.5842 24.541 47.2632 24.244 47.0292 23.866C46.8012 23.488 46.6872 23.059 46.6872 22.579C46.6872 22.099 46.8012 21.67 47.0292 21.292C47.2632 20.914 47.5842 20.62 47.9922 20.41C48.4062 20.194 48.8712 20.086 49.3872 20.086C49.8972 20.086 50.3412 20.194 50.7192 20.41C51.1032 20.62 51.3822 20.923 51.5562 21.319L50.4672 21.904C50.2152 21.46 49.8522 21.238 49.3782 21.238C49.0122 21.238 48.7092 21.358 48.4692 21.598C48.2292 21.838 48.1092 22.165 48.1092 22.579C48.1092 22.993 48.2292 23.32 48.4692 23.56C48.7092 23.8 49.0122 23.92 49.3782 23.92C49.8582 23.92 50.2212 23.698 50.4672 23.254L51.5562 23.848C51.3822 24.232 51.1032 24.532 50.7192 24.748C50.3412 24.964 49.8972 25.072 49.3872 25.072ZM56.4598 21.31H54.8218V25H53.4268V21.31H51.7888V20.158H56.4598V21.31ZM59.7552 21.706C60.3852 21.712 60.8622 21.853 61.1862 22.129C61.5102 22.405 61.6722 22.801 61.6722 23.317C61.6722 23.857 61.4892 24.274 61.1232 24.568C60.7572 24.862 60.2382 25.009 59.5662 25.009L57.2082 25V20.158H58.6032V21.706H59.7552ZM62.1942 20.158H63.5892V25H62.1942V20.158ZM59.4402 24.01C59.7102 24.016 59.9172 23.959 60.0612 23.839C60.2052 23.719 60.2772 23.539 60.2772 23.299C60.2772 23.065 60.2052 22.894 60.0612 22.786C59.9232 22.678 59.7162 22.621 59.4402 22.615L58.6032 22.606V24.01H59.4402Z" fill="white"/>
<g clip-path="url(#clip0_3116_6226)">
<path d="M79.432 18.4478C78.424 18.4478 77.608 19.2638 77.608 20.2718V25.6958C77.608 26.7038 78.424 27.5198 79.432 27.5198C80.44 27.5198 81.256 26.7038 81.256 25.6958V20.2718C81.256 19.2638 80.44 18.4478 79.432 18.4478Z" fill="white"/>
<path d="M90.568 18.4478C89.56 18.4478 88.744 19.2638 88.744 20.2718V25.6958C88.744 26.7038 89.56 27.5198 90.568 27.5198C91.576 27.5198 92.392 26.7038 92.392 25.6958V20.2718C92.392 19.2638 91.576 18.4478 90.568 18.4478Z" fill="white"/>
<path d="M95.368 20.56V14.8C95.368 9.08798 90.664 4.47998 84.952 4.47998C79.24 4.47998 74.536 9.08798 74.536 14.8V20.656C73.912 21.232 73.48 22.048 73.48 23.008C73.48 24.736 74.872 26.128 76.6 26.128V19.888C76.216 19.888 75.88 19.936 75.544 20.08V17.824C75.544 12.688 79.768 8.51198 84.952 8.51198C90.136 8.51198 94.36 12.688 94.36 17.824V20.032C94.072 19.936 93.736 19.888 93.4 19.888V26.128C95.128 26.128 96.52 24.736 96.52 23.008C96.52 22 96.088 21.136 95.368 20.56Z" fill="white"/>
</g>
<defs>
<clipPath id="clip0_3116_6226">
<rect width="24" height="24" fill="white" transform="translate(73 4)"/>
</clipPath>
</defs>
</svg>
