<svg width="19" height="16" viewBox="0 0 19 16" fill="none" xmlns="http://www.w3.org/2000/svg">
<path d="M0.286966 7.44248C2.23071 6.35382 4.40047 5.44523 6.42778 4.53198C9.91554 3.03616 13.4172 1.56626 16.9541 0.197798C17.6423 -0.035374 18.8788 -0.263404 19 0.773543C18.9336 2.24133 18.6605 3.70052 18.4732 5.15972C17.9977 8.36861 17.4482 11.5665 16.9123 14.7649C16.7276 15.8302 15.4151 16.3817 14.5753 15.6999C12.557 14.3137 10.5231 12.941 8.53061 11.5227C7.87791 10.8483 8.48315 9.87994 9.06608 9.39838C10.7284 7.73264 12.4914 6.3174 14.0668 4.56558C14.4918 3.52209 13.2361 4.40152 12.822 4.67097C10.5462 6.26556 8.32616 7.9575 5.92681 9.35893C4.70122 10.0449 3.27277 9.45868 2.04774 9.07588C0.949338 8.61348 -0.660222 8.14763 0.286855 7.44255L0.286966 7.44248Z" fill="#EBEEF5"/>
</svg>
