<svg width="18" height="14" viewBox="0 0 18 14" fill="none" xmlns="http://www.w3.org/2000/svg">
<path d="M8.74003 3.72422L8.77905 4.32976L8.12875 4.25561C5.76165 3.97138 3.6937 3.00746 1.93789 1.38857L1.0795 0.5853L0.858396 1.17848C0.39018 2.50078 0.689318 3.89723 1.66477 4.83643C2.18501 5.35547 2.06795 5.42962 1.17054 5.12067C0.858396 5.0218 0.58527 4.94766 0.559258 4.98473C0.468216 5.07124 0.78036 6.19581 1.02747 6.64069C1.36563 7.25859 2.05495 7.86413 2.80929 8.22251L3.44659 8.50674L2.69224 8.5191C1.9639 8.5191 1.93789 8.53146 2.01593 8.79098C2.27605 9.59424 3.30352 10.4469 4.44805 10.8177L5.25442 11.0772L4.5521 11.4727C3.51162 12.0411 2.28905 12.3624 1.06649 12.3871C0.481222 12.3995 0 12.4489 0 12.486C0 12.6096 1.58673 13.3016 2.51016 13.5735C5.28043 14.3768 8.57095 14.0307 11.0421 12.659C12.7979 11.6827 14.5537 9.74254 15.3731 7.86413C15.8153 6.86314 16.2575 5.03416 16.2575 4.15675C16.2575 3.58828 16.2965 3.51413 17.0248 2.83445C17.454 2.43899 17.8572 2.00646 17.9353 1.88288C18.0653 1.64808 18.0523 1.64808 17.389 1.85817C16.2835 2.22891 16.1274 2.17948 16.6737 1.62337C17.0769 1.22791 17.5581 0.511153 17.5581 0.301067C17.5581 0.263994 17.363 0.325783 17.1419 0.437005C16.9078 0.560584 16.3876 0.745954 15.9974 0.857175L15.295 1.06726L14.6578 0.659448C14.3066 0.437005 13.8124 0.189846 13.5522 0.115698C12.8889 -0.0573131 11.8745 -0.0325972 11.2762 0.16513C9.65045 0.721238 8.62297 2.15476 8.74003 3.72422Z" fill="#EBEEF5"/>
</svg>
