<svg
    xmlns="http://www.w3.org/2000/svg"
    viewBox="0 0 18 18"
    id="vector">
    <path
        id="path"
        d="M 15.75 9 C 15.75 9.149 15.691 9.292 15.585 9.398 C 15.48 9.503 15.337 9.563 15.188 9.563 L 2.813 9.563 C 2.663 9.563 2.52 9.503 2.415 9.398 C 2.309 9.292 2.25 9.149 2.25 9 C 2.25 8.851 2.309 8.708 2.415 8.602 C 2.52 8.497 2.663 8.438 2.813 8.438 L 15.188 8.438 C 15.337 8.438 15.48 8.497 15.585 8.602 C 15.691 8.708 15.75 8.851 15.75 9 Z M 2.813 5.063 L 15.188 5.063 C 15.337 5.063 15.48 5.003 15.585 4.898 C 15.691 4.792 15.75 4.649 15.75 4.5 C 15.75 4.351 15.691 4.208 15.585 4.102 C 15.48 3.997 15.337 3.938 15.188 3.938 L 2.813 3.938 C 2.663 3.938 2.52 3.997 2.415 4.102 C 2.309 4.208 2.25 4.351 2.25 4.5 C 2.25 4.649 2.309 4.792 2.415 4.898 C 2.52 5.003 2.663 5.063 2.813 5.063 Z M 15.188 12.938 L 2.813 12.938 C 2.663 12.938 2.52 12.997 2.415 13.102 C 2.309 13.208 2.25 13.351 2.25 13.5 C 2.25 13.649 2.309 13.792 2.415 13.898 C 2.52 14.003 2.663 14.063 2.813 14.063 L 15.188 14.063 C 15.337 14.063 15.48 14.003 15.585 13.898 C 15.691 13.792 15.75 13.649 15.75 13.5 C 15.75 13.351 15.691 13.208 15.585 13.102 C 15.48 12.997 15.337 12.938 15.188 12.938 Z"
        fill="#ffffff"
        stroke-width="1"/>
    <path
        id="path_1"
        d="M 14.063 3.938 L 3.938 14.063 M 14.063 14.063 L 3.938 3.938"
        fill="#000000"
        stroke="#ffffff"
        stroke-width="2"
        stroke-linecap="round"
        stroke-linejoin="round"/>
</svg>
