<svg width="24" height="14" viewBox="0 0 24 14" fill="none" xmlns="http://www.w3.org/2000/svg">
<path d="M20.1161 8.73046C20.8618 9.45884 21.6507 10.1443 22.3202 10.948C22.6168 11.3035 22.8964 11.6712 23.1092 12.0846C23.413 12.6742 23.1386 13.3208 22.6109 13.3558L19.333 13.3552C18.4864 13.4252 17.8127 13.0838 17.2447 12.505C16.7913 12.0437 16.3707 11.551 15.934 11.0741C15.7555 10.8783 15.5676 10.694 15.3437 10.549C14.8969 10.2583 14.5086 10.3473 14.2526 10.8141C13.9917 11.2891 13.9321 11.8155 13.9072 12.3442C13.8715 13.1172 13.6385 13.3191 12.8629 13.3555C11.2058 13.4331 9.63347 13.1816 8.17211 12.3462C6.88295 11.6093 5.88514 10.5693 5.01565 9.39173C3.32252 7.09624 2.02582 4.57684 0.860726 1.98508C0.598506 1.40139 0.790343 1.08908 1.43427 1.07697C2.5041 1.05635 3.57393 1.05897 4.64376 1.07599C5.07916 1.08286 5.36724 1.33199 5.53453 1.74283C6.11265 3.16524 6.8214 4.51857 7.70955 5.77369C7.94623 6.10793 8.18783 6.44119 8.53189 6.67722C8.91163 6.9378 9.20102 6.8517 9.38009 6.42776C9.49467 6.15834 9.5441 5.87026 9.56898 5.58152C9.6541 4.59255 9.66425 3.60391 9.51693 2.61887C9.42527 2.00244 9.07859 1.60436 8.46412 1.48781C8.15116 1.42856 8.19699 1.31267 8.34922 1.13393C8.6134 0.8249 8.86089 0.633718 9.35554 0.633718L13.059 0.633064C13.6427 0.747643 13.7737 1.00953 13.8529 1.59748L13.8562 5.71313C13.8493 5.94064 13.9704 6.61502 14.379 6.76397C14.7063 6.872 14.9224 6.60945 15.1182 6.40223C16.0063 5.45974 16.6391 4.34736 17.2058 3.19601C17.4559 2.68827 17.6716 2.16284 17.8811 1.63644C18.037 1.2472 18.2792 1.05569 18.7185 1.06224L22.2848 1.0665C22.3899 1.0665 22.4967 1.06748 22.6008 1.08548C23.2018 1.18828 23.3665 1.44689 23.1805 2.03321C22.8879 2.95441 22.3192 3.72176 21.7634 4.49107C21.1675 5.31472 20.5321 6.10956 19.9422 6.93682C19.4001 7.69303 19.443 8.07376 20.1161 8.73046Z" fill="#EBEEF5"/>
</svg>
