<svg width="112" height="32" viewBox="0 0 112 32" fill="none" xmlns="http://www.w3.org/2000/svg">
<path fill-rule="evenodd" clip-rule="evenodd" d="M90.8222 0.10362C86.8437 0.181898 86.5766 0.209588 85.0623 0.699C82.0987 1.65703 79.4732 4.11367 78.3221 7.00563C77.5486 8.94938 77.557 8.85135 77.557 15.8689C77.557 21.6638 77.5765 22.3203 77.7735 23.171C78.2632 25.286 79.338 27.2593 80.8164 28.7585C82.1171 30.0774 83.6718 31.0021 85.6097 31.6095L86.6332 31.9304L94.5458 31.9652L102.458 32L103.613 31.7055C107.582 30.6928 110.576 27.7579 111.734 23.7429C111.998 22.8288 112 22.7594 112 15.9857V9.15103L111.679 8.12337C110.336 3.82509 107.084 0.906962 102.8 0.156896C101.705 -0.0348265 98.5642 -0.0487296 90.8222 0.10362ZM91.6498 7.05633C92.0241 7.15424 92.6325 7.3705 93.0017 7.53687L93.6731 7.83935V9.10675V10.3743L92.9896 10.0255C91.4486 9.23924 89.3716 8.99938 87.9425 9.44253C86.5479 9.87504 85.6343 11.0372 85.2326 12.8897C84.9769 14.0685 84.8916 16.5169 85.054 18.0156C85.4044 21.2508 86.5204 22.7662 88.5469 22.7595C90.4727 22.753 91.4248 21.5036 91.5498 18.8189L91.611 17.5046H89.9657H88.3205V16.3362V15.1679H91.5353H94.75L94.69 17.4754C94.6424 19.3038 94.5794 19.9723 94.3871 20.6957C93.7444 23.112 92.2883 24.5561 90.0077 25.039C86.2701 25.8304 83.2757 23.8494 82.2757 19.9236C81.7653 17.9194 81.6861 14.9341 82.0927 13.0218C82.9762 8.86642 85.7751 6.61062 89.7903 6.81765C90.4387 6.85106 91.2755 6.95843 91.6498 7.05633ZM6.32948 7.10938C4.04332 7.30063 2.48373 8.05748 1.43695 9.48342C0.742851 10.4291 0.449853 11.4268 0.454042 12.8313C0.457766 14.083 0.671056 15.0402 1.14057 15.9139C1.5113 16.6037 2.56542 17.7711 3.38239 18.3966C3.69924 18.6392 3.9585 18.8803 3.9585 18.9323C3.9585 18.9843 3.06787 20.3666 1.97919 22.0043L0 24.9819H1.66304H3.32619L5.5623 21.6534C6.79213 19.8228 7.79842 18.2788 7.79842 18.2223C7.79842 18.1658 7.28992 17.784 6.66855 17.3739C4.41149 15.8844 3.63396 14.8089 3.52296 13.0223C3.47234 12.2076 3.50189 11.9776 3.72426 11.4588C4.06706 10.6585 4.80945 9.97902 5.60559 9.73683C5.94769 9.63273 6.79038 9.51625 7.47843 9.47781L8.72931 9.40806V17.195V24.9819H10.3009H11.8725L11.8427 16.0149L11.8129 7.04804L9.60202 7.03425C8.38605 7.02666 6.91338 7.06042 6.32948 7.10938ZM67.7827 11.7803C64.3783 12.1276 62.4213 14.8859 62.6444 19.0229C62.8044 21.9907 63.7318 23.6765 65.709 24.5937C67.3071 25.335 69.6903 25.404 71.1863 24.7519L71.7972 24.4858V23.219V21.952L71.419 22.1727C70.2835 22.8353 68.2005 22.9597 67.3262 22.4172C66.2367 21.741 65.8089 20.5992 65.8136 18.3808C65.8164 17.0703 65.8541 16.7671 66.0882 16.1705C66.4068 15.3587 67.1249 14.5264 67.6466 14.3642C68.7216 14.0301 69.8402 14.1134 71.0914 14.6209L71.7972 14.9071V13.5931V12.2791L71.1863 12.0925C70.1248 11.7685 68.9532 11.6611 67.7827 11.7803ZM42.8901 11.9668C40.5154 12.7228 39.2087 15 39.2021 18.3938C39.1991 19.9227 39.2535 20.4003 39.5326 21.3016C40.1105 23.167 41.1446 24.252 42.9395 24.8762C43.5655 25.0939 43.9568 25.1408 45.2086 25.1482C46.9072 25.1582 47.948 24.955 48.9322 24.4209L49.514 24.1053L49.547 22.8458L49.5801 21.5864L48.8776 21.9423C47.5022 22.6395 45.4851 22.9382 44.2543 22.6271C43.2202 22.3656 42.3577 21.143 42.3577 19.9385V19.6108L45.994 19.58L49.6303 19.5491L49.6164 17.9135C49.5889 14.702 48.808 13.0482 46.8958 12.1522C46.34 11.8918 46.0723 11.8479 44.8595 11.8184C43.8374 11.7936 43.3096 11.8333 42.8901 11.9668ZM104.064 12.0147C104.913 12.2779 106.009 13.0277 106.508 13.6871C107.502 14.998 107.915 16.6231 107.836 18.9066C107.755 21.2495 107.249 22.5693 105.961 23.7923C104.844 24.8528 103.494 25.2974 101.755 25.1778C98.7824 24.9734 96.9051 22.8942 96.5776 19.4434C96.2227 15.7035 97.6715 12.8806 100.394 12.0067C101.344 11.7017 103.067 11.7055 104.064 12.0147ZM14.431 18.4976V24.9819H15.9437H17.4564V22.2947V19.6076H19.4905H21.5246L21.5559 22.2655L21.5872 24.9234H23.0999H24.6126L24.6427 18.4684L24.6728 12.0134H23.1009H21.5291V14.5837V17.1541H19.4927H17.4564V14.5837V12.0134H15.9437H14.431V18.4976ZM28.1223 14.3793C28.0061 17.9855 27.6931 20.3061 27.1131 21.8624C26.8691 22.5172 26.8572 22.5284 26.4079 22.5284H25.9508V25.2155V27.9027H27.3471H28.7435V26.4423V24.9819H32.1761H35.6088V26.4423V27.9027H37.0051H38.4015V25.2155V22.5284H37.7033H37.0051V17.2709V12.0134H32.6019H28.1985L28.1223 14.3793ZM51.783 18.4976V24.9819H53.2938H54.8047L54.8356 21.8389L54.8666 18.6959L57.0821 21.8097L59.2976 24.9234L61.0093 24.9558C61.9508 24.9736 62.721 24.9598 62.721 24.9251C62.721 24.8904 61.6475 23.3349 60.3356 21.4684C59.0236 19.6019 57.9502 18.028 57.9502 17.9706C57.9502 17.9134 58.8564 16.6135 59.964 15.082C61.0718 13.5506 62.0173 12.2337 62.0654 12.1555C62.1325 12.0466 61.7916 12.0148 60.6042 12.0193L59.0556 12.0252L56.9611 14.9497L54.8666 17.8741L54.8355 14.9438L54.8044 12.0134H53.2937H51.783V18.4976ZM45.2301 14.2407C46.0367 14.5467 46.5467 15.5024 46.5467 16.708V17.2709H44.4522H42.3577V16.817C42.3577 16.1884 42.6792 15.2499 43.0426 14.8176C43.5321 14.2355 44.5256 13.9734 45.2301 14.2407ZM101.877 14.1693C101.813 14.1933 101.617 14.2445 101.442 14.2831C100.928 14.3969 100.34 15.008 100.05 15.7299C99.8067 16.3371 99.7835 16.5771 99.7828 18.5006L99.7821 20.6065L100.189 21.4214C100.701 22.4443 101.177 22.7575 102.226 22.7597C103.321 22.762 103.921 22.3111 104.4 21.1264C104.632 20.5534 104.661 20.2749 104.665 18.5561C104.668 16.9862 104.629 16.509 104.455 15.9857C104.204 15.2311 103.794 14.6487 103.353 14.4197C103.029 14.2517 102.085 14.0915 101.877 14.1693ZM33.9797 18.4976V22.5284H31.8393H29.6988L29.9257 21.7982C30.3225 20.5212 30.6157 18.4532 30.6877 16.4239L30.7571 14.4669H32.3684H33.9797V18.4976Z" fill="black"/>
</svg>
