<svg width="20" height="14" viewBox="0 0 20 14" fill="none" xmlns="http://www.w3.org/2000/svg">
<path fill-rule="evenodd" clip-rule="evenodd" d="M0.87868 0.87868C0 1.75736 0 3.17157 0 6V8C0 10.8284 0 12.2426 0.87868 13.1213C1.75736 14 3.17157 14 6 14H14C16.8284 14 18.2426 14 19.1213 13.1213C20 12.2426 20 10.8284 20 8V6C20 3.17157 20 1.75736 19.1213 0.87868C18.2426 0 16.8284 0 14 0H6C3.17157 0 1.75736 0 0.87868 0.87868ZM13.2112 6.99928L8.00659 9.99684V4.00172L13.2112 6.99928Z" fill="#EBEEF5"/>
</svg>
