<svg width="100" height="50" viewBox="0 0 100 50" fill="none" xmlns="http://www.w3.org/2000/svg">
<rect width="100" height="50" fill="white"/>
<g clip-path="url(#clip0_1052:58516)">
<path d="M52.9025 21.89H54.105V28.1125H52.5725L50.79 25.25C50.485 24.75 50.225 24.2175 50.225 24.2175H50.2075V28.1125H49V21.89H50.415L52.5275 25.28C52.6686 25.5031 52.7899 25.7382 52.89 25.9825V21.89H52.9025ZM59.8175 24.4375H57.7225V21.8875H56.195V28.11H57.7225V25.455H59.8175V28.11H61.3525V21.8875H59.8175V24.4375ZM37.455 25.405H39.44V24.47H37.455V22.85H40.1125V21.89H35.9225V28.1125H40.1575V27.075H37.455V25.4075V25.405ZM31.94 23.305C31.9046 23.2636 31.8821 23.2127 31.8754 23.1586C31.8687 23.1046 31.878 23.0497 31.9023 23.0009C31.9266 22.9522 31.9646 22.9116 32.0118 22.8843C32.059 22.857 32.1131 22.8442 32.1675 22.8475H34.445V21.89H31.75C31.4041 21.879 31.0676 22.0035 30.8121 22.237C30.5567 22.4705 30.4025 22.7945 30.3825 23.14C30.3825 23.505 30.41 23.77 30.9575 24.345L32.985 26.47C33.0385 26.5166 33.0763 26.5786 33.0933 26.6475C33.1103 26.7164 33.1056 26.7889 33.0799 26.855C33.0542 26.9212 33.0088 26.9778 32.9497 27.0171C32.8907 27.0565 32.8209 27.0767 32.75 27.075H30.25V28.1125H33.11C33.3067 28.1192 33.5027 28.0864 33.6865 28.016C33.8703 27.9456 34.0382 27.8391 34.1801 27.7028C34.322 27.5664 34.4352 27.403 34.5129 27.2222C34.5906 27.0414 34.6313 26.8468 34.6325 26.65C34.6325 26.2375 34.535 25.9625 33.9925 25.4L31.94 23.305ZM45.71 25.975C45.6099 25.7307 45.4886 25.4956 45.3475 25.2725L43.235 21.8825H41.82V28.1125H43.0225V24.225H43.04C43.04 24.225 43.29 24.765 43.605 25.2575L45.39 28.12H46.9225V21.89H45.72V25.9775L45.71 25.975ZM79.485 25.405H81.47V24.47H79.485V22.85H82.1425V21.89H77.9525V28.1125H82.1875V27.075H79.485V25.4075V25.405ZM88.9125 28.1125H87.25L86.055 25.5575H85.385V28.1125H83.855V21.89H86.645C87.99 21.89 88.615 22.7275 88.615 23.695C88.6147 24.0657 88.499 24.4271 88.284 24.7291C88.0689 25.031 87.7652 25.2585 87.415 25.38L88.9125 28.1125ZM87.305 23.735C87.305 23.4475 87.1375 22.85 86.33 22.85H85.3825V24.62H86.3125C87.1525 24.62 87.305 24 87.305 23.735ZM73.95 23.3075C73.9145 23.2661 73.8921 23.2152 73.8854 23.1611C73.8787 23.1071 73.888 23.0522 73.9123 23.0034C73.9365 22.9547 73.9746 22.9141 74.0218 22.8868C74.069 22.8595 74.1231 22.8467 74.1775 22.85H76.455V21.89H73.75C73.4041 21.879 73.0676 22.0035 72.8121 22.237C72.5567 22.4705 72.4025 22.7945 72.3825 23.14C72.3825 23.505 72.41 23.77 72.9575 24.345L74.985 26.47C75.043 26.5149 75.0852 26.5771 75.1055 26.6476C75.1258 26.7182 75.123 26.7933 75.0976 26.8622C75.0723 26.931 75.0256 26.99 74.9644 27.0305C74.9033 27.071 74.8308 27.091 74.7575 27.0875H72.25V28.125H75.11C75.3067 28.1317 75.5027 28.0989 75.6865 28.0285C75.8703 27.9581 76.0382 27.8516 76.1801 27.7153C76.322 27.5789 76.4352 27.4155 76.5129 27.2347C76.5906 27.0539 76.6313 26.8593 76.6325 26.6625C76.6325 26.25 76.535 25.975 75.9925 25.4125L73.95 23.3075ZM64.9725 25.4075H66.9575V24.47H64.975V22.85H67.6325V21.89H63.4425V28.1125H67.6775V27.075H64.975V25.4075H64.9725ZM69.3425 28.115H70.875V21.89H69.3425V28.1125V28.115ZM11 19.75V30.25H25V19.75H11ZM18.705 20.7175C17.8725 21.0375 17.0725 21.7425 16.4275 23.1575C16.24 23.5675 15.8875 24.36 15.7275 24.715C14.43 27.5625 13.765 28.175 11.8075 28.175V20.5375H18.67C18.6924 20.5362 18.7145 20.543 18.7322 20.5567C18.7499 20.5705 18.762 20.5902 18.7663 20.6122C18.7706 20.6342 18.7667 20.657 18.7554 20.6764C18.7442 20.6957 18.7262 20.7103 18.705 20.7175ZM24.205 21.8225V29.4625H17.33C17.3079 29.4631 17.2863 29.4558 17.2691 29.4418C17.2519 29.4279 17.2403 29.4083 17.2364 29.3865C17.2324 29.3647 17.2364 29.3422 17.2477 29.3232C17.2589 29.3041 17.2766 29.2897 17.2975 29.2825C18.13 28.9625 18.93 28.2575 19.575 26.8425C19.7625 26.4325 20.115 25.64 20.275 25.285C21.57 22.4375 22.235 21.825 24.1925 21.825L24.205 21.8225Z" fill="#2B2D3A"/>
</g>
<defs>
<clipPath id="clip0_1052:58516">
<rect width="77.9125" height="10.5" fill="white" transform="translate(11 19.75)"/>
</clipPath>
</defs>
</svg>
