<svg width="24" height="24" viewBox="0 0 24 24" fill="none" xmlns="http://www.w3.org/2000/svg">
<path d="M16.8492 4.41421L18.2635 4.41421C18.8157 4.41421 19.2635 4.86193 19.2635 5.41421L19.2635 6.82843C19.2635 7.09364 19.1581 7.348 18.9706 7.53553L18.1421 8.36396C17.9546 8.5515 17.7002 8.65685 17.435 8.65685L16.8492 8.65685C16.584 8.65685 16.3297 8.76221 16.1421 8.94975L15.3137 9.77817C15.1262 9.96571 15.0208 10.2201 15.0208 10.4853L15.0208 11.0711C15.0208 11.3363 14.9155 11.5906 14.7279 11.7782L12.8995 13.6066C12.509 13.9971 11.8758 13.9971 11.4853 13.6066L10.0711 12.1924C9.68054 11.8019 9.68054 11.1687 10.0711 10.7782L11.8995 8.94975C12.087 8.76221 12.3414 8.65685 12.6066 8.65685L13.1924 8.65685C13.4576 8.65685 13.712 8.5515 13.8995 8.36396L14.7279 7.53553C14.9155 7.348 15.0208 7.09364 15.0208 6.82843L15.0208 6.24264C15.0208 5.97742 15.1262 5.72307 15.3137 5.53553L16.1421 4.70711C16.3297 4.51957 16.584 4.41421 16.8492 4.41421Z" stroke="#2B2D3A" stroke-linecap="round"/>
<rect x="8.65686" y="12.8995" width="3" height="7" rx="0.5" transform="rotate(45 8.65686 12.8995)" stroke="#2B2D3A"/>
</svg>
