<svg width="24" height="24" viewBox="0 0 24 24" fill="none" xmlns="http://www.w3.org/2000/svg">
<g clip-path="url(#clip0)">
<mask id="path-1-inside-1" fill="white">
<path fill-rule="evenodd" clip-rule="evenodd" d="M19.799 2.82843C19.4085 2.4379 18.7753 2.4379 18.3848 2.82843L12.0208 9.19239C11.2398 8.41134 9.97346 8.41134 9.19241 9.19239L6.83639 11.5484C6.52999 11.8548 6.12865 12.0406 5.71155 12.158C4.91468 12.3823 4.16257 12.808 3.53555 13.435C1.58293 15.3877 1.58293 18.5535 3.53555 20.5061C5.48817 22.4587 8.654 22.4587 10.6066 20.5061C11.2336 19.8791 11.6593 19.127 11.8836 18.3301C12.0011 17.913 12.1868 17.5117 12.4932 17.2053L14.8493 14.8492C15.6303 14.0682 15.6303 12.8019 14.8493 12.0208L21.2132 5.65685C21.6037 5.26633 21.6037 4.63316 21.2132 4.24264L19.799 2.82843Z"/>
</mask>
<path d="M12.0208 9.19239L11.3137 9.89949L12.0208 10.6066L12.7279 9.89949L12.0208 9.19239ZM5.71155 12.158L5.44057 11.1954L5.44057 11.1954L5.71155 12.158ZM11.8836 18.3301L10.921 18.0591L10.921 18.0591L11.8836 18.3301ZM14.8493 12.0208L14.1422 11.3137L13.435 12.0208L14.1422 12.7279L14.8493 12.0208ZM19.0919 3.53553L19.0919 3.53553L20.5061 2.12132C19.7251 1.34027 18.4587 1.34027 17.6777 2.12132L19.0919 3.53553ZM12.7279 9.89949L19.0919 3.53553L17.6777 2.12132L11.3137 8.48528L12.7279 9.89949ZM12.7279 8.48528C11.5564 7.31371 9.65687 7.31371 8.4853 8.48528L9.89951 9.89949C10.29 9.50897 10.9232 9.50897 11.3137 9.89949L12.7279 8.48528ZM8.4853 8.48528L6.12928 10.8413L7.5435 12.2555L9.89951 9.89949L8.4853 8.48528ZM6.12928 10.8413C5.9876 10.983 5.76462 11.1042 5.44057 11.1954L5.98253 13.1206C6.49269 12.977 7.07238 12.7266 7.5435 12.2555L6.12928 10.8413ZM5.44057 11.1954C4.48312 11.465 3.57966 11.9767 2.82845 12.7279L4.24266 14.1421C4.74547 13.6393 5.34624 13.2997 5.98253 13.1206L5.44057 11.1954ZM2.82845 12.7279C0.485299 15.0711 0.4853 18.8701 2.82845 21.2132L4.24266 19.799C2.68056 18.2369 2.68056 15.7042 4.24266 14.1421L2.82845 12.7279ZM2.82845 21.2132C5.17159 23.5563 8.97058 23.5563 11.3137 21.2132L9.89951 19.799C8.33742 21.3611 5.80476 21.3611 4.24266 19.799L2.82845 21.2132ZM11.3137 21.2132C12.0649 20.462 12.5767 19.5585 12.8462 18.6011L10.921 18.0591C10.7419 18.6954 10.4023 19.2962 9.89951 19.799L11.3137 21.2132ZM12.8462 18.6011C12.9374 18.277 13.0587 18.054 13.2004 17.9124L11.7861 16.4982C11.315 16.9693 11.0647 17.549 10.921 18.0591L12.8462 18.6011ZM13.2004 17.9124L15.5564 15.5563L14.1422 14.1421L11.7861 16.4982L13.2004 17.9124ZM15.5564 15.5563C16.7279 14.3848 16.7279 12.4853 15.5564 11.3137L14.1422 12.7279C14.5327 13.1184 14.5327 13.7516 14.1422 14.1421L15.5564 15.5563ZM20.5061 4.94975L14.1422 11.3137L15.5564 12.7279L21.9203 6.36396L20.5061 4.94975ZM20.5061 4.94975L21.9203 6.36396C22.7014 5.58291 22.7014 4.31658 21.9203 3.53553L20.5061 4.94975ZM19.0919 3.53553L20.5061 4.94975L21.9203 3.53553L20.5061 2.12132L19.0919 3.53553Z" fill="#2B2D3A" mask="url(#path-1-inside-1)"/>
<circle cx="8.48535" cy="15.5563" r="1.5" transform="rotate(45 8.48535 15.5563)" stroke="#2B2D3A"/>
<path d="M19.0919 4.92029L10.6066 13.4056" stroke="#2B2D3A" stroke-linecap="round"/>
</g>
<defs>
<clipPath id="clip0">
<rect width="24" height="24" fill="white"/>
</clipPath>
</defs>
</svg>
