<svg width="24" height="24" viewBox="0 0 24 24" fill="none" xmlns="http://www.w3.org/2000/svg">
<mask id="path-1-inside-1" fill="white">
<path fill-rule="evenodd" clip-rule="evenodd" d="M13.7959 10.1612C14.5095 9.74914 14.4465 8.69922 13.6887 8.37552L11.2364 7.328C11.0374 7.24301 10.8713 7.09577 10.7632 6.90839L8.42983 2.86693C8.15369 2.38864 7.5421 2.22477 7.0638 2.50091L3.5997 4.50091C3.12141 4.77705 2.95753 5.38864 3.23368 5.86693L5.56701 9.90839C5.67519 10.0958 5.71969 10.3132 5.6938 10.528L5.37483 13.1755C5.27626 13.9937 6.15401 14.5732 6.86765 14.1612L13.7959 10.1612Z"/>
</mask>
<path d="M5.37483 13.1755L4.38201 13.0559L5.37483 13.1755ZM5.6938 10.528L4.70098 10.4084L5.6938 10.528ZM11.2364 7.328L10.8435 8.24762L11.2364 7.328ZM10.8435 8.24762L13.2959 9.29514L14.0815 7.45591L11.6292 6.40839L10.8435 8.24762ZM7.5638 3.36693L9.89714 7.40839L11.6292 6.40839L9.29585 2.36693L7.5638 3.36693ZM4.0997 5.36693L7.5638 3.36693L6.5638 1.63488L3.0997 3.63488L4.0997 5.36693ZM6.43303 9.40839L4.0997 5.36693L2.36765 6.36693L4.70098 10.4084L6.43303 9.40839ZM6.36765 13.2951L6.68662 10.6476L4.70098 10.4084L4.38201 13.0559L6.36765 13.2951ZM13.2959 9.29514L6.36765 13.2951L7.36765 15.0272L14.2959 11.0272L13.2959 9.29514ZM4.38201 13.0559C4.18487 14.6922 5.94036 15.8512 7.36765 15.0272L6.36765 13.2951L6.36765 13.2951L4.38201 13.0559ZM4.70098 10.4084L4.70098 10.4084L6.68662 10.6476C6.73839 10.218 6.6494 9.78315 6.43303 9.40839L4.70098 10.4084ZM3.0997 3.63488C2.14312 4.18717 1.81537 5.41035 2.36765 6.36693L4.0997 5.36693L4.0997 5.36693L3.0997 3.63488ZM9.29585 2.36693C8.74357 1.41035 7.52039 1.0826 6.5638 1.63488L7.5638 3.36693L7.5638 3.36693L9.29585 2.36693ZM13.2959 9.29514L13.2959 9.29514L14.2959 11.0272C15.7231 10.2031 15.5971 8.10331 14.0815 7.45591L13.2959 9.29514ZM11.6292 6.40839L11.6292 6.40839L9.89714 7.40839C10.1135 7.78315 10.4456 8.07763 10.8435 8.24762L11.6292 6.40839Z" fill="#2B2D3A" mask="url(#path-1-inside-1)"/>
<path d="M10.0638 7.69707L6.59974 9.69707" stroke="#2B2D3A" stroke-linecap="round"/>
<mask id="path-4-inside-2" fill="white">
<path d="M8.59974 13.1612C8.73106 13.3886 8.9059 13.588 9.11427 13.7479C9.32264 13.9078 9.56046 14.025 9.81415 14.093C10.0678 14.161 10.3324 14.1783 10.5928 14.1441C10.8532 14.1098 11.1043 14.0245 11.3318 13.8932C11.5592 13.7619 11.7586 13.5871 11.9185 13.3787C12.0784 13.1703 12.1957 12.9325 12.2636 12.6788C12.3316 12.4251 12.349 12.1605 12.3147 11.9001C12.2804 11.6397 12.1952 11.3886 12.0638 11.1612L11.1978 11.6612C11.2635 11.7749 11.3061 11.9004 11.3232 12.0306C11.3404 12.1608 11.3317 12.2931 11.2977 12.42C11.2637 12.5468 11.2051 12.6657 11.1251 12.7699C11.0452 12.8741 10.9455 12.9615 10.8318 13.0272C10.7181 13.0929 10.5925 13.1355 10.4623 13.1526C10.3321 13.1698 10.1998 13.1611 10.073 13.1271C9.94613 13.0931 9.82722 13.0345 9.72303 12.9545C9.61885 12.8746 9.53143 12.7749 9.46577 12.6612L8.59974 13.1612Z"/>
</mask>
<path d="M8.59974 13.1612C8.73106 13.3886 8.9059 13.588 9.11427 13.7479C9.32264 13.9078 9.56046 14.025 9.81415 14.093C10.0678 14.161 10.3324 14.1783 10.5928 14.1441C10.8532 14.1098 11.1043 14.0245 11.3318 13.8932C11.5592 13.7619 11.7586 13.5871 11.9185 13.3787C12.0784 13.1703 12.1957 12.9325 12.2636 12.6788C12.3316 12.4251 12.349 12.1605 12.3147 11.9001C12.2804 11.6397 12.1952 11.3886 12.0638 11.1612L11.1978 11.6612C11.2635 11.7749 11.3061 11.9004 11.3232 12.0306C11.3404 12.1608 11.3317 12.2931 11.2977 12.42C11.2637 12.5468 11.2051 12.6657 11.1251 12.7699C11.0452 12.8741 10.9455 12.9615 10.8318 13.0272C10.7181 13.0929 10.5925 13.1355 10.4623 13.1526C10.3321 13.1698 10.1998 13.1611 10.073 13.1271C9.94613 13.0931 9.82722 13.0345 9.72303 12.9545C9.61885 12.8746 9.53143 12.7749 9.46577 12.6612L8.59974 13.1612Z" stroke="#2B2D3A" stroke-width="2" mask="url(#path-4-inside-2)"/>
<path d="M11.8301 14.7601L13.3301 17.3582" stroke="#2B2D3A" stroke-linecap="round"/>
<path d="M7.91858 15.8638L7.78035 17.7457" stroke="#2B2D3A" stroke-linecap="round"/>
<path d="M14.7942 11.8941L16.4931 12.7153" stroke="#2B2D3A" stroke-linecap="round"/>
<path d="M10.098 15.7601L10.866 21.0903" stroke="#2B2D3A" stroke-linecap="round"/>
<path d="M13.5621 13.7601L19.6602 18.3223" stroke="#2B2D3A" stroke-linecap="round"/>
</svg>
