<svg width="24" height="24" viewBox="0 0 24 24" fill="none" xmlns="http://www.w3.org/2000/svg">
<g clip-path="url(#clip0)">
<mask id="path-1-inside-1" fill="white">
<path fill-rule="evenodd" clip-rule="evenodd" d="M19.7991 2.82843C19.4086 2.4379 18.7754 2.4379 18.3849 2.82843L12.021 9.19239C11.2399 8.41134 9.97358 8.41134 9.19253 9.19239L6.83651 11.5484C6.53011 11.8548 6.12877 12.0406 5.71167 12.158C4.9148 12.3823 4.16269 12.808 3.53567 13.435C1.58305 15.3877 1.58305 18.5535 3.53567 20.5061C5.4883 22.4587 8.65412 22.4587 10.6067 20.5061C11.2338 19.8791 11.6594 19.127 11.8838 18.3301C12.0012 17.913 12.187 17.5117 12.4934 17.2053L14.8494 14.8492C15.6304 14.0682 15.6304 12.8019 14.8494 12.0208L21.2133 5.65685C21.6039 5.26633 21.6039 4.63316 21.2133 4.24264L19.7991 2.82843Z"/>
</mask>
<path d="M12.021 9.19239L11.3138 9.89949L12.021 10.6066L12.7281 9.89949L12.021 9.19239ZM5.71167 12.158L5.44069 11.1954L5.44069 11.1954L5.71167 12.158ZM11.8838 18.3301L12.8463 18.6011L12.8463 18.6011L11.8838 18.3301ZM14.8494 12.0208L14.1423 11.3137L13.4352 12.0208L14.1423 12.7279L14.8494 12.0208ZM19.092 3.53553L19.092 3.53553L20.5062 2.12132C19.7252 1.34027 18.4589 1.34027 17.6778 2.12132L19.092 3.53553ZM12.7281 9.89949L19.092 3.53553L17.6778 2.12132L11.3138 8.48528L12.7281 9.89949ZM12.7281 8.48528C11.5565 7.31371 9.657 7.31371 8.48542 8.48528L9.89964 9.89949C10.2902 9.50897 10.9233 9.50897 11.3138 9.89949L12.7281 8.48528ZM8.48542 8.48528L6.12941 10.8413L7.54362 12.2555L9.89964 9.89949L8.48542 8.48528ZM6.12941 10.8413C5.98772 10.983 5.76474 11.1042 5.44069 11.1954L5.98265 13.1206C6.49281 12.977 7.0725 12.7266 7.54362 12.2555L6.12941 10.8413ZM5.44069 11.1954C4.48324 11.465 3.57978 11.9767 2.82857 12.7279L4.24278 14.1421C4.74559 13.6393 5.34636 13.2997 5.98265 13.1206L5.44069 11.1954ZM2.82857 12.7279C0.485421 15.0711 0.485422 18.8701 2.82857 21.2132L4.24278 19.799C2.68068 18.2369 2.68068 15.7042 4.24278 14.1421L2.82857 12.7279ZM2.82857 21.2132C5.17171 23.5563 8.9707 23.5563 11.3138 21.2132L9.89964 19.799C8.33754 21.3611 5.80488 21.3611 4.24278 19.799L2.82857 21.2132ZM11.3138 21.2132C12.0651 20.462 12.5768 19.5585 12.8463 18.6011L10.9212 18.0591C10.742 18.6954 10.4024 19.2962 9.89964 19.799L11.3138 21.2132ZM12.8463 18.6011C12.9376 18.277 13.0588 18.054 13.2005 17.9124L11.7863 16.4982C11.3151 16.9693 11.0648 17.549 10.9212 18.0591L12.8463 18.6011ZM13.2005 17.9124L15.5565 15.5563L14.1423 14.1421L11.7863 16.4982L13.2005 17.9124ZM15.5565 15.5563C16.7281 14.3848 16.7281 12.4853 15.5565 11.3137L14.1423 12.7279C14.5328 13.1184 14.5328 13.7516 14.1423 14.1421L15.5565 15.5563ZM20.5062 4.94975L14.1423 11.3137L15.5565 12.7279L21.9205 6.36396L20.5062 4.94975ZM20.5062 4.94975L21.9205 6.36396C22.7015 5.58291 22.7015 4.31658 21.9205 3.53553L20.5062 4.94975ZM19.092 3.53553L20.5062 4.94975L21.9205 3.53553L20.5062 2.12132L19.092 3.53553Z" fill="#3C52FD" mask="url(#path-1-inside-1)"/>
<circle cx="8.48535" cy="15.5569" r="1.5" transform="rotate(45 8.48535 15.5569)" stroke="#3C52FD"/>
<path d="M19.0918 4.91992L10.6065 13.4052" stroke="#3C52FD" stroke-linecap="round"/>
</g>
<defs>
<clipPath id="clip0">
<rect width="24" height="24" fill="white"/>
</clipPath>
</defs>
</svg>
