<svg xmlns="http://www.w3.org/2000/svg" viewBox="0 0 450 18" width="450" height="18"><path d="M15.75 9c0 .149-.059.292-.165.398-.105.105-.248.165-.397.165H2.813c-.15 0-.293-.06-.398-.165-.106-.106-.165-.249-.165-.398 0-.149.059-.292.165-.398.105-.105.248-.164.398-.164h12.375c.149 0 .292.059.397.164.106.106.165.249.165.398zM2.813 5.063h12.375c.149 0 .292-.06.397-.165.106-.106.165-.249.165-.398 0-.149-.059-.292-.165-.398-.105-.105-.248-.164-.397-.164H2.813c-.15 0-.293.059-.398.164-.106.106-.165.249-.165.398 0 .149.059.292.165.398.105.105.248.165.398.165zm12.375 7.875H2.813c-.15 0-.293.059-.398.164-.106.106-.165.249-.165.398 0 .149.059.292.165.398.105.105.248.165.398.165h12.375c.149 0 .292-.06.397-.165.106-.106.165-.249.165-.398 0-.149-.059-.292-.165-.398-.105-.105-.248-.164-.397-.164zM33.75 9c0 .149-.059.292-.165.398-.105.105-.248.165-.397.165H20.813c-.15 0-.293-.06-.398-.165-.106-.106-.165-.249-.165-.398 0-.149.059-.292.165-.398.105-.105.248-.164.398-.164h12.375c.149 0 .292.059.397.164.106.106.165.249.165.398zM20.813 5.063h12.375c.149 0 .292-.06.397-.165.106-.106.165-.249.165-.398 0-.149-.059-.292-.165-.398-.105-.105-.248-.164-.397-.164H20.813c-.15 0-.293.059-.398.164-.106.106-.165.249-.165.398 0 .149.059.292.165.398.105.105.248.165.398.165zm12.375 7.875H20.813c-.15 0-.293.059-.398.164-.106.106-.165.249-.165.398 0 .149.059.292.165.398.105.105.248.165.398.165h12.375c.149 0 .292-.06.397-.165.106-.106.165-.249.165-.398 0-.149-.059-.292-.165-.398-.105-.105-.248-.164-.397-.164zM51.75 9c0 .149-.059.292-.165.398-.105.105-.248.165-.397.165H38.813c-.15 0-.293-.06-.398-.165-.106-.106-.165-.249-.165-.398 0-.149.059-.292.165-.398.105-.105.248-.164.398-.164h12.375c.149 0 .292.059.397.164.106.106.165.249.165.398zM38.813 5.063h12.375c.149 0 .292-.06.397-.165.106-.106.165-.249.165-.398 0-.149-.059-.292-.165-.398-.105-.105-.248-.164-.397-.164H38.813c-.15 0-.293.059-.398.164-.106.106-.165.249-.165.398 0 .149.059.292.165.398.105.105.248.165.398.165zm12.375 7.875H38.813c-.15 0-.293.059-.398.164-.106.106-.165.249-.165.398 0 .149.059.292.165.398.105.105.248.165.398.165h12.375c.149 0 .292-.06.397-.165.106-.106.165-.249.165-.398 0-.149-.059-.292-.165-.398-.105-.105-.248-.164-.397-.164zM69.75 9c0 .149-.059.292-.165.398-.105.105-.248.165-.397.165H56.813c-.15 0-.293-.06-.398-.165-.106-.106-.165-.249-.165-.398 0-.149.059-.292.165-.398.105-.105.248-.164.398-.164h12.375c.149 0 .292.059.397.164.106.106.165.249.165.398zM56.813 5.063h12.375c.149 0 .292-.06.397-.165.106-.106.165-.249.165-.398 0-.149-.059-.292-.165-.398-.105-.105-.248-.164-.397-.164H56.813c-.15 0-.293.059-.398.164-.106.106-.165.249-.165.398 0 .149.059.292.165.398.105.105.248.165.398.165zm12.375 7.875H56.813c-.15 0-.293.059-.398.164-.106.106-.165.249-.165.398 0 .149.059.292.165.398.105.105.248.165.398.165h12.375c.149 0 .292-.06.397-.165.106-.106.165-.249.165-.398 0-.149-.059-.292-.165-.398-.105-.105-.248-.164-.397-.164zM87.75 9c0 .149-.059.292-.165.398-.105.105-.248.165-.397.165H74.813c-.15 0-.293-.06-.398-.165-.106-.106-.165-.249-.165-.398 0-.149.059-.292.165-.398.105-.105.248-.164.398-.164h12.375c.149 0 .292.059.397.164.106.106.165.249.165.398zM74.813 5.063h12.375c.149 0 .292-.06.397-.165.106-.106.165-.249.165-.398 0-.149-.059-.292-.165-.398-.105-.105-.248-.164-.397-.164H74.813c-.15 0-.293.059-.398.164-.106.106-.165.249-.165.398 0 .149.059.292.165.398.105.105.248.165.398.165zm12.375 7.875H74.813c-.15 0-.293.059-.398.164-.106.106-.165.249-.165.398 0 .149.059.292.165.398.105.105.248.165.398.165h12.375c.149 0 .292-.06.397-.165.106-.106.165-.249.165-.398 0-.149-.059-.292-.165-.398-.105-.105-.248-.164-.397-.164zM105.75 9c0 .149-.059.292-.165.398-.105.105-.248.165-.397.165H92.813c-.15 0-.293-.06-.398-.165-.106-.106-.165-.249-.165-.398 0-.149.059-.292.165-.398.105-.105.248-.164.398-.164h12.375c.149 0 .292.059.397.164.106.106.165.249.165.398zM92.813 5.063h12.375c.149 0 .292-.06.397-.165.106-.106.165-.249.165-.398 0-.149-.059-.292-.165-.398-.105-.105-.248-.164-.397-.164H92.813c-.15 0-.293.059-.398.164-.106.106-.165.249-.165.398 0 .149.059.292.165.398.105.105.248.165.398.165zm12.375 7.875H92.813c-.15 0-.293.059-.398.164-.106.106-.165.249-.165.398 0 .149.059.292.165.398.105.105.248.165.398.165h12.375c.149 0 .292-.06.397-.165.106-.106.165-.249.165-.398 0-.149-.059-.292-.165-.398-.105-.105-.248-.164-.397-.164zM123.75 9c0 .149-.059.292-.165.398-.105.105-.248.165-.397.165h-12.375c-.15 0-.293-.06-.398-.165-.106-.106-.165-.249-.165-.398 0-.149.059-.292.165-.398.105-.105.248-.164.398-.164h12.375c.149 0 .292.059.397.164.106.106.165.249.165.398zm-12.937-3.937h12.375c.149 0 .292-.06.397-.165.106-.106.165-.249.165-.398 0-.149-.059-.292-.165-.398-.105-.105-.248-.164-.397-.164h-12.375c-.15 0-.293.059-.398.164-.106.106-.165.249-.165.398 0 .149.059.292.165.398.105.105.248.165.398.165zm12.375 7.875h-12.375c-.15 0-.293.059-.398.164-.106.106-.165.249-.165.398 0 .149.059.292.165.398.105.105.248.165.398.165h12.375c.149 0 .292-.06.397-.165.106-.106.165-.249.165-.398 0-.149-.059-.292-.165-.398-.105-.105-.248-.164-.397-.164zM141.75 9c0 .149-.059.292-.165.398-.105.105-.248.165-.397.165h-12.375c-.15 0-.293-.06-.398-.165-.106-.106-.165-.249-.165-.398 0-.149.059-.292.165-.398.105-.105.248-.164.398-.164h12.375c.149 0 .292.059.397.164.106.106.165.249.165.398zm-12.937-3.937h12.375c.149 0 .292-.06.397-.165.106-.106.165-.249.165-.398 0-.149-.059-.292-.165-.398-.105-.105-.248-.164-.397-.164h-12.375c-.15 0-.293.059-.398.164-.106.106-.165.249-.165.398 0 .149.059.292.165.398.105.105.248.165.398.165zm12.375 7.875h-12.375c-.15 0-.293.059-.398.164-.106.106-.165.249-.165.398 0 .149.059.292.165.398.105.105.248.165.398.165h12.375c.149 0 .292-.06.397-.165.106-.106.165-.249.165-.398 0-.149-.059-.292-.165-.398-.105-.105-.248-.164-.397-.164zM159.75 9c0 .149-.059.292-.165.398-.105.105-.248.165-.397.165h-12.375c-.15 0-.293-.06-.398-.165-.106-.106-.165-.249-.165-.398 0-.149.059-.292.165-.398.105-.105.248-.164.398-.164h12.375c.149 0 .292.059.397.164.106.106.165.249.165.398zm-12.937-3.937h12.375c.149 0 .292-.06.397-.165.106-.106.165-.249.165-.398 0-.149-.059-.292-.165-.398-.105-.105-.248-.164-.397-.164h-12.375c-.15 0-.293.059-.398.164-.106.106-.165.249-.165.398 0 .149.059.292.165.398.105.105.248.165.398.165zm12.375 7.875h-12.375c-.15 0-.293.059-.398.164-.106.106-.165.249-.165.398 0 .149.059.292.165.398.105.105.248.165.398.165h12.375c.149 0 .292-.06.397-.165.106-.106.165-.249.165-.398 0-.149-.059-.292-.165-.398-.105-.105-.248-.164-.397-.164zM177.75 9c0 .149-.059.292-.165.398-.105.105-.248.165-.397.165h-12.375c-.15 0-.293-.06-.398-.165-.106-.106-.165-.249-.165-.398 0-.149.059-.292.165-.398.105-.105.248-.164.398-.164h12.375c.149 0 .292.059.397.164.106.106.165.249.165.398zm-12.937-3.937h12.375c.149 0 .292-.06.397-.165.106-.106.165-.249.165-.398 0-.149-.059-.292-.165-.398-.105-.105-.248-.164-.397-.164h-12.375c-.15 0-.293.059-.398.164-.106.106-.165.249-.165.398 0 .149.059.292.165.398.105.105.248.165.398.165zm12.375 7.875h-12.375c-.15 0-.293.059-.398.164-.106.106-.165.249-.165.398 0 .149.059.292.165.398.105.105.248.165.398.165h12.375c.149 0 .292-.06.397-.165.106-.106.165-.249.165-.398 0-.149-.059-.292-.165-.398-.105-.105-.248-.164-.397-.164zM195.75 9c0 .149-.059.292-.165.398-.105.105-.248.165-.397.165h-12.375c-.15 0-.293-.06-.398-.165-.106-.106-.165-.249-.165-.398 0-.149.059-.292.165-.398.105-.105.248-.164.398-.164h12.375c.149 0 .292.059.397.164.106.106.165.249.165.398zm-12.937-3.937h12.375c.149 0 .292-.06.397-.165.106-.106.165-.249.165-.398 0-.149-.059-.292-.165-.398-.105-.105-.248-.164-.397-.164h-12.375c-.15 0-.293.059-.398.164-.106.106-.165.249-.165.398 0 .149.059.292.165.398.105.105.248.165.398.165zm12.375 7.875h-12.375c-.15 0-.293.059-.398.164-.106.106-.165.249-.165.398 0 .149.059.292.165.398.105.105.248.165.398.165h12.375c.149 0 .292-.06.397-.165.106-.106.165-.249.165-.398 0-.149-.059-.292-.165-.398-.105-.105-.248-.164-.397-.164zM213.75 9c0 .149-.059.292-.165.398-.105.105-.248.165-.397.165h-12.375c-.15 0-.293-.06-.398-.165-.106-.106-.165-.249-.165-.398 0-.149.059-.292.165-.398.105-.105.248-.164.398-.164h12.375c.149 0 .292.059.397.164.106.106.165.249.165.398zm-12.937-3.937h12.375c.149 0 .292-.06.397-.165.106-.106.165-.249.165-.398 0-.149-.059-.292-.165-.398-.105-.105-.248-.164-.397-.164h-12.375c-.15 0-.293.059-.398.164-.106.106-.165.249-.165.398 0 .149.059.292.165.398.105.105.248.165.398.165zm12.375 7.875h-12.375c-.15 0-.293.059-.398.164-.106.106-.165.249-.165.398 0 .149.059.292.165.398.105.105.248.165.398.165h12.375c.149 0 .292-.06.397-.165.106-.106.165-.249.165-.398 0-.149-.059-.292-.165-.398-.105-.105-.248-.164-.397-.164zM231.75 9c0 .149-.059.292-.165.398-.105.105-.248.165-.397.165h-12.375c-.15 0-.293-.06-.398-.165-.106-.106-.165-.249-.165-.398 0-.149.059-.292.165-.398.105-.105.248-.164.398-.164h12.375c.149 0 .292.059.397.164.106.106.165.249.165.398zm-12.937-3.937h12.375c.149 0 .292-.06.397-.165.106-.106.165-.249.165-.398 0-.149-.059-.292-.165-.398-.105-.105-.248-.164-.397-.164h-12.375c-.15 0-.293.059-.398.164-.106.106-.165.249-.165.398 0 .149.059.292.165.398.105.105.248.165.398.165zm12.375 7.875h-12.375c-.15 0-.293.059-.398.164-.106.106-.165.249-.165.398 0 .149.059.292.165.398.105.105.248.165.398.165h12.375c.149 0 .292-.06.397-.165.106-.106.165-.249.165-.398 0-.149-.059-.292-.165-.398-.105-.105-.248-.164-.397-.164zM249.75 9c0 .149-.059.292-.165.398-.105.105-.248.165-.397.165h-12.375c-.15 0-.293-.06-.398-.165-.106-.106-.165-.249-.165-.398 0-.149.059-.292.165-.398.105-.105.248-.164.398-.164h12.375c.149 0 .292.059.397.164.106.106.165.249.165.398zm-12.937-3.937h12.375c.149 0 .292-.06.397-.165.106-.106.165-.249.165-.398 0-.149-.059-.292-.165-.398-.105-.105-.248-.164-.397-.164h-12.375c-.15 0-.293.059-.398.164-.106.106-.165.249-.165.398 0 .149.059.292.165.398.105.105.248.165.398.165zm12.375 7.875h-12.375c-.15 0-.293.059-.398.164-.106.106-.165.249-.165.398 0 .149.059.292.165.398.105.105.248.165.398.165h12.375c.149 0 .292-.06.397-.165.106-.106.165-.249.165-.398 0-.149-.059-.292-.165-.398-.105-.105-.248-.164-.397-.164zM267.75 9c0 .149-.059.292-.165.398-.105.105-.248.165-.397.165h-12.375c-.15 0-.293-.06-.398-.165-.106-.106-.165-.249-.165-.398 0-.149.059-.292.165-.398.105-.105.248-.164.398-.164h12.375c.149 0 .292.059.397.164.106.106.165.249.165.398zm-12.937-3.937h12.375c.149 0 .292-.06.397-.165.106-.106.165-.249.165-.398 0-.149-.059-.292-.165-.398-.105-.105-.248-.164-.397-.164h-12.375c-.15 0-.293.059-.398.164-.106.106-.165.249-.165.398 0 .149.059.292.165.398.105.105.248.165.398.165zm12.375 7.875h-12.375c-.15 0-.293.059-.398.164-.106.106-.165.249-.165.398 0 .149.059.292.165.398.105.105.248.165.398.165h12.375c.149 0 .292-.06.397-.165.106-.106.165-.249.165-.398 0-.149-.059-.292-.165-.398-.105-.105-.248-.164-.397-.164zM285.75 9c0 .149-.059.292-.165.398-.105.105-.248.165-.397.165h-12.375c-.15 0-.293-.06-.398-.165-.106-.106-.165-.249-.165-.398 0-.149.059-.292.165-.398.105-.105.248-.164.398-.164h12.375c.149 0 .292.059.397.164.106.106.165.249.165.398zm-12.937-3.937h12.375c.149 0 .292-.06.397-.165.106-.106.165-.249.165-.398 0-.149-.059-.292-.165-.398-.105-.105-.248-.164-.397-.164h-12.375c-.15 0-.293.059-.398.164-.106.106-.165.249-.165.398 0 .149.059.292.165.398.105.105.248.165.398.165zm12.375 7.875h-12.375c-.15 0-.293.059-.398.164-.106.106-.165.249-.165.398 0 .149.059.292.165.398.105.105.248.165.398.165h12.375c.149 0 .292-.06.397-.165.106-.106.165-.249.165-.398 0-.149-.059-.292-.165-.398-.105-.105-.248-.164-.397-.164zM303.75 9c0 .149-.059.292-.165.398-.105.105-.248.165-.397.165h-12.375c-.15 0-.293-.06-.398-.165-.106-.106-.165-.249-.165-.398 0-.149.059-.292.165-.398.105-.105.248-.164.398-.164h12.375c.149 0 .292.059.397.164.106.106.165.249.165.398zm-12.937-3.937h12.375c.149 0 .292-.06.397-.165.106-.106.165-.249.165-.398 0-.149-.059-.292-.165-.398-.105-.105-.248-.164-.397-.164h-12.375c-.15 0-.293.059-.398.164-.106.106-.165.249-.165.398 0 .149.059.292.165.398.105.105.248.165.398.165zm12.375 7.875h-12.375c-.15 0-.293.059-.398.164-.106.106-.165.249-.165.398 0 .149.059.292.165.398.105.105.248.165.398.165h12.375c.149 0 .292-.06.397-.165.106-.106.165-.249.165-.398 0-.149-.059-.292-.165-.398-.105-.105-.248-.164-.397-.164zM321.75 9c0 .149-.059.292-.165.398-.105.105-.248.165-.397.165h-12.375c-.15 0-.293-.06-.398-.165-.106-.106-.165-.249-.165-.398 0-.149.059-.292.165-.398.105-.105.248-.164.398-.164h12.375c.149 0 .292.059.397.164.106.106.165.249.165.398zm-12.937-3.937h12.375c.149 0 .292-.06.397-.165.106-.106.165-.249.165-.398 0-.149-.059-.292-.165-.398-.105-.105-.248-.164-.397-.164h-12.375c-.15 0-.293.059-.398.164-.106.106-.165.249-.165.398 0 .149.059.292.165.398.105.105.248.165.398.165zm12.375 7.875h-12.375c-.15 0-.293.059-.398.164-.106.106-.165.249-.165.398 0 .149.059.292.165.398.105.105.248.165.398.165h12.375c.149 0 .292-.06.397-.165.106-.106.165-.249.165-.398 0-.149-.059-.292-.165-.398-.105-.105-.248-.164-.397-.164zM339.75 9c0 .149-.059.292-.165.398-.105.105-.248.165-.397.165h-12.375c-.15 0-.293-.06-.398-.165-.106-.106-.165-.249-.165-.398 0-.149.059-.292.165-.398.105-.105.248-.164.398-.164h12.375c.149 0 .292.059.397.164.106.106.165.249.165.398zm-12.937-3.937h12.375c.149 0 .292-.06.397-.165.106-.106.165-.249.165-.398 0-.149-.059-.292-.165-.398-.105-.105-.248-.164-.397-.164h-12.375c-.15 0-.293.059-.398.164-.106.106-.165.249-.165.398 0 .149.059.292.165.398.105.105.248.165.398.165zm12.375 7.875h-12.375c-.15 0-.293.059-.398.164-.106.106-.165.249-.165.398 0 .149.059.292.165.398.105.105.248.165.398.165h12.375c.149 0 .292-.06.397-.165.106-.106.165-.249.165-.398 0-.149-.059-.292-.165-.398-.105-.105-.248-.164-.397-.164zM357.75 9c0 .149-.059.292-.165.398-.105.105-.248.165-.397.165h-12.375c-.15 0-.293-.06-.398-.165-.106-.106-.165-.249-.165-.398 0-.149.059-.292.165-.398.105-.105.248-.164.398-.164h12.375c.149 0 .292.059.397.164.106.106.165.249.165.398zm-12.937-3.937h12.375c.149 0 .292-.06.397-.165.106-.106.165-.249.165-.398 0-.149-.059-.292-.165-.398-.105-.105-.248-.164-.397-.164h-12.375c-.15 0-.293.059-.398.164-.106.106-.165.249-.165.398 0 .149.059.292.165.398.105.105.248.165.398.165zm12.375 7.875h-12.375c-.15 0-.293.059-.398.164-.106.106-.165.249-.165.398 0 .149.059.292.165.398.105.105.248.165.398.165h12.375c.149 0 .292-.06.397-.165.106-.106.165-.249.165-.398 0-.149-.059-.292-.165-.398-.105-.105-.248-.164-.397-.164zM375.75 9c0 .149-.059.292-.165.398-.105.105-.248.165-.397.165h-12.375c-.15 0-.293-.06-.398-.165-.106-.106-.165-.249-.165-.398 0-.149.059-.292.165-.398.105-.105.248-.164.398-.164h12.375c.149 0 .292.059.397.164.106.106.165.249.165.398zm-12.937-3.937h12.375c.149 0 .292-.06.397-.165.106-.106.165-.249.165-.398 0-.149-.059-.292-.165-.398-.105-.105-.248-.164-.397-.164h-12.375c-.15 0-.293.059-.398.164-.106.106-.165.249-.165.398 0 .149.059.292.165.398.105.105.248.165.398.165zm12.375 7.875h-12.375c-.15 0-.293.059-.398.164-.106.106-.165.249-.165.398 0 .149.059.292.165.398.105.105.248.165.398.165h12.375c.149 0 .292-.06.397-.165.106-.106.165-.249.165-.398 0-.149-.059-.292-.165-.398-.105-.105-.248-.164-.397-.164zM393.75 9c0 .149-.059.292-.165.398-.105.105-.248.165-.397.165h-12.375c-.15 0-.293-.06-.398-.165-.106-.106-.165-.249-.165-.398 0-.149.059-.292.165-.398.105-.105.248-.164.398-.164h12.375c.149 0 .292.059.397.164.106.106.165.249.165.398zm-12.937-3.937h12.375c.149 0 .292-.06.397-.165.106-.106.165-.249.165-.398 0-.149-.059-.292-.165-.398-.105-.105-.248-.164-.397-.164h-12.375c-.15 0-.293.059-.398.164-.106.106-.165.249-.165.398 0 .149.059.292.165.398.105.105.248.165.398.165zm12.375 7.875h-12.375c-.15 0-.293.059-.398.164-.106.106-.165.249-.165.398 0 .149.059.292.165.398.105.105.248.165.398.165h12.375c.149 0 .292-.06.397-.165.106-.106.165-.249.165-.398 0-.149-.059-.292-.165-.398-.105-.105-.248-.164-.397-.164zM411.75 9c0 .149-.059.292-.165.398-.105.105-.248.165-.397.165h-12.375c-.15 0-.293-.06-.398-.165-.106-.106-.165-.249-.165-.398 0-.149.059-.292.165-.398.105-.105.248-.164.398-.164h12.375c.149 0 .292.059.397.164.106.106.165.249.165.398zm-12.937-3.937h12.375c.149 0 .292-.06.397-.165.106-.106.165-.249.165-.398 0-.149-.059-.292-.165-.398-.105-.105-.248-.164-.397-.164h-12.375c-.15 0-.293.059-.398.164-.106.106-.165.249-.165.398 0 .149.059.292.165.398.105.105.248.165.398.165zm12.375 7.875h-12.375c-.15 0-.293.059-.398.164-.106.106-.165.249-.165.398 0 .149.059.292.165.398.105.105.248.165.398.165h12.375c.149 0 .292-.06.397-.165.106-.106.165-.249.165-.398 0-.149-.059-.292-.165-.398-.105-.105-.248-.164-.397-.164zM429.75 9c0 .149-.059.292-.165.398-.105.105-.248.165-.397.165h-12.375c-.15 0-.293-.06-.398-.165-.106-.106-.165-.249-.165-.398 0-.149.059-.292.165-.398.105-.105.248-.164.398-.164h12.375c.149 0 .292.059.397.164.106.106.165.249.165.398zm-12.937-3.937h12.375c.149 0 .292-.06.397-.165.106-.106.165-.249.165-.398 0-.149-.059-.292-.165-.398-.105-.105-.248-.164-.397-.164h-12.375c-.15 0-.293.059-.398.164-.106.106-.165.249-.165.398 0 .149.059.292.165.398.105.105.248.165.398.165zm12.375 7.875h-12.375c-.15 0-.293.059-.398.164-.106.106-.165.249-.165.398 0 .149.059.292.165.398.105.105.248.165.398.165h12.375c.149 0 .292-.06.397-.165.106-.106.165-.249.165-.398 0-.149-.059-.292-.165-.398-.105-.105-.248-.164-.397-.164zM446.063 3.938l-10.125 10.125m10.125 0L435.938 3.938" fill="#ffffff"/></svg>