<svg width="24" height="24" viewBox="0 0 24 24" fill="none" xmlns="http://www.w3.org/2000/svg">
<path d="M16.8491 4.41421L18.2633 4.41421C18.8156 4.41421 19.2633 4.86193 19.2633 5.41421L19.2633 6.82843C19.2633 7.09364 19.158 7.348 18.9704 7.53553L18.142 8.36396C17.9545 8.5515 17.7001 8.65685 17.4349 8.65685L16.8491 8.65685C16.5839 8.65685 16.3296 8.76221 16.142 8.94975L15.3136 9.77817C15.1261 9.96571 15.0207 10.2201 15.0207 10.4853L15.0207 11.0711C15.0207 11.3363 14.9153 11.5906 14.7278 11.7782L12.8994 13.6066C12.5088 13.9971 11.8757 13.9971 11.4852 13.6066L10.0709 12.1924C9.68042 11.8019 9.68042 11.1687 10.0709 10.7782L11.8994 8.94975C12.0869 8.76221 12.3413 8.65685 12.6065 8.65685L13.1923 8.65685C13.4575 8.65685 13.7118 8.5515 13.8994 8.36396L14.7278 7.53553C14.9153 7.348 15.0207 7.09364 15.0207 6.82843L15.0207 6.24264C15.0207 5.97742 15.1261 5.72307 15.3136 5.53553L16.142 4.70711C16.3296 4.51957 16.5839 4.41421 16.8491 4.41421Z" stroke="#8B91B4" stroke-linecap="round"/>
<rect x="8.65674" y="12.8995" width="3" height="7" rx="0.5" transform="rotate(45 8.65674 12.8995)" stroke="#8B91B4"/>
</svg>
