<svg width="24" height="24" viewBox="0 0 24 24" fill="none" xmlns="http://www.w3.org/2000/svg">
<mask id="path-1-inside-1" fill="white">
<path fill-rule="evenodd" clip-rule="evenodd" d="M13.796 10.1612C14.5096 9.74914 14.4466 8.69922 13.6888 8.37552L11.2365 7.328C11.0375 7.24301 10.8715 7.09577 10.7633 6.90839L8.42995 2.86693C8.15381 2.38864 7.54222 2.22477 7.06393 2.50091L3.59982 4.50091C3.12153 4.77705 2.95766 5.38864 3.2338 5.86693L5.56713 9.90839C5.67532 10.0958 5.71981 10.3132 5.69393 10.528L5.37495 13.1755C5.27638 13.9937 6.15413 14.5732 6.86777 14.1612L13.796 10.1612Z"/>
</mask>
<path d="M5.69393 10.528L6.68675 10.6476L5.69393 10.528ZM13.6888 8.37552L14.0816 7.45591L13.6888 8.37552ZM10.8437 8.24762L13.296 9.29514L14.0816 7.45591L11.6293 6.40839L10.8437 8.24762ZM7.56393 3.36693L9.89726 7.40839L11.6293 6.40839L9.29598 2.36693L7.56393 3.36693ZM4.09982 5.36693L7.56393 3.36693L6.56393 1.63488L3.09982 3.63488L4.09982 5.36693ZM6.43316 9.40839L4.09982 5.36693L2.36777 6.36693L4.70111 10.4084L6.43316 9.40839ZM6.36777 13.2951L6.68675 10.6476L4.70111 10.4084L4.38213 13.0559L6.36777 13.2951ZM13.296 9.29514L6.36777 13.2951L7.36777 15.0272L14.296 11.0272L13.296 9.29514ZM4.38213 13.0559C4.18499 14.6922 5.94048 15.8512 7.36777 15.0272L6.36777 13.2951L4.38213 13.0559ZM4.70111 10.4084L4.70111 10.4084L6.68675 10.6476C6.73851 10.218 6.64953 9.78315 6.43316 9.40839L4.70111 10.4084ZM3.09982 3.63488C2.14324 4.18717 1.81549 5.41035 2.36777 6.36693L4.09982 5.36693L4.09982 5.36693L3.09982 3.63488ZM9.29598 2.36693C8.74369 1.41035 7.52051 1.0826 6.56393 1.63488L7.56393 3.36693L7.56393 3.36693L9.29598 2.36693ZM13.296 9.29514L13.296 9.29514L14.296 11.0272C15.7233 10.2031 15.5972 8.10331 14.0816 7.45591L13.296 9.29514ZM11.6293 6.40839L9.89726 7.40839C10.1136 7.78315 10.4457 8.07763 10.8437 8.24762L11.6293 6.40839Z" fill="#8B91B4" mask="url(#path-1-inside-1)"/>
<path d="M10.064 7.69727L6.59986 9.69727" stroke="#8B91B4" stroke-linecap="round"/>
<mask id="path-4-inside-2" fill="white">
<path d="M8.59986 13.161C8.73119 13.3885 8.90602 13.5878 9.11439 13.7477C9.32276 13.9076 9.56058 14.0249 9.81428 14.0929C10.068 14.1608 10.3326 14.1782 10.593 14.1439C10.8534 14.1096 11.1045 14.0244 11.3319 13.8931C11.5594 13.7617 11.7587 13.5869 11.9186 13.3785C12.0785 13.1702 12.1958 12.9323 12.2638 12.6787C12.3317 12.425 12.3491 12.1604 12.3148 11.9C12.2805 11.6396 12.1953 11.3885 12.064 11.161L11.1979 11.661C11.2636 11.7747 11.3062 11.9003 11.3234 12.0305C11.3405 12.1607 11.3318 12.293 11.2978 12.4198C11.2639 12.5467 11.2052 12.6656 11.1253 12.7698C11.0453 12.874 10.9456 12.9614 10.8319 13.027C10.7182 13.0927 10.5926 13.1353 10.4624 13.1525C10.3322 13.1696 10.1999 13.1609 10.0731 13.1269C9.94625 13.093 9.82734 13.0343 9.72315 12.9544C9.61897 12.8744 9.53155 12.7747 9.46589 12.661L8.59986 13.161Z"/>
</mask>
<path d="M8.59986 13.161C8.73119 13.3885 8.90602 13.5878 9.11439 13.7477C9.32276 13.9076 9.56058 14.0249 9.81428 14.0929C10.068 14.1608 10.3326 14.1782 10.593 14.1439C10.8534 14.1096 11.1045 14.0244 11.3319 13.8931C11.5594 13.7617 11.7587 13.5869 11.9186 13.3785C12.0785 13.1702 12.1958 12.9323 12.2638 12.6787C12.3317 12.425 12.3491 12.1604 12.3148 11.9C12.2805 11.6396 12.1953 11.3885 12.064 11.161L11.1979 11.661C11.2636 11.7747 11.3062 11.9003 11.3234 12.0305C11.3405 12.1607 11.3318 12.293 11.2978 12.4198C11.2639 12.5467 11.2052 12.6656 11.1253 12.7698C11.0453 12.874 10.9456 12.9614 10.8319 13.027C10.7182 13.0927 10.5926 13.1353 10.4624 13.1525C10.3322 13.1696 10.1999 13.1609 10.0731 13.1269C9.94625 13.093 9.82734 13.0343 9.72315 12.9544C9.61897 12.8744 9.53155 12.7747 9.46589 12.661L8.59986 13.161Z" stroke="#8B91B4" stroke-width="2" mask="url(#path-4-inside-2)"/>
<path d="M11.8301 14.7603L13.3301 17.3583" stroke="#8B91B4" stroke-linecap="round"/>
<path d="M7.91846 15.8638L7.78023 17.7457" stroke="#8B91B4" stroke-linecap="round"/>
<path d="M14.7939 11.894L16.4928 12.7153" stroke="#8B91B4" stroke-linecap="round"/>
<path d="M10.0981 15.7603L10.8661 21.0904" stroke="#8B91B4" stroke-linecap="round"/>
<path d="M13.562 13.7603L19.6601 18.3224" stroke="#8B91B4" stroke-linecap="round"/>
</svg>
