<svg width="165" height="48" viewBox="0 0 165 48" fill="none" xmlns="http://www.w3.org/2000/svg">
<path fill-rule="evenodd" clip-rule="evenodd" d="M13.0522 9.82866C10.9931 10.4978 9.2871 12.8525 9.2871 15.0249C9.2871 17.624 11.5673 20.1075 14.1879 20.3625C19.8876 20.9173 22.5486 13.6763 17.8118 10.5011C16.6645 9.73167 14.354 9.40532 13.0522 9.82866ZM31.4345 9.97664C30.0655 10.463 28.3449 12.3609 28.1066 13.6473C27.612 16.3186 28.6855 18.5797 31.0378 19.8215C32.0084 20.334 32.5856 20.445 33.8432 20.3611C39.2846 19.9979 40.7838 12.7382 35.924 10.2852C34.3283 9.47945 33.0762 9.39362 31.4345 9.97664ZM58.0359 19.246C58.1292 27.0592 58.176 27.3125 59.8724 29.1653C61.2084 30.6243 62.5631 31.1502 64.9996 31.1554C66.9227 31.1596 67.367 31.061 68.5189 30.3751C73.3347 27.5076 73.0425 19.9408 68.0259 17.6098C67.3513 17.2963 66.2805 17.0959 65.2585 17.0923C63.8421 17.087 63.3563 17.2297 62.0258 18.0412L60.46 18.9963V15.8674C60.46 12.3957 60.3238 12.0696 58.875 12.0696H57.9501L58.0359 19.246ZM102.326 18.9673C102.415 25.7649 102.427 25.8881 103.149 27.4483C105.153 31.7789 111.183 32.6108 114.577 29.0248C115.823 27.7072 116.311 26.3301 116.307 24.1321C116.302 19.9427 113.681 17.0861 109.845 17.0861C108.166 17.0861 106.617 17.6237 105.653 18.5415L105.03 19.1343V16.1411C105.03 12.5064 104.85 12.0696 103.348 12.0696H102.236L102.326 18.9673ZM122.342 17.2391C120.968 17.6678 119.323 19.1094 118.608 20.511C117.921 21.8563 117.798 24.8076 118.359 26.5163C118.947 28.3103 120.941 30.2221 122.764 30.7391C124.498 31.2307 127.429 30.9802 128.91 30.214C130.229 29.5318 130.569 28.9875 130.063 28.3696C129.631 27.8415 128.748 27.8429 127.495 28.3732C124.546 29.6215 121.297 28.0775 120.604 25.0986L120.426 24.3322H125.521H130.616V22.854C130.616 21.0985 129.638 18.879 128.486 18.0239C126.815 16.7832 124.678 16.5101 122.342 17.2391ZM78.1348 17.5499C76.4931 18.1388 74.6448 20.0974 74.0663 21.8616C72.5404 26.5155 76.1027 31.2995 81.0943 31.2995C83.793 31.2995 86.572 29.6321 87.7407 27.3117C89.5934 23.6329 87.7525 18.8483 83.9842 17.5476C82.3508 16.9838 79.711 16.985 78.1348 17.5499ZM88.6093 17.4705C88.6893 17.682 89.4877 18.9049 90.3835 20.1877C91.2791 21.4708 92.2258 22.8565 92.4869 23.267L92.962 24.0134L90.7423 27.3697C89.5216 29.2155 88.5226 30.792 88.5226 30.8734C88.5226 30.9545 89.1474 31.0208 89.9114 31.0208C91.5465 31.0208 91.9561 30.6666 93.586 27.8437C94.1701 26.8321 94.7258 26.0043 94.8207 26.0043C94.9159 26.0043 95.5759 26.9884 96.2877 28.1913C96.9992 29.3941 97.7615 30.5298 97.9819 30.7148C98.213 30.9091 98.9649 31.0155 99.76 30.9665L101.138 30.8815L98.9569 27.5556C97.7577 25.7265 96.7793 24.0961 96.7832 23.9325C96.787 23.7692 97.7775 22.2133 98.9842 20.4748C100.191 18.7366 101.178 17.2628 101.178 17.2001C101.178 16.9582 98.9707 17.1012 98.3607 17.3827C98.0075 17.5457 97.104 18.6688 96.3532 19.8781C95.6024 21.0876 94.9261 22.0826 94.8504 22.0892C94.7748 22.0959 94.2177 21.2741 93.6124 20.2627C92.119 17.7678 91.2815 17.0861 89.71 17.0861C88.7636 17.0861 88.4987 17.1787 88.6093 17.4705ZM132.812 17.2255C132.809 17.3021 132.804 20.3435 132.8 23.9838L132.794 30.6028L134.022 30.687L135.251 30.7708L135.341 26.9246C135.415 23.757 135.528 22.8819 135.981 21.9669C136.653 20.6108 138.085 19.5944 139.324 19.5944C140.237 19.5944 140.246 19.5821 140.246 18.304V17.0137L138.991 17.1569C137.652 17.3096 136.703 17.9952 135.808 19.455L135.295 20.2911L135.295 19.246C135.293 18.0128 134.526 17.0861 133.505 17.0861C133.127 17.0861 132.815 17.1488 132.812 17.2255ZM142.172 23.9141V30.7421H143.547H144.923V26.9709C144.923 22.6784 145.145 21.8613 146.68 20.4957C147.458 19.804 147.947 19.5944 148.784 19.5944H149.875V18.3403C149.875 17.0895 149.873 17.0861 148.898 17.0861C147.478 17.0861 146.377 17.7773 145.457 19.2463L144.648 20.5397V19.2507C144.648 17.7399 144.143 17.0861 142.977 17.0861H142.172V23.9141ZM150.976 17.3414C150.976 17.4819 152.294 20.5804 153.905 24.2268L156.835 30.857L156.093 32.2925C155.355 33.7208 154.795 34.1787 153.417 34.4794C153.019 34.5664 152.49 34.9524 152.241 35.3373L151.788 36.0373H153.848C155.75 36.0373 155.982 35.9724 156.859 35.1918C157.48 34.6394 158.113 33.6002 158.683 32.1958C160.484 27.7618 163.61 20.2345 164.292 18.6886L165 17.0861H163.765C162.954 17.0861 162.365 17.2542 162.047 17.5764C161.781 17.8461 160.772 20.2276 159.805 22.869L158.047 27.6712L156.893 24.8174C154.367 18.5727 153.927 17.6226 153.442 17.3595C152.805 17.0145 150.976 17.0009 150.976 17.3414ZM3.56756 19.0729C3.07014 19.2181 2.17902 19.8274 1.5875 20.4266C-1.59898 23.6544 0.285342 28.988 4.80369 29.5301C11.0713 30.282 13.3831 21.6489 7.57253 19.1897C6.44563 18.7126 4.95006 18.6691 3.56756 19.0729ZM21.9447 19.185C18.2432 20.8778 17.5026 25.7184 20.5482 28.3142C23.0746 30.4676 27.0986 29.7965 28.8541 26.9288C29.7665 25.4386 29.7665 22.9471 28.8541 21.4569C27.4785 19.2098 24.2277 18.1407 21.9447 19.185ZM40.5136 19.2867C38.432 20.263 37.3497 21.9413 37.3497 24.1928C37.3497 26.4444 38.432 28.1227 40.5136 29.099C42.0394 29.8146 43.582 29.7609 45.2055 28.9354C49.1885 26.9101 49.1885 21.4756 45.2055 19.4503C43.582 18.6248 42.0394 18.571 40.5136 19.2867ZM126.064 19.1529C127.07 19.5788 127.719 20.3976 128.014 21.6149L128.2 22.3813H124.456C121.644 22.3813 120.712 22.2946 120.713 22.033C120.715 21.2208 121.893 19.809 122.988 19.3056C124.389 18.661 124.848 18.6382 126.064 19.1529ZM67.2638 20.0537C68.7589 21.1843 69.1264 21.9911 69.1264 24.1435C69.1264 26.4937 68.5236 27.6155 66.7758 28.519C64.5151 29.6873 62.2613 28.9147 61.059 26.5595C60.5343 25.5314 60.4444 25.0136 60.5552 23.6625C60.7052 21.8398 61.218 20.9388 62.6863 19.9179C63.4567 19.3823 63.8837 19.2873 65.0796 19.3845C65.9454 19.4548 66.8308 19.7259 67.2638 20.0537ZM83.1107 19.6958C85.0572 20.5196 86.2823 23.0025 85.8047 25.1557C85.0439 28.5856 81.2808 30.097 78.3664 28.1433C77.0654 27.2713 76.4172 25.9154 76.4172 24.0671C76.4172 21.9856 77.447 20.3243 79.1687 19.6287C80.1679 19.2251 82.0751 19.2577 83.1107 19.6958ZM111.403 19.9322C114.764 21.8457 114.451 27.1409 110.885 28.6862C108.848 29.5694 106.538 28.7049 105.58 26.7011C104.885 25.2466 104.854 22.878 105.512 21.5508C106.575 19.4071 109.209 18.6833 111.403 19.9322ZM12.7261 28.3423C8.62295 30.158 8.13736 35.4512 11.8457 37.9372C12.7748 38.5601 13.2665 38.6849 14.7896 38.6849C16.3126 38.6849 16.8043 38.5601 17.7334 37.9372C21.3259 35.529 20.9947 30.253 17.1394 28.4791C15.843 27.8825 13.9012 27.8223 12.7261 28.3423ZM31.0378 28.5641C30.3657 28.9189 29.4371 29.6912 28.9744 30.2803C28.209 31.2544 28.133 31.5356 28.133 33.3897C28.133 35.2545 28.206 35.5195 28.9876 36.4991C30.1073 37.9026 31.2059 38.528 32.9111 38.7326C34.0749 38.8722 34.5536 38.7755 35.8269 38.1445C40.7829 35.6881 39.3528 28.3922 33.8432 28.0246C32.5856 27.9407 32.0084 28.0516 31.0378 28.5641ZM21.9447 37.5961C17.3334 39.6216 17.6657 46.0762 22.4652 47.704C23.914 48.1954 25.009 48.0853 26.5844 47.2902C28.6404 46.2523 29.5087 44.8482 29.5087 42.5613C29.5087 41.0795 29.3868 40.648 28.6833 39.6361C27.15 37.4311 24.2909 36.5655 21.9447 37.5961Z" fill="#EE1750"/>
<ellipse cx="24.3705" cy="5.48571" rx="5.41543" ry="5.48571" fill="#A6CE38"/>
</svg>
