<svg width="220" height="32" viewBox="0 0 220 32" fill="none" xmlns="http://www.w3.org/2000/svg">
<path d="M64.0624 28.7137H70.1184L71.517 26.2469H64.0624V28.7137ZM111.501 26.342H106.785V23.9386H111.501C112.262 23.9386 112.809 24.1196 112.809 25.1244C112.809 25.9165 112.474 26.342 111.501 26.342ZM106.785 19.8877H111.076C111.714 19.8877 111.99 20.2226 111.99 20.8608C111.99 21.5307 111.565 21.8656 111.076 21.8656H106.785V19.8877ZM113.384 22.11C114.095 21.8068 114.697 21.3225 114.697 20.1049C114.697 17.792 112.75 17.5205 111.379 17.5205H104.137V28.7182H111.501C114.878 28.7182 115.579 26.8625 115.579 25.1561C115.575 23.237 114.488 22.4404 113.384 22.11ZM135.694 28.7137H141.75L143.148 26.2469H135.694V28.7137ZM64.0624 21.8701V24.3324H72.6124L74.0426 21.8701H64.0624ZM124.795 26.342H120.87V23.8481H124.795C125.252 23.8481 125.953 23.9703 125.953 25.0973C125.953 26.1292 125.378 26.342 124.795 26.342ZM124.948 21.5352H120.87V17.5159H118.191V28.7137H120.291H120.87H124.917C126.741 28.7137 128.628 27.7089 128.628 25.0611C128.633 21.594 126.198 21.5352 124.948 21.5352ZM130 28.7137H132.647V17.5159H130V28.7137ZM79.8225 17.5159L73.4044 28.7137H76.5682L80.8002 21.3179L85.0593 28.7137H88.377L81.9544 17.5159H79.8225ZM95.0983 26.4008C92.5139 26.4008 91.4186 24.9117 91.4186 23.0831C91.4186 21.0735 92.6678 19.7338 95.0983 19.7338C97.8367 19.7338 98.7781 21.0735 98.7781 23.0831C98.7781 25.4911 96.9858 26.4008 95.0983 26.4008ZM95.13 17.2444C90.6582 17.2444 88.5264 19.9827 88.5264 23.056C88.5264 26.2515 90.5948 28.8676 95.13 28.8676C97.108 28.8676 101.67 27.9533 101.67 23.056C101.67 19.8605 99.6336 17.2444 95.13 17.2444ZM48.6916 26.2515L52.919 18.8557L57.1781 26.2515H48.6916ZM54.1048 15.0537H51.9142L45.4961 26.2515H43.8848V31.9997H46.4375V28.7137H59.5815V31.9997H62.1388V26.2515H60.5275L54.1048 15.0537ZM76.5365 17.5159H64.0624V19.9782H75.1063L76.5365 17.5159ZM135.694 21.8701V24.3324H144.243L145.674 21.8701H135.694ZM148.168 17.5159H135.694V19.9782H146.737L148.168 17.5159ZM213.222 17.5159L206.89 24.7895V17.5159H204.215V28.7137H206.469L212.919 21.3813V28.7137H215.599V17.5159H213.222ZM151.454 17.5159L145.031 28.7137H148.195L152.427 21.3179L156.686 28.7137H160.004L153.585 17.5159H151.454ZM184.069 21.8701H178.194V17.5159H175.515V28.7137H178.194V24.3324H184.069V28.7137H186.749V17.5159H184.069V21.8701ZM192.465 24.7895V17.5159H189.786V28.7137H192.035L198.485 21.3813V28.7137H201.165V17.5159H198.793L192.465 24.7895ZM163.774 24.7307V17.5159H161.094V28.7137H163.348L169.798 21.4401V28.7137H172.478V17.5159H170.228L163.774 24.7307Z" fill="black"/>
<path d="M24.0552 23.269L11.3321 17.7652L8.62999 22.4453L22.9417 25.1972L24.0552 23.269ZM22.2809 28.7321H26.5129L30.2289 22.2914L33.9448 28.7321H38.1768L30.2289 14.968L22.2809 28.7321ZM8.00085 23.5406L5 28.7321H20.9004L22.3126 26.288L8.00085 23.5406ZM29.5409 13.7731L21.5884 0L18.5876 5.20057L28.1287 16.2173L29.5409 13.7731ZM27.495 17.3126L17.9539 6.2959L15.2563 10.9714L26.3861 19.2362L27.495 17.3126ZM25.7842 20.2772L14.6498 12.017L11.9296 16.7242L24.6526 22.2325L25.7842 20.2772Z" fill="#FBAD18"/>
</svg>
