<svg width="140" height="56" viewBox="0 0 140 56" fill="none" xmlns="http://www.w3.org/2000/svg">
<path fill-rule="evenodd" clip-rule="evenodd" d="M89.2935 44.1955C86.8664 44.8728 83.7055 45.1551 80.9962 45.1551C73.9409 45.1551 69.3125 41.4862 69.3125 34.7694C69.3125 28.3911 73.6586 24.2708 79.9802 24.2708C81.3913 24.2708 82.9153 24.4401 83.8184 24.8917V15.6348H89.2935V44.1955ZM83.8184 29.6329C82.9718 29.2378 81.7864 29.012 80.4318 29.012C77.1018 29.012 74.9004 31.044 74.9004 34.6C74.9004 38.3817 77.2711 40.5266 81.1655 40.5266C81.8429 40.5266 82.9153 40.5266 83.8184 40.3008V29.6329ZM134.28 44.1955C131.853 44.8728 128.692 45.1551 125.926 45.1551C118.927 45.1551 114.242 41.4862 114.242 34.7694C114.242 28.3911 118.588 24.2708 124.91 24.2708C126.378 24.2708 127.845 24.4401 128.748 24.8917V15.6348H134.28V44.1955ZM128.748 29.6329C127.902 29.2378 126.773 29.012 125.418 29.012C122.031 29.012 119.83 31.044 119.83 34.6C119.83 38.3817 122.257 40.5266 126.152 40.5266C126.829 40.5266 127.845 40.5266 128.748 40.3008V29.6329ZM97.9295 29.6329C98.8326 29.2378 100.131 29.1249 101.203 29.1249C104.59 29.1249 106.904 31.044 106.904 34.4871C106.904 38.5511 104.308 40.4137 100.865 40.4702V45.1551H101.147C108.259 45.1551 112.492 41.2604 112.492 34.3178C112.492 27.996 107.977 24.2708 101.316 24.2708C97.9295 24.2708 94.5993 25.061 92.398 25.964V52.775H97.9295V29.6329Z" fill="#3F3F42"/>
<path fill-rule="evenodd" clip-rule="evenodd" d="M49.1055 11.2324L50.0085 12.2484L50.5165 11.9662L49.1055 11.2324Z" fill="#DC0032"/>
<path fill-rule="evenodd" clip-rule="evenodd" d="M47.752 10.498L49.5017 12.53L50.1225 12.1914L49.4452 11.4012L47.752 10.498Z" fill="#DC0032"/>
<path fill-rule="evenodd" clip-rule="evenodd" d="M46.3408 9.76465L48.9937 12.8126L49.6145 12.474L48.0906 10.6678L46.3408 9.76465Z" fill="#DC0032"/>
<path fill-rule="evenodd" clip-rule="evenodd" d="M44.9873 9.03125L48.4869 13.0952L49.1077 12.7566L46.6806 9.93436L44.9873 9.03125ZM51.7041 16.1996L51.309 16.4254L51.7041 16.877V16.1996Z" fill="#DC0032"/>
<path fill-rule="evenodd" clip-rule="evenodd" d="M43.6299 8.29688L47.9761 13.3769L48.597 13.0382L45.3232 9.19999L43.6299 8.29688ZM51.4756 16.3119L50.8547 16.707L51.7014 17.723V16.6506L51.4756 16.3119H51.4756Z" fill="#DC0032"/>
<path fill-rule="evenodd" clip-rule="evenodd" d="M42.2217 7.56348L47.471 13.6595L48.1483 13.3208L43.9715 8.46659L42.2217 7.56348ZM50.9705 16.5945L50.3496 16.9896L51.7043 18.5701V17.4976L50.9705 16.5945Z" fill="#DC0032"/>
<path fill-rule="evenodd" clip-rule="evenodd" d="M40.8652 6.83008L47.0177 13.9421L47.6386 13.6034L42.5586 7.73317L40.8652 6.83008ZM50.4607 16.9335L49.8398 17.2722L51.7025 19.4735V18.4011L50.4607 16.9335Z" fill="#DC0032"/>
<path fill-rule="evenodd" clip-rule="evenodd" d="M39.5117 6.0957L46.5108 14.2237L47.1317 13.885L41.2051 6.99881L39.5117 6.0957ZM49.9539 17.2152L49.333 17.5538L51.7036 20.3196V19.2472L49.9539 17.2152Z" fill="#DC0032"/>
<path fill-rule="evenodd" clip-rule="evenodd" d="M38.0996 5.3623L46.0018 14.5063L46.6227 14.1676L39.8493 6.26541L38.0996 5.3623ZM49.4448 17.4977L48.824 17.8364L51.7026 21.1666V20.0942L49.4448 17.4977Z" fill="#DC0032"/>
<path fill-rule="evenodd" clip-rule="evenodd" d="M36.7461 4.62891L45.4949 14.8453L46.1158 14.4502L38.4394 5.53202L36.7461 4.62891ZM48.938 17.7803L48.3171 18.119L51.7037 22.0701V20.9977L48.938 17.7803Z" fill="#DC0032"/>
<path fill-rule="evenodd" clip-rule="evenodd" d="M35.335 3.89453L44.9869 15.1269L45.6078 14.7318L37.0847 4.79764L35.335 3.89453ZM48.4864 18.062L47.8091 18.4006L51.7037 22.9162V21.8437L48.4864 18.062Z" fill="#DC0032"/>
<path fill-rule="evenodd" clip-rule="evenodd" d="M33.9814 3.16113L44.48 15.4094L45.1574 15.0144L35.7312 4.06424L33.9814 3.16113ZM47.9796 18.3446L47.3587 18.6832L51.7048 23.8197V22.6908L47.9796 18.3446Z" fill="#DC0032"/>
<path fill-rule="evenodd" clip-rule="evenodd" d="M32.624 2.42676L44.0257 15.6911L44.6466 15.296L34.3174 3.32986L32.624 2.42676ZM47.4688 18.6262L46.8479 18.9648L51.7021 24.6657V23.5933L47.4688 18.6262Z" fill="#DC0032"/>
<path fill-rule="evenodd" clip-rule="evenodd" d="M31.2129 1.63672L43.5177 15.9735L44.1386 15.5784L32.9627 2.59627L31.2129 1.63672ZM46.9608 18.9086L46.3399 19.2472L51.7021 25.5125V24.4401L46.9608 18.9086Z" fill="#DC0032"/>
<path fill-rule="evenodd" clip-rule="evenodd" d="M29.8594 0.90332L43.0109 16.2561L43.6317 15.9174L31.6092 1.86287L29.8594 0.90332ZM46.454 19.1912L45.8331 19.5298L51.7032 26.416V25.2872L46.454 19.1912Z" fill="#DC0032"/>
<path fill-rule="evenodd" clip-rule="evenodd" d="M28.5059 0.225586L42.5039 16.5379L43.1248 16.1992L30.1991 1.12869L28.5059 0.225586ZM45.947 19.473L45.3262 19.8117L51.7043 27.2622V26.1898L45.947 19.473Z" fill="#DC0032"/>
<path fill-rule="evenodd" clip-rule="evenodd" d="M27.5996 0L41.9928 16.8203L42.6137 16.4816L28.8414 0.395108L28.5027 0.225776C28.2205 0.056444 27.9383 0 27.5996 0ZM45.4359 19.7554L44.815 20.0941L51.7012 28.1091V27.0367L45.4359 19.7554Z" fill="#DC0032"/>
<path fill-rule="evenodd" clip-rule="evenodd" d="M27.6002 0C27.3744 0 27.1486 0.056444 26.9229 0.112888L41.4854 17.1025L42.1627 16.7638L27.7695 0C27.7131 0 27.6566 0 27.6002 0ZM44.9849 20.0376L44.364 20.3763L51.7017 29.0122V27.8833L44.9849 20.0376Z" fill="#DC0032"/>
<path fill-rule="evenodd" clip-rule="evenodd" d="M27.0943 0.0566406C26.9814 0.113085 26.8121 0.169528 26.7557 0.225973L26.417 0.395305L41.036 17.3849L41.6568 17.0463L27.0943 0.0566406ZM44.4791 20.32L43.8582 20.7152L51.7039 29.8591V28.7866L44.4791 20.32Z" fill="#DC0032"/>
<path fill-rule="evenodd" clip-rule="evenodd" d="M26.5291 0.282227L25.9082 0.620891L40.5272 17.667L41.148 17.3283L26.5291 0.282227ZM43.9703 20.6021L43.3494 20.9972L51.7031 30.7056V29.6331L43.9703 20.6021Z" fill="#DC0032"/>
<path fill-rule="evenodd" clip-rule="evenodd" d="M26.0193 0.564453L25.3984 0.903117L40.0174 17.9492L40.6383 17.6105L26.0193 0.564453ZM43.4605 20.8843L42.8396 21.2794L51.7013 31.6087V30.5362L43.4605 20.8843Z" fill="#DC0032"/>
<path fill-rule="evenodd" clip-rule="evenodd" d="M25.5135 0.84668L24.8926 1.18535L39.5115 18.2314L40.1324 17.8928L25.5135 0.84668ZM42.9546 21.1665L42.3338 21.5616L51.7035 32.4553V31.3829L42.9546 21.1665Z" fill="#DC0032"/>
<path fill-rule="evenodd" clip-rule="evenodd" d="M25.0047 1.12891L24.3838 1.46757L39.0028 18.5137L39.6236 18.175L25.0047 1.12891ZM42.4459 21.4488L41.825 21.8439L51.7027 33.302V32.2296L42.4459 21.4488Z" fill="#DC0032"/>
<path fill-rule="evenodd" clip-rule="evenodd" d="M24.4988 1.41113L23.8779 1.74979L38.497 18.7959L39.1178 18.4572L24.4988 1.41113ZM41.9964 21.731L41.3756 22.1261L51.7048 34.2051V33.1327L41.9964 21.731Z" fill="#DC0032"/>
<path fill-rule="evenodd" clip-rule="evenodd" d="M23.9891 1.63672L23.3682 2.03183L38.0436 19.0779L38.6645 18.7392L23.9891 1.63672ZM41.4867 22.0695L40.8658 22.4081L51.703 35.0516V33.9792L41.4867 22.0695Z" fill="#DC0032"/>
<path fill-rule="evenodd" clip-rule="evenodd" d="M23.4803 1.91895L22.8594 2.25761L37.5349 19.3601L38.1557 19.0215L23.4803 1.91895ZM40.9779 22.3517L40.357 22.6904L51.7023 35.9547V34.8258L40.9779 22.3517Z" fill="#DC0032"/>
<path fill-rule="evenodd" clip-rule="evenodd" d="M22.9744 2.20117L22.3535 2.53984L37.029 19.6988L37.6499 19.3037L22.9744 2.20117ZM40.472 22.6339L39.8511 22.9726L51.7044 36.8013V35.7289L40.472 22.6339Z" fill="#DC0032"/>
<path fill-rule="evenodd" clip-rule="evenodd" d="M22.4646 2.4834L21.8438 2.82206L36.5192 19.981L37.1401 19.5859L22.4646 2.4834ZM39.9623 22.9161L39.3414 23.2548L51.7026 37.648V36.5756L39.9623 22.9161Z" fill="#DC0032"/>
<path fill-rule="evenodd" clip-rule="evenodd" d="M21.9558 2.76562L21.335 3.10429L36.0104 20.2633L36.6313 19.8682L21.9558 2.76562ZM39.4535 23.1984L38.8327 23.5371L51.7018 38.5511V37.4222L39.4535 23.1984Z" fill="#DC0032"/>
<path fill-rule="evenodd" clip-rule="evenodd" d="M21.45 3.04785L20.8291 3.38652L35.5046 20.5455L36.1255 20.1504L21.45 3.04785ZM39.0041 23.4806L38.3832 23.8193L51.704 39.3978V38.3253L39.0041 23.4806Z" fill="#DC0032"/>
<path fill-rule="evenodd" clip-rule="evenodd" d="M20.942 3.27344L20.2646 3.6121L35.053 20.8275L35.6739 20.4324L20.942 3.27344ZM38.4961 23.7626L37.8752 24.1013L51.704 40.2443V39.1718L38.4961 23.7626Z" fill="#DC0032"/>
<path fill-rule="evenodd" clip-rule="evenodd" d="M20.4332 3.55664L19.7559 3.8953L34.6007 21.1672C34.6571 21.0543 34.7136 20.9978 34.8265 20.9414L35.1651 20.7156L20.4332 3.55664L20.4332 3.55664ZM37.9873 24.0458L37.3664 24.3845L51.5903 40.979C51.6468 40.8097 51.7032 40.6404 51.7032 40.471V40.0195L37.9873 24.0458H37.9873Z" fill="#DC0032"/>
<path fill-rule="evenodd" clip-rule="evenodd" d="M19.9234 3.83789L19.2461 4.17656L34.4296 21.8435V21.6178C34.4296 21.4484 34.5425 21.2227 34.6554 21.0533L19.9234 3.83789ZM37.4776 24.3271L37.026 24.6093C36.9696 24.6093 36.9131 24.6658 36.8567 24.6658L51.3063 41.5425C51.4756 41.3167 51.5885 41.091 51.645 40.8652L37.4776 24.3271Z" fill="#DC0032"/>
<path fill-rule="evenodd" clip-rule="evenodd" d="M19.4175 4.12012L18.7402 4.45878L34.4316 22.7467V21.6178L19.4175 4.12012ZM35.8992 24.3835L50.9133 41.9376C51.0826 41.8247 51.2519 41.5989 51.4213 41.4296L36.9716 24.6093C36.7459 24.7222 36.4072 24.7222 36.1814 24.6093L35.8992 24.3835Z" fill="#DC0032"/>
<path fill-rule="evenodd" clip-rule="evenodd" d="M18.9087 4.40234L18.2314 4.741L50.4045 42.2198L50.856 41.9941C50.9125 41.9376 50.9689 41.8812 51.0254 41.8247L36.2371 24.6093H36.1806L34.8824 23.8191C34.7695 23.7627 34.7131 23.6498 34.6002 23.5369C34.4873 23.3676 34.4873 23.2547 34.4308 23.1418V22.5209L18.9087 4.40234Z" fill="#DC0032"/>
<path fill-rule="evenodd" clip-rule="evenodd" d="M18.4029 4.68555L17.7256 5.02421L49.8986 42.5031L50.5195 42.1644L18.4029 4.68555Z" fill="#DC0032"/>
<path fill-rule="evenodd" clip-rule="evenodd" d="M17.8932 4.91113L17.2158 5.2498L49.4453 42.7851L50.0662 42.4464L17.8932 4.91113Z" fill="#DC0032"/>
<path fill-rule="evenodd" clip-rule="evenodd" d="M17.3844 5.19238L16.707 5.53105L48.9366 43.0663L49.5574 42.7277L17.3844 5.19238Z" fill="#DC0032"/>
<path fill-rule="evenodd" clip-rule="evenodd" d="M16.8785 5.47461L16.2012 5.81327L48.4307 43.3486L49.0516 43.0099L16.8785 5.47461Z" fill="#DC0032"/>
<path fill-rule="evenodd" clip-rule="evenodd" d="M16.3123 5.75781L15.6914 6.09648L47.921 43.6882L48.5418 43.2931L16.3123 5.75781Z" fill="#DC0032"/>
<path fill-rule="evenodd" clip-rule="evenodd" d="M15.8035 6.03906L15.1826 6.37773L47.4122 43.9695L48.0331 43.5744L15.8035 6.03906Z" fill="#DC0032"/>
<path fill-rule="evenodd" clip-rule="evenodd" d="M15.2976 6.32129L14.6768 6.65995L46.9627 44.2517L47.5836 43.8566L15.2976 6.32129Z" fill="#DC0032"/>
<path fill-rule="evenodd" clip-rule="evenodd" d="M14.7879 6.54688L14.167 6.88553L46.453 44.5337L47.0739 44.1386L14.7879 6.54688Z" fill="#DC0032"/>
<path fill-rule="evenodd" clip-rule="evenodd" d="M14.282 6.83008L13.6611 7.16874L45.9471 44.8169L46.568 44.4783L14.282 6.83008Z" fill="#DC0032"/>
<path fill-rule="evenodd" clip-rule="evenodd" d="M13.7732 7.1123L13.1523 7.45097L28.8438 25.7388L29.3517 26.0775C29.5775 26.1904 29.8033 26.4726 29.8033 26.7548V26.8112L45.4383 45.0992L46.0592 44.7605L13.7732 7.1123Z" fill="#DC0032"/>
<path fill-rule="evenodd" clip-rule="evenodd" d="M13.2635 7.39355L12.6426 7.7322L27.3745 24.9477L29.2371 25.9636L13.2635 7.39355ZM29.7451 26.5845C29.7451 26.6409 29.8015 26.6974 29.8015 26.7538V27.7134L44.9286 45.3804L45.5495 45.0418L29.7451 26.5845Z" fill="#DC0032"/>
<path fill-rule="evenodd" clip-rule="evenodd" d="M12.7576 7.67676L12.1367 8.01542L25.9091 24.102L27.7718 25.118L12.7576 7.67676ZM29.8037 27.4886V28.5611L44.4792 45.6636L45.1 45.325L29.8037 27.4886Z" fill="#DC0032"/>
<path fill-rule="evenodd" clip-rule="evenodd" d="M12.2488 7.95898L11.6279 8.29765L24.4972 23.2554L26.3034 24.2714L12.2488 7.95898ZM29.8029 28.3353V29.4642L43.9704 45.9458L44.5913 45.6072L29.8029 28.3353Z" fill="#DC0032"/>
<path fill-rule="evenodd" clip-rule="evenodd" d="M11.7391 8.18457L11.1182 8.52324L23.0279 22.4085L24.8341 23.4809L11.7391 8.18457ZM29.8011 29.2382V30.3106L43.4606 46.2278L44.0815 45.8892L29.8011 29.2382Z" fill="#DC0032"/>
<path fill-rule="evenodd" clip-rule="evenodd" d="M11.2332 8.46582L10.6123 8.80449L21.5624 21.5609L23.3687 22.6333L11.2332 8.46582ZM29.8032 30.0839V31.1563L42.9547 46.5091L43.5756 46.1704L29.8032 30.0839Z" fill="#DC0032"/>
<path fill-rule="evenodd" clip-rule="evenodd" d="M10.7244 8.74902L10.1035 9.08769L20.0941 20.7716L21.9003 21.7876L10.7244 8.74902ZM29.8024 30.9315V32.0604L42.4459 46.8487L43.0668 46.4536L29.8024 30.9315Z" fill="#DC0032"/>
<path fill-rule="evenodd" clip-rule="evenodd" d="M10.2185 9.03125L9.59766 9.36992L18.6287 19.925L20.4349 20.941L10.2185 9.03125ZM29.8046 31.8347V32.9071L41.9965 47.131L42.6174 46.7358L29.8046 31.8347Z" fill="#DC0032"/>
<path fill-rule="evenodd" clip-rule="evenodd" d="M9.70877 9.31348L9.08789 9.65214L17.1594 19.0783L19.022 20.0943L9.70877 9.31348ZM29.8028 32.6813V33.7538L41.4867 47.4132L42.1076 47.0181L29.8028 32.6813Z" fill="#DC0032"/>
<path fill-rule="evenodd" clip-rule="evenodd" d="M9.19998 9.59473L8.5791 9.93339L15.6911 18.2307L17.5537 19.3031L9.19998 9.59473ZM23.9883 27.8826L25.4559 29.5759V28.955C25.4559 28.8421 25.343 28.6728 25.2301 28.6164L23.9883 27.8826ZM29.802 33.527V34.6559L40.9779 47.6944L41.5988 47.2993L29.802 33.527Z" fill="#DB0032"/>
<path fill-rule="evenodd" clip-rule="evenodd" d="M8.69412 9.82129L8.07324 10.16L14.2256 17.3848L16.0883 18.4572L8.69412 9.82129ZM22.5229 27.0367L25.458 30.4234V29.3509L24.3856 28.1091L22.5229 27.0367ZM29.8042 34.4309V35.5034L40.4721 47.9774L41.093 47.6388L29.8042 34.4309Z" fill="#DC0032"/>
<path fill-rule="evenodd" clip-rule="evenodd" d="M8.18436 10.1035L7.56348 10.4422L12.8128 16.5946L14.619 17.6106L8.18436 10.1035ZM21.0536 26.2465L25.4562 31.3265V30.254L22.9162 27.2625L21.0536 26.2465ZM29.8024 35.2776V36.35L39.9623 48.2597L40.5832 47.921L29.8024 35.2776Z" fill="#DC0032"/>
<path fill-rule="evenodd" clip-rule="evenodd" d="M7.67557 10.3857L7.05469 10.7244L11.3444 15.7479L13.1506 16.7639L7.67557 10.3857ZM19.6417 25.3999L25.4554 32.1731V31.1007L21.4479 26.4158L19.6417 25.3999ZM29.8016 36.1806V37.2531L39.51 48.5419L40.1308 48.2032L29.8016 36.1806Z" fill="#DC0032"/>
<path fill-rule="evenodd" clip-rule="evenodd" d="M7.16971 10.668L6.54883 11.0066L9.87903 14.9013L11.6852 15.9172L7.16971 10.668ZM18.1763 24.5532L25.4576 33.0198V31.9474L19.9825 25.6256L18.1763 24.5532ZM29.8037 37.0273V38.0997L39.0042 48.8241L39.625 48.4854L29.8037 37.0273Z" fill="#DC0032"/>
<path fill-rule="evenodd" clip-rule="evenodd" d="M6.65994 10.9502L6.03906 11.2889L8.40971 14.0546L10.2159 15.1271L6.65994 10.9502ZM16.707 23.7066L25.4558 33.9229V32.8505L18.5132 24.779L16.707 23.7066ZM29.802 37.874V38.9464L38.4944 49.1063L39.1152 48.7677L29.802 37.874Z" fill="#DC0032"/>
<path fill-rule="evenodd" clip-rule="evenodd" d="M6.15115 11.2324L5.53027 11.5711L6.94138 13.208L8.80403 14.2804L6.15115 11.2324ZM15.2387 22.9163L25.455 34.7696V33.6972L17.0449 23.9323L15.2387 22.9163ZM29.8012 38.7771V39.8495L37.9856 49.3886L38.6065 49.0499L29.8012 38.7771Z" fill="#DC0032"/>
<path fill-rule="evenodd" clip-rule="evenodd" d="M5.64315 11.458L4.96582 11.7967L5.47381 12.4176L7.33646 13.4336L5.64315 11.458ZM13.7711 22.0695L25.455 35.6724V34.5436L15.6338 23.0855L13.7711 22.0695ZM29.8012 39.6236V40.696L37.4776 49.727L38.0985 49.3319L29.8012 39.6236Z" fill="#DC0032"/>
<path fill-rule="evenodd" clip-rule="evenodd" d="M5.13534 11.7402L4.74023 11.966L5.86912 12.5869L5.13534 11.7402V11.7402ZM12.3037 21.2228L25.4552 36.5191V35.4467L14.1664 22.2953L12.3037 21.2228ZM29.8013 40.4702V41.5991L37.0262 50.0093L37.6471 49.6142L29.8013 40.4702Z" fill="#DC0032"/>
<path fill-rule="evenodd" clip-rule="evenodd" d="M10.8926 20.376L25.4551 37.3656V36.2932L12.6988 21.4484L10.8926 20.376ZM29.8013 41.3732V42.4456L36.5182 50.2913L37.1391 49.8962L29.8013 41.3732Z" fill="#DC0032"/>
<path fill-rule="evenodd" clip-rule="evenodd" d="M9.42676 19.5859L25.4569 38.2689V37.14L11.233 20.6019L9.42676 19.5859ZM29.803 42.22V43.2925L36.0119 50.5737L36.6328 50.1786L29.803 42.22Z" fill="#DC0032"/>
<path fill-rule="evenodd" clip-rule="evenodd" d="M7.95996 18.7393L25.4576 39.1156V38.0431L9.76617 19.7553L7.95996 18.7393ZM29.8038 43.0667V44.1956L35.5047 50.8559L36.1255 50.5173L29.8038 43.0667Z" fill="#DC0032"/>
<path fill-rule="evenodd" clip-rule="evenodd" d="M6.49023 17.8926L25.4554 39.9622V38.8898L8.29644 18.965L6.49023 17.8926ZM29.8016 43.9698V45.0422L34.9945 51.1381L35.6154 50.7995L29.8016 43.9698Z" fill="#DB0032"/>
<path fill-rule="evenodd" clip-rule="evenodd" d="M5.02441 17.0459L25.4572 40.8653V39.7929L6.83062 18.1183L5.02441 17.0459ZM29.8033 44.8164V45.8888L34.5446 51.4203L35.1655 51.0817L29.8033 44.8164Z" fill="#DA0032"/>
<path fill-rule="evenodd" clip-rule="evenodd" d="M3.55762 16.2559L25.4579 41.7122V40.6397L5.42027 17.2719L3.55762 16.2559ZM29.8041 45.6633V46.7921L34.0374 51.7027L34.6583 51.3641L29.8041 45.6633Z" fill="#D90032"/>
<path fill-rule="evenodd" clip-rule="evenodd" d="M3.5 16.1992V16.9894L25.4567 42.5586V41.4862L3.95155 16.425L3.5 16.1992ZM29.8029 46.5661V47.2434C29.8029 47.3563 29.7464 47.4692 29.69 47.5257L33.5282 51.9848L34.1491 51.6461L29.8029 46.5661Z" fill="#D80032"/>
<path fill-rule="evenodd" clip-rule="evenodd" d="M3.5 16.7637V17.8926L25.4567 43.4617V42.3893L3.5 16.7637ZM29.7464 47.4128C29.69 47.6386 29.5207 47.8643 29.3513 47.9208L29.2949 47.9772L33.0202 52.267L33.6411 51.9283L29.7464 47.4128L29.7464 47.4128Z" fill="#D70032"/>
<path fill-rule="evenodd" clip-rule="evenodd" d="M3.5 17.667V18.7394L25.4567 44.3086V43.2362L3.5 17.667ZM29.4078 47.8645C29.4078 47.921 29.4078 47.921 29.3513 47.921L28.787 48.2597L32.5122 52.5494L33.1331 52.2108L29.4078 47.8646L29.4078 47.8645Z" fill="#D60032"/>
<path fill-rule="evenodd" clip-rule="evenodd" d="M3.5 18.5137V19.5861L25.4567 45.1553V44.0829L3.5 18.5137ZM28.9562 48.1468L28.279 48.5419L32.0607 52.8881L32.6815 52.493L28.9562 48.1468Z" fill="#D50032"/>
<path fill-rule="evenodd" clip-rule="evenodd" d="M3.5 19.417V20.4894L25.4567 46.0585V44.9862L3.5 19.417ZM28.4483 48.4292L28.0532 48.655C27.9403 48.7114 27.8274 48.7114 27.7145 48.7114L31.5527 53.1706L32.1735 52.7754L28.4483 48.4292V48.4292Z" fill="#D40032"/>
<path fill-rule="evenodd" clip-rule="evenodd" d="M3.5 20.2637V21.3361L25.4567 46.9052V45.8328L3.5 20.2637ZM26.6985 48.4292L31.0447 53.4528L31.6655 53.0577L27.8838 48.7114C27.8274 48.7114 27.7145 48.7679 27.6581 48.7679H27.6016C27.4323 48.7679 27.3194 48.7114 27.2065 48.655L26.6985 48.4292L26.6985 48.4292Z" fill="#D30032"/>
<path fill-rule="evenodd" clip-rule="evenodd" d="M3.5 21.1104V22.2392L30.5367 53.735L31.1576 53.3399L27.0936 48.5986L25.8518 47.9212C25.6261 47.8084 25.4567 47.5261 25.4567 47.2439V46.6795L3.5 21.1104Z" fill="#D20032"/>
<path fill-rule="evenodd" clip-rule="evenodd" d="M3.5 22.0137V23.0861L30.0287 54.0174L30.6495 53.6788L3.5 22.0137Z" fill="#D10032"/>
<path fill-rule="evenodd" clip-rule="evenodd" d="M3.5 22.8604V23.9328L29.5207 54.2997L30.1416 53.961L3.5 22.8604Z" fill="#D00032"/>
<path fill-rule="evenodd" clip-rule="evenodd" d="M3.5 23.7061V24.8349L29.0691 54.5809L29.69 54.2423L3.5 23.7061Z" fill="#CF0032"/>
<path fill-rule="evenodd" clip-rule="evenodd" d="M3.5 24.6094V25.6817L28.5612 54.8634L29.182 54.5247L3.5 24.6094Z" fill="#CE0032"/>
<path fill-rule="evenodd" clip-rule="evenodd" d="M3.5 25.4561V26.5285L27.9967 55.0892C28.1661 55.0328 28.3354 54.9764 28.5047 54.9199L28.6741 54.807L3.5 25.4561Z" fill="#CD0032"/>
<path fill-rule="evenodd" clip-rule="evenodd" d="M3.5 26.3027V27.4316L27.263 55.0892C27.3758 55.0892 27.4887 55.0892 27.6016 55.0892C27.771 55.0892 27.9403 55.0893 28.1096 55.0328L3.5 26.3027Z" fill="#CC0032"/>
<path fill-rule="evenodd" clip-rule="evenodd" d="M3.5 27.2061V28.2785L25.9647 54.4686L26.755 54.9201C26.9243 55.033 27.2065 55.0895 27.4323 55.0895L3.5 27.2061Z" fill="#CB0032"/>
<path fill-rule="evenodd" clip-rule="evenodd" d="M3.5 28.0527V29.1252L24.4972 53.6219L26.3598 54.6944L3.5 28.0527Z" fill="#CA0032"/>
<path fill-rule="evenodd" clip-rule="evenodd" d="M3.5 28.9561V30.0285L23.0296 52.7755L24.8923 53.8479L3.5 28.9561Z" fill="#C90032"/>
<path fill-rule="evenodd" clip-rule="evenodd" d="M3.5 29.8018V30.8742L21.5621 51.9278L23.3683 53.0003L3.5 29.8018Z" fill="#C80033"/>
<path fill-rule="evenodd" clip-rule="evenodd" d="M3.5 30.6484V31.7209L20.0945 51.0812L21.9007 52.1536L3.5 30.6484Z" fill="#C70033"/>
<path fill-rule="evenodd" clip-rule="evenodd" d="M3.5 31.5518V32.6242L18.5706 50.1783L20.4332 51.2507L3.5 31.5518Z" fill="#C60033"/>
<path fill-rule="evenodd" clip-rule="evenodd" d="M3.5 32.3984V33.4709L17.103 49.3316L18.9656 50.4041L3.5 32.3984Z" fill="#C50033"/>
<path fill-rule="evenodd" clip-rule="evenodd" d="M3.5 33.2461V34.3185L15.6355 48.4859L17.4981 49.5584L3.5 33.2461Z" fill="#C40033"/>
<path fill-rule="evenodd" clip-rule="evenodd" d="M3.5 34.1484V35.2209L14.1679 47.6385L16.0306 48.7109L3.5 34.1484Z" fill="#C30033"/>
<path fill-rule="evenodd" clip-rule="evenodd" d="M3.5 34.9961V36.0685L12.7004 46.7928L14.563 47.8653L3.5 34.9961Z" fill="#C20033"/>
<path fill-rule="evenodd" clip-rule="evenodd" d="M3.5 35.8418V36.9707L11.2328 45.9453L13.039 47.0177L3.5 35.8418Z" fill="#C10033"/>
<path fill-rule="evenodd" clip-rule="evenodd" d="M3.5 36.7451V37.8176L9.70884 45.0989L11.5715 46.1713L3.5 36.7451Z" fill="#C00033"/>
<path fill-rule="evenodd" clip-rule="evenodd" d="M3.5 37.5918V38.6642L8.2413 44.2522L10.104 45.2682L3.5 37.5918Z" fill="#BF0033"/>
<path fill-rule="evenodd" clip-rule="evenodd" d="M3.5 38.4385V39.5674L6.77376 43.3491L8.63641 44.4216L3.5 38.4385Z" fill="#BE0033"/>
<path fill-rule="evenodd" clip-rule="evenodd" d="M3.5 39.3418V40.4142L5.30621 42.5027L7.16886 43.5751L3.5 39.3418Z" fill="#BD0033"/>
<path fill-rule="evenodd" clip-rule="evenodd" d="M3.5 40.1885V40.4707C3.5 41.0351 3.89511 41.7125 4.34666 41.9947L5.70132 42.7285L3.5 40.1885Z" fill="#BC0033"/>
<path fill-rule="evenodd" clip-rule="evenodd" d="M3.83789 41.4863C3.95078 41.5992 4.00722 41.7121 4.12011 41.7685L3.83789 41.4863Z" fill="#BB0033"/>
</svg>
