<svg width="170" height="32" viewBox="0 0 170 32" fill="none" xmlns="http://www.w3.org/2000/svg">
<path d="M3.98833 3.48638L1 0H36.9844L35.9883 3.48638H3.98833Z" fill="#F48400"/>
<path d="M8.71984 8.96498L6.10506 5.97665H35.3658L34.6187 8.96498H8.71984Z" fill="#F48400"/>
<path d="M13.4514 14.5681L10.9611 11.4553H33.9961L33.1245 14.5681H13.4514Z" fill="#F48400"/>
<path d="M32.5019 17.0584H15.8171L18.3074 20.1712H31.7549L32.5019 17.0584Z" fill="#F48400"/>
<path d="M31.0078 22.6615H20.6732L23.0389 25.6498H30.2607L31.0078 22.6615Z" fill="#F48400"/>
<path d="M29.7626 28.1401H25.4047L28.642 31.8755L29.7626 28.1401Z" fill="#F48400"/>
<path d="M116.549 3.48638L117.42 0H169.093V3.48638H116.549Z" fill="#F48400"/>
<path d="M115.054 8.96498L115.926 5.97665H168.969V8.96498H115.054Z" fill="#F48400"/>
<path d="M113.56 14.5681L114.432 11.4553H168.969V14.5681H113.56Z" fill="#F48400"/>
<path d="M33.249 31.6265L41.965 0H58.2763L55.786 8.2179H48.3152L47.1945 12.2023H54.5409L52.5486 19.4241H45.2023L43.9572 23.7821H51.428L49.1868 31.6265H33.249Z" fill="#05319E"/>
<path d="M53.5447 32L62.1362 0H72.3463V13.572L79.4436 0.124514H89.9027L81.6848 32H73.4669L78.1984 13.821L69.358 32H65.7471L65.9961 12.8249L61.7626 32H53.5447Z" fill="#05319E"/>
<path d="M106.837 0.124514H98.2451L93.1401 4.23346L89.6537 15.5642L92.5175 18.677H99.9883L98.6187 24.1556H95.2568V22.1634H88.035L86.5409 27.5175L91.0233 31.6265H99.3658L105.342 27.5175L108.331 15.9377L104.471 12.5759H98.2451L99.8638 7.22179H102.977L102.603 9.46303H110.198L111.319 4.23346L106.837 0.124514Z" fill="#05319E"/>
</svg>
