<svg width="66" height="32" viewBox="0 0 66 32" fill="none" xmlns="http://www.w3.org/2000/svg">
<path fill-rule="evenodd" clip-rule="evenodd" d="M0 31.8285H31.8898V0.186035H0V31.8285Z" fill="#001689"/>
<path fill-rule="evenodd" clip-rule="evenodd" d="M9.68144 10.4092C9.91694 10.9247 10.3017 11.4538 11.3564 12.1681C11.5902 12.3279 11.8504 12.6603 11.6534 13.1281C11.4533 13.5952 11.0832 14.2592 11.3037 14.5182C11.5274 14.7768 12.3214 14.9113 12.967 14.6542C12.967 14.6542 13.1026 15.0587 13.3394 15.3178C13.3394 15.3178 13.2276 15.5409 12.8558 15.4283C12.8558 15.4283 12.9912 15.7606 12.8044 16.1178C12.8044 16.1178 12.3713 16.0442 12.1857 15.6496C12.1857 15.6496 12.0111 15.9569 11.6642 16.068C11.6642 16.068 11.3789 15.9216 11.4424 15.3536C11.4424 15.3536 11.2304 15.8592 10.5869 15.9442C10.5869 15.9442 10.2139 15.4776 10.6973 14.8501C10.6973 14.8501 10.3499 15.1578 9.71969 15.0099C9.71969 15.0099 9.61938 14.6907 10.1888 14.2473C10.1888 14.2473 9.544 14.2224 9.29688 13.6814C9.29688 13.6814 9.56931 13.3485 10.2379 13.4229C10.2379 13.4229 9.61937 13.2868 9.48231 12.5491C9.48231 12.5491 9.92875 12.2661 10.6356 12.721C10.6356 12.721 10.51 12.4879 10.2139 12.2542C9.91694 12.0202 9.55675 11.3681 9.68144 10.4092Z" fill="white"/>
<path fill-rule="evenodd" clip-rule="evenodd" d="M12.2765 17.8299C12.1813 17.7058 12.1117 17.5823 12.0605 17.4634C12.1714 18.3583 12.2098 18.9616 12.6975 19.5415C12.6975 19.5415 12.9911 19.1538 12.8021 18.2115C12.7211 18.188 12.6279 18.1491 12.54 18.09C12.54 18.09 12.651 18.4727 12.5805 18.8572C12.5805 18.8572 12.4065 18.7311 12.2765 17.8299Z" fill="white"/>
<path fill-rule="evenodd" clip-rule="evenodd" d="M11.4341 17.7371C11.376 17.6643 11.2638 17.5097 11.2042 17.4001C11.1643 17.9203 11.0252 19.2872 11.4875 19.7161C11.4875 19.7161 11.8044 19.4859 11.9152 17.49C11.8485 17.602 11.7305 17.7211 11.6732 17.7864C11.6732 17.7864 11.7504 18.4191 11.5218 18.8662C11.5218 18.8662 11.2925 18.6934 11.4341 17.7371Z" fill="white"/>
<path fill-rule="evenodd" clip-rule="evenodd" d="M10.3331 18.782C10.7199 18.321 10.8371 16.939 10.8371 16.939C10.8909 16.9031 10.9441 16.8642 11 16.8211C11.0195 16.8034 11.042 16.7853 11.0624 16.7656C11.0624 16.8155 11.0645 16.8683 11.0696 16.9202C11.0133 17.7524 10.9473 18.6092 10.6852 19.0358C10.4294 19.4542 9.95712 19.6711 9.95712 19.6711C9.51593 18.8905 10.0494 17.8443 10.4981 17.1165C10.5517 17.0959 10.6076 17.0698 10.6649 17.0413C10.5082 17.6013 10.2091 18.268 10.3331 18.782Z" fill="white"/>
<path fill-rule="evenodd" clip-rule="evenodd" d="M9.23571 16.3837C9.23346 16.4722 9.25015 16.5461 9.26252 16.5824C9.26665 16.5969 9.27321 16.6183 9.28296 16.6395C8.91265 16.9999 8.63796 17.345 8.08971 18.1009C7.54034 18.8573 6.6709 18.8875 6.6709 18.8875C6.75527 18.2748 6.92234 17.7909 7.38846 17.2687C7.85346 16.747 8.44915 16.27 8.88584 15.9548C8.99759 16.0047 9.14515 16.0374 9.33002 16.0155C9.34427 16.0146 9.35946 16.0129 9.37277 16.0093C9.31465 16.0862 9.27884 16.1625 9.26102 16.2326C8.92859 16.4211 7.96765 16.9042 7.57821 17.6847C7.57821 17.6847 8.18627 17.494 9.23571 16.3837Z" fill="white"/>
<path fill-rule="evenodd" clip-rule="evenodd" d="M8.54707 15.6214L8.5827 15.5565C8.59676 15.5347 8.60763 15.5155 8.62226 15.4973C8.26451 15.6348 6.99157 16.1115 6.57982 16.3228C6.16732 16.5356 5.57107 17.0158 5.24707 17.9935C5.24707 17.9935 6.10619 18.0692 6.81532 17.4878C7.52463 16.9042 8.35113 16.0923 8.70401 15.8342C8.66857 15.8021 8.6412 15.7704 8.62226 15.7438C8.62226 15.7438 7.66226 16.5866 6.64807 16.9515C6.64807 16.9515 6.86463 16.56 7.26626 16.2767C7.75432 15.9328 8.12013 15.8171 8.54707 15.6214Z" fill="white"/>
<path fill-rule="evenodd" clip-rule="evenodd" d="M7.81856 15.0436C7.83281 15.0099 7.84687 14.9781 7.86131 14.9485C7.44075 15.0326 6.39187 15.1578 5.92181 15.2996C5.45325 15.4434 4.60481 15.7835 4.10156 16.7371C4.10156 16.7371 4.84031 16.9628 6.23438 16.3124C7.62844 15.6609 8.06625 15.5254 8.33175 15.4553C8.12044 15.4402 7.96931 15.3691 7.89225 15.3213C7.33594 15.5675 6.59194 15.8577 5.85375 15.8774C5.85375 15.8774 6.21675 15.6225 6.60056 15.4616C7.01437 15.2903 7.47131 15.1334 7.81856 15.0436Z" fill="white"/>
<path fill-rule="evenodd" clip-rule="evenodd" d="M7.85488 14.3588C7.991 14.422 8.09563 14.4537 8.27431 14.4719C8.17738 14.5348 8.08531 14.6137 8.00281 14.7206C7.511 14.8613 6.67269 15.0144 5.29044 15.1136C3.9095 15.2112 3.17188 14.9605 3.17188 14.9605C3.65338 14.6682 4.421 14.3716 4.94075 14.2721C5.45975 14.1724 6.82344 14.1839 7.421 14.1028C7.42756 14.1097 7.49994 14.1677 7.61788 14.2384C7.11519 14.2829 6.04363 14.3322 5.49163 14.6114C5.49163 14.6114 6.51106 14.7456 7.85488 14.3588Z" fill="white"/>
<path fill-rule="evenodd" clip-rule="evenodd" d="M7.74969 13.5703C7.81981 13.5294 7.90363 13.4888 8.00694 13.4509C7.30662 13.2412 6.34681 12.9047 4.90044 12.8118C3.84088 12.7428 3.07625 12.8031 2.67969 12.9047C2.67969 12.9047 3.64569 13.5791 4.74837 13.8168C5.85312 14.0557 6.74937 13.9052 7.4045 13.911C7.44687 13.847 7.49619 13.7742 7.57325 13.7022C6.80656 13.7073 5.5325 13.51 5.0765 13.359C5.0765 13.359 6.188 13.1296 7.74969 13.5703Z" fill="white"/>
<path fill-rule="evenodd" clip-rule="evenodd" d="M7.74663 12.7541C7.75038 12.7738 7.83288 13.1652 8.29001 13.3812C7.30713 12.955 5.3727 12.7094 4.3317 12.2802C2.9262 11.7001 2.66895 10.9766 2.66895 10.9766C3.8862 10.9442 4.86982 11.2387 5.62845 11.4702C6.51588 11.7396 7.86776 12.2411 8.34082 12.4504C8.16513 12.4571 7.9692 12.5085 7.80551 12.6169C7.14532 12.3652 6.83726 12.2588 6.23782 12.0921C5.76326 11.9602 5.41413 11.9349 5.11788 11.9068C5.11788 11.9068 5.53432 12.1797 6.22038 12.3969C6.90045 12.6134 7.19482 12.6491 7.74663 12.7541Z" fill="white"/>
<path fill-rule="evenodd" clip-rule="evenodd" d="M7.67325 11.6898C7.71244 11.7588 7.82831 11.9235 7.87462 11.9888C6.32119 11.7307 4.61306 10.5654 4.08487 9.84256C3.55687 9.11959 3.70594 8.04126 3.70594 8.04126C4.21837 8.14303 5.33194 9.09614 5.62012 9.38321C5.90925 9.66879 6.77925 10.5103 7.38244 10.9791L7.57012 11.5216C7.05356 11.109 6.44081 10.6494 6.05944 10.3639C5.76544 10.1443 5.32519 9.83177 4.88719 9.68424C4.88719 9.68424 5.2905 10.205 5.61581 10.4595C5.99156 10.7538 6.3735 11.0093 6.68681 11.18C6.96562 11.332 7.1085 11.4178 7.67325 11.6898Z" fill="white"/>
<path fill-rule="evenodd" clip-rule="evenodd" d="M12.0529 16.0041C12.1003 15.9626 12.1421 15.9226 12.1748 15.8867C12.2464 15.9756 12.4868 16.2724 12.6056 16.569C12.6941 16.8218 12.79 17.166 12.837 17.3632C12.8846 17.5589 13.0251 17.9695 13.1113 18.1098C13.1113 18.1098 12.7333 18.157 12.453 17.832C12.1778 17.5137 12.0857 17.193 12.0418 16.8644C12.006 16.6069 12.0191 16.2497 12.0529 16.0041Z" fill="white"/>
<path fill-rule="evenodd" clip-rule="evenodd" d="M11.4568 16.0527C11.5271 16.1463 11.5946 16.1841 11.6012 16.1884L11.6531 16.2142L11.7053 16.196C11.7533 16.182 11.7962 16.1649 11.8363 16.1446C11.892 16.2963 11.9149 16.3694 11.9278 16.4981C11.9451 16.67 11.979 16.9404 11.9149 17.1612C11.8363 17.43 11.6728 17.5947 11.5836 17.6974C11.5836 17.6974 11.3357 17.4269 11.265 17.2047C11.1915 16.9711 11.1651 16.6996 11.2566 16.4213C11.3065 16.2702 11.3856 16.1322 11.4568 16.0527Z" fill="white"/>
<path fill-rule="evenodd" clip-rule="evenodd" d="M10.6037 16.0789C10.8572 16.0456 11.0483 15.9548 11.193 15.8499C11.2253 15.9382 11.2751 16.0571 11.2393 16.2257C11.2003 16.3946 11.0828 16.5808 10.9146 16.7159C10.6573 16.9178 10.3172 17.1083 9.93958 17.0508C9.93958 17.0508 9.85277 16.7687 10.6037 16.0789Z" fill="white"/>
<path fill-rule="evenodd" clip-rule="evenodd" d="M10.3174 15.6089C10.3491 15.8591 10.4695 16.0163 10.4773 16.0288C10.3896 16.1332 10.0714 16.6747 9.40859 16.5849C9.40859 16.5849 9.22784 16.2152 9.67053 15.9214C9.96884 15.7226 10.1123 15.682 10.3174 15.6089Z" fill="white"/>
<path fill-rule="evenodd" clip-rule="evenodd" d="M10.376 15.1454C10.1999 15.1895 9.96946 15.2072 9.68821 15.1412L9.61152 15.1235L9.58771 15.0498C9.24665 15.3255 8.84165 15.3722 8.70215 15.6225C8.70215 15.6225 8.87259 15.9333 9.31527 15.8825C9.75796 15.8297 10.0893 15.6239 10.3266 15.3292C10.3358 15.2855 10.3559 15.202 10.376 15.1454Z" fill="white"/>
<path fill-rule="evenodd" clip-rule="evenodd" d="M9.61083 14.7576C9.67233 14.6647 9.71601 14.5213 9.84839 14.376C9.55645 14.3257 9.29208 14.3215 8.94877 14.3879C8.54095 14.4632 8.12433 14.5589 7.91602 15.176C7.91602 15.176 8.17664 15.3968 8.65327 15.3012C9.05808 15.2182 9.40889 15.0463 9.61083 14.7576Z" fill="white"/>
<path fill-rule="evenodd" clip-rule="evenodd" d="M9.43681 14.0895C9.33481 14.0005 9.239 13.8865 9.17188 13.7375L9.1385 13.6601C8.7845 13.5174 8.41644 13.4441 8.054 13.5765C7.69325 13.7114 7.59819 13.8645 7.50781 13.999C7.50781 13.999 7.90775 14.3313 8.36638 14.3427C8.8265 14.3577 9.25175 14.2255 9.43681 14.0895Z" fill="white"/>
<path fill-rule="evenodd" clip-rule="evenodd" d="M9.54421 13.3682C9.60515 13.3454 9.67302 13.3242 9.75008 13.3085C9.59558 13.172 9.43977 12.9627 9.3659 12.6512C9.20127 12.6892 8.81596 12.6892 8.64665 12.6257C8.47565 12.561 8.14227 12.5578 7.88184 12.7281C7.88184 12.7281 7.96827 13.1818 8.55684 13.3366C9.11315 13.4814 9.3179 13.444 9.54421 13.3682Z" fill="white"/>
<path fill-rule="evenodd" clip-rule="evenodd" d="M9.33157 12.4846L9.4092 12.4353C9.42007 12.4286 9.55188 12.348 9.77651 12.3303C9.58732 12.1906 9.13395 11.8143 8.81576 11.6336C8.46513 11.4396 7.88557 11.1821 7.59082 11.1436C7.59082 11.1436 7.86757 11.8637 8.18857 12.1549C8.52438 12.457 8.75782 12.5687 9.33157 12.4846Z" fill="white"/>
<path fill-rule="evenodd" clip-rule="evenodd" d="M9.92883 12.1528C9.78596 11.9711 9.67514 11.7199 9.5932 11.423C9.52683 11.182 9.37364 10.5833 9.28327 10.4287C9.19308 10.273 8.86645 9.73107 8.2297 9.56177C8.2297 9.56177 8.05945 10.2699 8.38027 10.828C8.65589 11.3108 9.22364 11.8191 9.92883 12.1528Z" fill="white"/>
<path fill-rule="evenodd" clip-rule="evenodd" d="M13.4654 15.4402C13.5438 15.5202 13.6045 15.5632 13.7467 15.6343C13.7467 15.6343 13.9501 16.019 13.7034 16.4847C13.4562 16.9498 13.249 17.4239 13.1499 17.6882C13.1499 17.6882 13.0177 17.6683 12.8703 16.9405C12.7713 16.4473 12.6455 16.3238 12.5137 16.1545C12.6569 16.2263 12.7724 16.2475 12.7825 16.2495L12.881 16.2661L12.9256 16.179C13.0135 16.0129 13.0407 15.8514 13.0407 15.7163C13.0407 15.6722 13.0374 15.6307 13.0323 15.5928C13.2612 15.5986 13.3831 15.4838 13.4305 15.4255C13.4337 15.4194 13.4382 15.4159 13.4403 15.4106L13.4654 15.4402Z" fill="white"/>
<path fill-rule="evenodd" clip-rule="evenodd" d="M8.0512 9.85827C8.04895 9.92673 8.04689 10.001 8.04895 10.0804L8.06208 10.2544C7.68502 9.77771 7.2352 9.20413 6.80564 8.67352C6.51089 8.31073 6.2617 8.09101 5.98589 7.91408C6.21689 8.58645 6.63577 9.1232 6.93108 9.39092C7.22527 9.65845 7.65464 10.1096 8.07108 10.3851L8.1112 10.5217C8.14383 10.6464 8.1937 10.7751 8.26345 10.8955C8.35964 11.0653 8.48808 11.233 8.63864 11.395C8.5177 11.3353 8.37933 11.2709 8.23852 11.2121L8.10952 11.1593C6.96164 10.555 5.82558 9.30422 5.36414 8.43427C4.90214 7.56413 5.09527 6.55389 5.21658 6.01343C5.73727 6.45157 6.48689 7.31333 6.81352 7.78329C7.21589 8.35836 7.73208 9.17399 8.0497 9.83799L8.0512 9.85827Z" fill="white"/>
<path fill-rule="evenodd" clip-rule="evenodd" d="M24.1395 13.5703C24.0702 13.5294 23.9867 13.4888 23.8838 13.4509C24.5824 13.2412 25.5437 12.9047 26.9888 12.8118C28.0489 12.7428 28.8156 12.8031 29.2107 12.9047C29.2107 12.9047 28.2456 13.5791 27.1412 13.8168C26.0374 14.0557 25.141 13.9052 24.4859 13.911C24.4431 13.847 24.3934 13.7742 24.3167 13.7022C25.0836 13.7073 26.3592 13.51 26.8142 13.359C26.8142 13.359 25.7024 13.1296 24.1395 13.5703Z" fill="white"/>
<path fill-rule="evenodd" clip-rule="evenodd" d="M24.1432 12.7541C24.1395 12.7738 24.0575 13.1652 23.6 13.3812C24.5823 12.955 26.5186 12.7094 27.5581 12.2802C28.9644 11.7001 29.2215 10.9766 29.2215 10.9766C28.0046 10.9442 27.0208 11.2387 26.262 11.4702C25.3753 11.7396 24.0223 12.2411 23.5488 12.4504C23.727 12.4571 23.9206 12.5085 24.0856 12.6169C24.746 12.3652 25.0531 12.2588 25.6535 12.0921C26.1268 11.9602 26.4765 11.9349 26.7725 11.9068C26.7725 11.9068 26.3565 12.1797 25.67 12.3969C24.989 12.6134 24.6952 12.6491 24.1432 12.7541Z" fill="white"/>
<path fill-rule="evenodd" clip-rule="evenodd" d="M24.2168 11.6898C24.1784 11.7588 24.0612 11.9235 24.0156 11.9888C25.5689 11.7307 27.2776 10.5654 27.805 9.84256C28.3347 9.11959 28.1845 8.04126 28.1845 8.04126C27.6711 8.14303 26.5581 9.09614 26.2697 9.38321C25.9816 9.66879 25.111 10.5103 24.5074 10.9791L24.3196 11.5216C24.8357 11.109 25.4487 10.6494 25.8316 10.3639C26.125 10.1443 26.5643 9.83177 27.0023 9.68424C27.0023 9.68424 26.5996 10.205 26.2739 10.4595C25.9 10.7538 25.5179 11.0093 25.2031 11.18C24.9246 11.332 24.7821 11.4178 24.2168 11.6898Z" fill="white"/>
<path fill-rule="evenodd" clip-rule="evenodd" d="M23.8403 9.85827C23.8424 9.92673 23.8443 10.001 23.8411 10.0804L23.8278 10.2544C24.2043 9.77771 24.656 9.20413 25.085 8.67352C25.3799 8.31073 25.6296 8.09101 25.9056 7.91408C25.6722 8.58645 25.2558 9.1232 24.9595 9.39092C24.6646 9.65845 24.2378 10.1096 23.8203 10.3851L23.7794 10.5217C23.747 10.6464 23.6976 10.7751 23.6281 10.8955C23.5304 11.0653 23.4042 11.233 23.252 11.395C23.3731 11.3353 23.5115 11.2709 23.6517 11.2121L23.7809 11.1593C24.929 10.555 26.0663 9.30422 26.5265 8.43427C26.9856 7.56413 26.7968 6.55389 26.6742 6.01343C26.1531 6.45157 25.4033 7.31333 25.0761 7.78329C24.674 8.35836 24.1596 9.17399 23.8403 9.83799V9.85827Z" fill="white"/>
<path fill-rule="evenodd" clip-rule="evenodd" d="M9.51531 16.7313C9.04262 17.2001 8.04606 18.2529 8.13887 19.3945C8.13887 19.3945 9.06569 19.1075 9.4465 18.4336C9.82862 17.7609 10.0641 17.3387 10.2237 17.1871C10.1207 17.2001 10.0178 17.2001 9.91806 17.1835L9.83462 17.1705C9.59912 17.5956 9.13356 18.2898 8.7145 18.5322C8.7145 18.5322 8.60744 17.9694 9.8395 16.8284C9.85637 16.7817 9.88169 16.7275 9.91656 16.6689C9.80406 16.7101 9.67506 16.7328 9.53125 16.7303" fill="white"/>
<path fill-rule="evenodd" clip-rule="evenodd" d="M22.208 10.4092C21.9729 10.9247 21.5864 11.4538 20.5353 12.1681C20.2991 12.3279 20.0394 12.6603 20.237 13.1281C20.4346 13.5952 20.8078 14.2592 20.5837 14.5182C20.3613 14.7768 19.5682 14.9113 18.9221 14.6542C18.9221 14.6542 18.7873 15.0587 18.5518 15.3178C18.5518 15.3178 18.662 15.5409 19.0349 15.4283C19.0349 15.4283 18.8988 15.7606 19.0843 16.1178C19.0843 16.1178 19.5181 16.0442 19.703 15.6496C19.703 15.6496 19.8768 15.9569 20.2254 16.068C20.2254 16.068 20.5115 15.9216 20.4483 15.3536C20.4483 15.3536 20.6579 15.8592 21.3043 15.9442C21.3043 15.9442 21.6761 15.4776 21.1912 14.8501C21.1912 14.8501 21.5388 15.1578 22.1711 15.0099C22.1711 15.0099 22.2703 14.6907 21.6986 14.2473C21.6986 14.2473 22.3454 14.2224 22.5937 13.6814C22.5937 13.6814 22.3203 13.3485 21.6515 13.4229C21.6515 13.4229 22.2703 13.2868 22.4066 12.5491C22.4066 12.5491 21.9603 12.2661 21.2548 12.721C21.2548 12.721 21.3776 12.4879 21.6748 12.2542C21.9729 12.0202 22.3333 11.3681 22.208 10.4092Z" fill="white"/>
<path fill-rule="evenodd" clip-rule="evenodd" d="M19.6143 17.8299C19.7081 17.7058 19.7773 17.5823 19.8313 17.4634C19.7203 18.3583 19.68 18.9616 19.1925 19.5415C19.1925 19.5415 18.8994 19.1538 19.0873 18.2115C19.1705 18.188 19.2613 18.1491 19.3511 18.09C19.3511 18.09 19.2395 18.4727 19.3083 18.8572C19.3083 18.8572 19.4861 18.7311 19.6143 17.8299Z" fill="white"/>
<path fill-rule="evenodd" clip-rule="evenodd" d="M20.4564 17.7371C20.5149 17.6643 20.6282 17.5097 20.6858 17.4001C20.7261 17.9203 20.8639 19.2872 20.4021 19.7161C20.4021 19.7161 20.0856 19.4859 19.9736 17.49C20.0413 17.602 20.1587 17.7211 20.2148 17.7864C20.2148 17.7864 20.1392 18.4191 20.3679 18.8662C20.3679 18.8662 20.5971 18.6934 20.4564 17.7371Z" fill="white"/>
<path fill-rule="evenodd" clip-rule="evenodd" d="M21.5582 18.782C21.1684 18.321 21.0527 16.939 21.0527 16.939C20.9996 16.9031 20.9441 16.8642 20.8924 16.8211C20.8691 16.8034 20.8483 16.7853 20.8277 16.7656C20.8277 16.8155 20.8258 16.8683 20.8213 16.9202C20.8757 17.7524 20.9441 18.6092 21.2047 19.0358C21.4609 19.4542 21.9317 19.6711 21.9317 19.6711C22.3745 18.8905 21.84 17.8443 21.3928 17.1165C21.3371 17.0959 21.2822 17.0698 21.2265 17.0413C21.3825 17.6013 21.6814 18.268 21.5582 18.782Z" fill="white"/>
<path fill-rule="evenodd" clip-rule="evenodd" d="M22.6527 16.3837C22.6569 16.4722 22.6392 16.5461 22.6272 16.5824C22.6229 16.5969 22.6158 16.6183 22.6077 16.6395C22.9764 16.9999 23.2518 17.345 23.8 18.1009C24.3494 18.8573 25.2189 18.8875 25.2189 18.8875C25.1358 18.2748 24.9674 17.7909 24.5019 17.2687C24.0367 16.747 23.4423 16.27 23.0041 15.9548C22.8914 16.0047 22.7453 16.0374 22.5601 16.0155C22.5449 16.0146 22.5303 16.0129 22.5166 16.0093C22.5745 16.0862 22.6098 16.1625 22.6297 16.2326C22.9606 16.4211 23.924 16.9042 24.3119 17.6847C24.3119 17.6847 23.7031 17.494 22.6527 16.3837Z" fill="white"/>
<path fill-rule="evenodd" clip-rule="evenodd" d="M23.3432 15.6214L23.3067 15.5565C23.2943 15.5347 23.2821 15.5155 23.2682 15.4973C23.6252 15.6348 24.8991 16.1115 25.3105 16.3228C25.722 16.5356 26.3172 17.0158 26.6404 17.9935C26.6404 17.9935 25.7828 18.0692 25.0733 17.4878C24.3647 16.9042 23.5371 16.0923 23.1855 15.8342C23.2208 15.8021 23.2472 15.7704 23.2682 15.7438C23.2682 15.7438 24.2275 16.5866 25.2409 16.9515C25.2409 16.9515 25.0249 16.56 24.6252 16.2767C24.1354 15.9328 23.7707 15.8171 23.3432 15.6214Z" fill="white"/>
<path fill-rule="evenodd" clip-rule="evenodd" d="M24.0699 15.0436C24.057 15.0099 24.0431 14.9781 24.0279 14.9485C24.4483 15.0326 25.4988 15.1578 25.9687 15.2996C26.4358 15.4434 27.2852 15.7835 27.7886 16.7371C27.7886 16.7371 27.0498 16.9628 25.6545 16.3124C24.2597 15.6609 23.8245 15.5254 23.5586 15.4553C23.7692 15.4402 23.9199 15.3691 23.9985 15.3213C24.5546 15.5675 25.2988 15.8577 26.0366 15.8774C26.0366 15.8774 25.6717 15.6225 25.2898 15.4616C24.8735 15.2903 24.4177 15.1334 24.0699 15.0436Z" fill="white"/>
<path fill-rule="evenodd" clip-rule="evenodd" d="M24.037 14.3588C23.8997 14.422 23.7955 14.4537 23.6172 14.4719C23.7143 14.5348 23.8071 14.6137 23.8902 14.7206C24.3814 14.8613 25.2175 15.0144 26.6005 15.1136C27.9822 15.2112 28.7187 14.9605 28.7187 14.9605C28.2378 14.6682 27.4709 14.3716 26.9517 14.2721C26.4312 14.1724 25.0677 14.1839 24.4694 14.1028C24.4628 14.1097 24.3893 14.1677 24.2729 14.2384C24.7765 14.2829 25.8471 14.3322 26.4001 14.6114C26.4001 14.6114 25.3801 14.7456 24.037 14.3588Z" fill="white"/>
<path fill-rule="evenodd" clip-rule="evenodd" d="M19.8363 16.0041C19.7893 15.9626 19.749 15.9226 19.713 15.8867C19.6427 15.9756 19.403 16.2724 19.2858 16.569C19.1958 16.8218 19.1 17.166 19.0539 17.3632C19.0046 17.5589 18.8634 17.9695 18.7773 18.1098C18.7773 18.1098 19.1565 18.157 19.437 17.832C19.7122 17.5137 19.805 17.193 19.8497 16.8644C19.8817 16.6069 19.8725 16.2497 19.8363 16.0041Z" fill="white"/>
<path fill-rule="evenodd" clip-rule="evenodd" d="M20.4313 16.0527C20.3617 16.1463 20.2948 16.1841 20.2878 16.1884L20.2374 16.2142L20.1828 16.196C20.1373 16.182 20.0943 16.1649 20.0531 16.1446C19.9976 16.2963 19.9766 16.3694 19.962 16.4981C19.943 16.67 19.9104 16.9404 19.9738 17.1612C20.0536 17.43 20.2149 17.5947 20.3055 17.6974C20.3055 17.6974 20.5535 17.4269 20.6248 17.2047C20.6979 16.9711 20.7247 16.6996 20.6347 16.4213C20.5839 16.2702 20.5023 16.1322 20.4313 16.0527Z" fill="white"/>
<path fill-rule="evenodd" clip-rule="evenodd" d="M21.2865 16.0789C21.0325 16.0456 20.8418 15.9548 20.6963 15.8499C20.6652 15.9382 20.6143 16.0571 20.652 16.2257C20.6886 16.3946 20.8063 16.5808 20.9779 16.7159C21.2312 16.9178 21.5734 17.1083 21.951 17.0508C21.951 17.0508 22.0378 16.7687 21.2865 16.0789Z" fill="white"/>
<path fill-rule="evenodd" clip-rule="evenodd" d="M21.5707 15.6089C21.5407 15.8591 21.4199 16.0163 21.4102 16.0288C21.4985 16.1332 21.8167 16.6747 22.4836 16.5849C22.4836 16.5849 22.661 16.2152 22.2209 15.9214C21.919 15.7226 21.7771 15.682 21.5707 15.6089Z" fill="white"/>
<path fill-rule="evenodd" clip-rule="evenodd" d="M21.5127 15.1454C21.6899 15.1895 21.9211 15.2072 22.2031 15.1412L22.2798 15.1235L22.3019 15.0498C22.6437 15.3255 23.0489 15.3722 23.1882 15.6225C23.1882 15.6225 23.0178 15.9333 22.576 15.8825C22.1333 15.8297 21.7994 15.6239 21.5629 15.3292C21.5545 15.2855 21.5354 15.202 21.5127 15.1454Z" fill="white"/>
<path fill-rule="evenodd" clip-rule="evenodd" d="M22.2805 14.7576C22.2169 14.6647 22.1723 14.5213 22.041 14.376C22.3358 14.3257 22.5986 14.3215 22.9412 14.3879C23.3494 14.4632 23.7656 14.5589 23.9749 15.176C23.9749 15.176 23.7115 15.3968 23.2354 15.3012C22.8326 15.2182 22.4811 15.0463 22.2805 14.7576Z" fill="white"/>
<path fill-rule="evenodd" clip-rule="evenodd" d="M22.4521 14.0895C22.5549 14.0005 22.6492 13.8865 22.7175 13.7375L22.7508 13.6601C23.1056 13.5174 23.4744 13.4441 23.8338 13.5765C24.1961 13.7114 24.2904 13.8645 24.3836 13.999C24.3836 13.999 23.9831 14.3313 23.522 14.3427C23.0623 14.3577 22.637 14.2255 22.4521 14.0895Z" fill="white"/>
<path fill-rule="evenodd" clip-rule="evenodd" d="M22.3457 13.3682C22.2844 13.3454 22.2163 13.3242 22.1387 13.3085C22.296 13.172 22.4501 12.9627 22.5249 12.6512C22.6892 12.6892 23.0749 12.6892 23.2449 12.6257C23.4146 12.561 23.7484 12.5578 24.0084 12.7281C24.0084 12.7281 23.9237 13.1818 23.3321 13.3366C22.7752 13.4814 22.571 13.444 22.3457 13.3682Z" fill="white"/>
<path fill-rule="evenodd" clip-rule="evenodd" d="M22.5576 12.4846L22.4807 12.4353C22.4695 12.4286 22.3376 12.348 22.1113 12.3303C22.3026 12.1906 22.7531 11.8143 23.0751 11.6336C23.4248 11.4396 24.0036 11.1821 24.3008 11.1436C24.3008 11.1436 24.0231 11.8637 23.7 12.1549C23.3661 12.457 23.1317 12.5687 22.5576 12.4846Z" fill="white"/>
<path fill-rule="evenodd" clip-rule="evenodd" d="M21.9609 12.1528C22.1038 11.9711 22.2144 11.7199 22.2966 11.423C22.3644 11.182 22.5169 10.5833 22.6078 10.4287C22.6993 10.273 23.0246 9.73107 23.6618 9.56177C23.6618 9.56177 23.8314 10.2699 23.5104 10.828C23.2331 11.3108 22.6676 11.8191 21.9609 12.1528Z" fill="white"/>
<path fill-rule="evenodd" clip-rule="evenodd" d="M18.4271 15.4402C18.3448 15.5202 18.2844 15.5632 18.1438 15.6343C18.1438 15.6343 17.9394 16.019 18.1867 16.4847C18.4323 16.9498 18.6401 17.4239 18.7408 17.6882C18.7408 17.6882 18.8732 17.6683 19.0196 16.9405C19.1195 16.4473 19.2459 16.3238 19.376 16.1545C19.2326 16.2263 19.1188 16.2475 19.1081 16.2495L19.0102 16.2661L18.9647 16.179C18.8756 16.0129 18.8518 15.8514 18.8518 15.7163C18.8518 15.6722 18.8537 15.6307 18.8583 15.5928C18.629 15.5986 18.5066 15.4838 18.4612 15.4255C18.4558 15.4194 18.452 15.4159 18.4496 15.4106L18.4271 15.4402Z" fill="white"/>
<path fill-rule="evenodd" clip-rule="evenodd" d="M22.3744 16.7313C22.8467 17.2001 23.844 18.2529 23.7493 19.3945C23.7493 19.3945 22.8229 19.1075 22.443 18.4336C22.0607 17.7609 21.8265 17.3387 21.666 17.1871C21.7673 17.2001 21.8702 17.2001 21.9713 17.1835L22.0564 17.1705C22.2906 17.5956 22.7561 18.2898 23.1756 18.5322C23.1756 18.5322 23.2819 17.9694 22.0504 16.8284C22.0331 16.7817 22.0071 16.7275 21.9731 16.6689C22.0853 16.7101 22.2141 16.7328 22.3577 16.7303" fill="white"/>
<path fill-rule="evenodd" clip-rule="evenodd" d="M15.2217 7.6234C15.2217 7.53931 15.5461 7.46973 15.9451 7.46973C16.345 7.46973 16.6684 7.53931 16.6684 7.6234C16.6684 7.70694 16.345 7.77596 15.9451 7.77596C15.5461 7.77596 15.2217 7.70694 15.2217 7.6234Z" fill="white"/>
<path fill-rule="evenodd" clip-rule="evenodd" d="M16.0864 7.95974C16.0864 8.0377 16.0241 8.10095 15.9452 8.10095C15.8668 8.10095 15.8018 8.0377 15.8018 7.95974C15.8018 7.88198 15.8668 7.81909 15.9452 7.81909C16.0241 7.81909 16.0864 7.88198 16.0864 7.95974Z" fill="white"/>
<path fill-rule="evenodd" clip-rule="evenodd" d="M15.1698 7.47394C14.9304 6.90538 14.7686 6.48454 14.7746 6.34426C14.7787 6.25961 14.8811 6.19636 14.978 6.16715C15.0727 6.13719 15.1576 6.13143 15.2216 6.1798C15.3474 6.27524 15.4627 7.04361 15.5064 7.36287C15.3851 7.38557 15.3114 7.40119 15.1698 7.47394Z" fill="white"/>
<path fill-rule="evenodd" clip-rule="evenodd" d="M15.61 7.35069C15.6703 7.34287 15.7331 7.34027 15.7965 7.33766C15.7588 7.03255 15.6516 6.52371 15.5899 6.32427C15.5269 6.12334 15.447 5.97915 15.3145 5.94287C15.3145 5.94287 15.4174 6.2225 15.4744 6.51069C15.5303 6.79999 15.573 7.07552 15.61 7.35069Z" fill="white"/>
<path fill-rule="evenodd" clip-rule="evenodd" d="M14.8479 8.36976C15.1134 8.30762 15.3851 8.02613 15.3851 8.02613C14.9563 8.08734 14.8479 8.36976 14.8479 8.36976ZM15.2454 8.34427C14.8753 8.55767 14.4609 8.52548 14.4609 8.52548C14.5412 8.37962 14.6168 8.24474 14.8479 8.0812C15.0793 7.91655 15.4571 7.87562 15.6053 7.8959C15.5723 8.00548 15.4217 8.24157 15.2454 8.34427Z" fill="white"/>
<path fill-rule="evenodd" clip-rule="evenodd" d="M13.8642 8.94761V8.91803C13.5004 8.96417 13.072 8.94556 13.072 8.94556C13.0935 9.07952 13.1502 9.18128 13.246 9.24342C13.2692 8.95077 13.8642 8.94761 13.8642 8.94761ZM12.6572 8.56082C12.6572 8.56082 13.1172 8.73012 13.5779 8.70872C14.0367 8.68547 14.8849 8.67598 15.1579 8.5437C15.1579 8.5437 15.1137 8.71505 14.8949 8.81365C14.8949 8.81365 15.0102 8.81366 15.1225 8.91189C15.1225 8.91189 15.0563 9.05347 14.8609 9.12826C14.8609 9.12826 15.2115 9.48919 15.5875 9.46314C15.5875 9.46314 15.4146 9.67691 15.03 9.59449C14.6457 9.51245 14.5227 9.29905 14.4576 9.217C14.4576 9.217 14.5075 9.4211 14.4837 9.50352C14.4837 9.50352 14.3151 9.49328 14.1837 9.32919C14.1837 9.32919 14.2791 9.49328 14.299 9.63189C14.299 9.63189 14.193 9.64379 14.0031 9.53272C14.0031 9.53272 14.0429 9.63486 14.0502 9.75226C14.0502 9.75226 13.6062 9.61161 13.3911 9.41124C13.3911 9.41124 13.3883 9.54928 13.399 9.62761C13.399 9.62761 12.7101 9.55858 12.6572 8.56082Z" fill="white"/>
<path fill-rule="evenodd" clip-rule="evenodd" d="M12.5502 8.6306C12.5674 8.8466 12.6231 9.05944 12.6992 9.21051C12.6992 9.21051 12.4283 9.00865 12.3623 8.83674C12.2946 8.66651 12.2787 8.54818 12.5502 8.6306Z" fill="white"/>
<path fill-rule="evenodd" clip-rule="evenodd" d="M12.0064 9.45092C12.0705 9.45092 12.1213 9.40162 12.1213 9.33929C12.1213 9.27696 12.0705 9.2271 12.0064 9.2271C11.9452 9.2271 11.8959 9.27696 11.8959 9.33929C11.8959 9.40162 11.9452 9.45092 12.0064 9.45092ZM12.6703 9.31957C12.8518 9.40162 13.0132 9.59622 13.0132 9.59622C12.7386 9.65855 12.6167 9.7365 12.6167 9.7365C12.0902 9.36831 11.6565 9.73855 11.6565 9.73855C11.3717 9.57966 11.3171 9.18822 11.4594 8.98171C11.6016 8.77389 11.9227 8.81036 12.075 8.84664C12.1716 9.14934 12.507 9.24627 12.6703 9.31957Z" fill="white"/>
<path fill-rule="evenodd" clip-rule="evenodd" d="M13.0736 9.66357C13.0736 9.66357 13.2648 9.91734 13.4054 10.029C13.4054 10.029 12.6971 10.0223 12.5186 10.6306C12.5186 10.6306 12.2729 10.258 12.4522 10.015C12.6455 9.75344 12.8221 9.72125 13.0736 9.66357Z" fill="white"/>
<path fill-rule="evenodd" clip-rule="evenodd" d="M13.8506 9.81469C13.8506 9.81469 14.0795 9.88167 14.156 9.90139C14.156 9.90139 14.1581 9.77004 14.1538 9.70679C14.2226 9.72335 14.3081 9.74511 14.3818 9.75237C14.3818 9.75237 14.6096 10.258 14.7883 10.4621C14.7883 10.4621 14.7986 10.5743 14.699 10.7446C14.699 10.7446 14.5695 10.4454 14.3375 10.2056C14.2066 10.0713 14.1226 10.0026 13.8506 9.81469Z" fill="white"/>
<path fill-rule="evenodd" clip-rule="evenodd" d="M13.249 9.70679C13.3233 9.72651 13.6889 9.84018 13.864 9.96688C14.0866 10.1237 14.2392 10.3047 14.2146 10.6158C14.2146 10.6158 14.0365 10.3691 13.8385 10.258C13.6823 10.1693 13.3988 9.92372 13.249 9.70679Z" fill="white"/>
<path fill-rule="evenodd" clip-rule="evenodd" d="M13.254 7.41943C13.3213 7.41943 13.4516 7.45162 13.4516 7.5586C13.4516 7.66762 13.2835 7.92809 13.2373 8.04343H13.233C13.1884 7.92809 13.0176 7.66762 13.0176 7.5586C13.0176 7.45162 13.1498 7.41943 13.2169 7.41943H13.254Z" fill="white"/>
<path fill-rule="evenodd" clip-rule="evenodd" d="M13.1049 8.25985C13.0736 8.10822 13.0128 7.71473 12.9193 7.62804C12.8302 7.5445 12.6971 7.53669 12.6324 7.54022C12.5651 7.5445 12.4963 7.61204 12.5238 7.69966C12.5499 7.79064 12.8433 8.22599 12.8816 8.28106C12.9498 8.26915 12.9369 8.2738 13.1049 8.25985Z" fill="white"/>
<path fill-rule="evenodd" clip-rule="evenodd" d="M13.3652 8.25985C13.3982 8.10822 13.4575 7.71473 13.5516 7.62804C13.6401 7.5445 13.7736 7.53669 13.8385 7.54022C13.9054 7.5445 13.9755 7.61204 13.9487 7.69966C13.92 7.79064 13.6274 8.22599 13.5882 8.28106C13.5209 8.26915 13.5336 8.2738 13.3652 8.25985Z" fill="white"/>
<path fill-rule="evenodd" clip-rule="evenodd" d="M13.554 6.89086H13.3249V6.64062H13.1408V6.89086H12.9102V7.04918H13.1408V7.34295H13.3249V7.04918H13.554V6.89086Z" fill="white"/>
<path fill-rule="evenodd" clip-rule="evenodd" d="M10.7846 8.50951C10.7846 8.45965 10.7868 8.41184 10.7941 8.36403C10.8114 8.24161 10.8129 8.13779 10.7996 8.05054C10.6348 8.11379 10.5236 8.15286 10.2969 8.51621C10.2969 8.51621 10.6582 8.29519 10.7846 8.50951Z" fill="white"/>
<path fill-rule="evenodd" clip-rule="evenodd" d="M11.0992 9.08392C11.1039 8.99406 11.1641 8.70904 11.2395 8.50978C11.3315 8.26215 11.2779 7.90494 11.1664 7.68783C11.0593 7.47871 11.001 7.28187 11.0186 7.06494C11.0186 7.06494 10.8064 7.13601 10.6824 7.21136C10.6629 7.46308 10.8107 7.71499 10.8812 7.85769C10.9642 8.0268 10.947 8.24745 10.9288 8.38252C10.8967 8.61136 10.9438 8.8549 11.0992 9.08392Z" fill="white"/>
<path fill-rule="evenodd" clip-rule="evenodd" d="M11.123 7.16127C11.1143 7.13225 11.1143 7.0528 11.1301 7.02118C11.1301 7.02118 11.4678 6.6956 11.7509 6.64071C11.9292 6.60369 12.0391 6.68257 12.0927 6.72629C12.0927 6.72629 11.9937 6.71494 11.8424 6.83736C11.6905 6.95885 11.5025 7.10527 11.362 7.14211C11.2207 7.17894 11.1914 7.16815 11.123 7.16127Z" fill="white"/>
<path fill-rule="evenodd" clip-rule="evenodd" d="M12.1216 6.75073C12.247 6.87631 12.355 7.0099 12.3522 7.12506C12.3505 7.2445 12.2103 7.54459 12.1375 7.65864C12.0642 7.7725 11.9564 7.92245 11.9686 8.10404C11.9754 8.19445 12.0393 8.28748 12.1145 8.36469C12.1145 8.36469 11.7016 8.26776 11.6506 8.01473C11.6067 7.7885 11.7044 7.63073 11.771 7.50552C11.8319 7.3872 12.0219 7.11315 12.0708 6.99892C12.1145 6.8951 12.1375 6.80878 12.1216 6.75073Z" fill="white"/>
<path fill-rule="evenodd" clip-rule="evenodd" d="M14.5312 9.59888C14.6128 9.88911 14.7534 10.1611 14.8918 10.3745C15.0161 10.5702 15.0951 10.8858 15.0834 10.9933C15.0834 10.9933 15.2696 10.5853 15.1755 10.2971C15.0999 10.0733 14.9002 9.73897 14.5312 9.59888Z" fill="white"/>
<path fill-rule="evenodd" clip-rule="evenodd" d="M14.9951 9.69385C14.9951 9.69385 15.2786 9.69961 15.4106 9.78575C15.5803 9.89682 15.7419 10.1404 15.8047 10.4321C15.8047 10.4321 15.5186 10.3828 15.378 10.2432C15.2359 10.103 15.0615 9.89366 14.9951 9.69385Z" fill="white"/>
<path fill-rule="evenodd" clip-rule="evenodd" d="M13.5311 10.2014C13.4767 10.2055 13.3314 10.2388 13.2607 10.26C13.2607 10.26 13.5013 10.3296 13.6221 10.4288C13.7252 10.5123 13.8137 10.6418 13.854 10.8608C13.9134 11.1664 14.0938 11.4952 14.1478 11.5943L14.1699 11.5903C14.1373 11.3798 14.2684 10.9434 14.304 10.8799C14.304 10.8799 14.112 10.7616 14.0239 10.6381C13.9592 10.5471 13.8461 10.3956 13.5311 10.2014Z" fill="white"/>
<path fill-rule="evenodd" clip-rule="evenodd" d="M14.7847 10.8577C14.8543 11.018 15.0418 11.3025 14.9542 11.5985C14.867 11.8954 14.6711 12.0227 14.5509 12.275C14.5509 12.275 14.4568 11.8201 14.4763 11.4703C14.4979 11.1192 14.6267 10.9844 14.7847 10.8577Z" fill="white"/>
<path fill-rule="evenodd" clip-rule="evenodd" d="M15.3282 10.8691C15.3282 10.8691 15.6096 11.4105 15.6606 11.6224C15.7096 11.8327 15.664 11.9728 15.5676 12.1011C15.4741 12.2277 15.3113 12.3653 15.1611 12.6327C15.1611 12.6327 14.9875 12.4048 14.9671 12.2859C14.947 12.167 14.9794 11.8825 15.0173 11.7642C15.0539 11.6433 15.2026 11.26 15.3282 10.8691Z" fill="white"/>
<path fill-rule="evenodd" clip-rule="evenodd" d="M15.4721 12.5969C15.411 12.6633 15.0821 13.0553 15.0381 13.1696C14.9936 13.2832 14.9177 13.4996 15.019 13.6507C15.1221 13.8014 15.3568 14.0401 15.5597 14.1419C15.5597 14.1419 15.3384 13.7977 15.3619 13.5158C15.3746 13.3352 15.516 13.1742 15.543 13.0641C15.5698 12.9551 15.5529 12.7692 15.4721 12.5969Z" fill="white"/>
<path fill-rule="evenodd" clip-rule="evenodd" d="M14.829 12.3809C14.8794 12.4504 14.9674 12.6192 14.9797 12.7833C14.9919 12.9451 14.9651 13.0754 14.8757 13.3128C14.7643 13.6123 14.5892 13.9457 14.508 14.0962C14.508 14.0962 14.3541 13.877 14.2686 13.6813C14.2686 13.6813 14.5097 13.3528 14.6134 13.1211C14.7319 12.848 14.7814 12.5957 14.829 12.3809Z" fill="white"/>
<path fill-rule="evenodd" clip-rule="evenodd" d="M14.7167 12.2542C14.7167 12.2542 14.6123 13.0251 14.1553 13.5967C13.8458 13.9838 13.5947 14.1189 13.428 14.1189C13.1773 14.1189 12.9248 13.9118 12.8412 13.6735C12.7557 13.4372 12.7838 13.0681 12.9462 12.9373C12.9462 12.9373 13.0956 13.3998 13.4175 13.4166C13.7815 13.4372 14.2487 13.0324 14.7167 12.2542Z" fill="white"/>
<path fill-rule="evenodd" clip-rule="evenodd" d="M14.3415 11.9324C14.3796 12.0699 14.3916 12.2812 14.3415 12.4807C14.3036 12.6327 14.211 12.8295 14.0321 12.9409C13.8776 13.0366 13.5118 13.0594 13.374 12.7179C13.374 12.7179 14.04 12.7677 14.3415 11.9324Z" fill="white"/>
<path fill-rule="evenodd" clip-rule="evenodd" d="M15.4309 15.0388C15.5215 15.2708 15.8462 15.5637 15.8455 15.7449C15.8404 16.2236 15.6282 16.5168 15.5787 16.6745C15.5787 16.6745 15.1919 16.3704 15.1229 16.0215C15.0876 15.8424 15.1287 15.3047 15.4309 15.0388Z" fill="white"/>
<path fill-rule="evenodd" clip-rule="evenodd" d="M14.9974 15.378C15.042 15.2533 15.1851 14.9144 15.3493 14.7964C15.3493 14.7964 15.5595 14.1823 14.8828 13.8035C14.8828 13.8035 14.6044 14.1694 14.5312 14.514C14.457 14.861 14.8251 15.0675 14.9974 15.378Z" fill="white"/>
<path fill-rule="evenodd" clip-rule="evenodd" d="M14.1512 13.8252C14.0424 13.9569 13.8883 14.1366 13.7692 14.1928C13.7692 14.1928 13.7287 14.4674 13.7507 14.6501C13.7868 14.9212 13.9607 15.1973 14.0362 15.3997C14.0362 15.3997 14.3323 15.0161 14.3662 14.7908C14.3998 14.5649 14.3957 14.3796 14.4067 14.2711C14.4067 14.2711 14.2417 14.0053 14.1512 13.8252Z" fill="white"/>
<path fill-rule="evenodd" clip-rule="evenodd" d="M13.3699 15.1431C13.2861 15.0155 13.0163 14.5513 13.0127 14.2129C13.0127 14.2129 13.3461 14.3889 13.6254 14.259C13.6254 14.259 13.6614 14.6998 13.6088 14.8482C13.5632 14.9692 13.5064 15.041 13.3699 15.1431Z" fill="white"/>
<path fill-rule="evenodd" clip-rule="evenodd" d="M13.4473 15.2367C13.5013 15.1895 13.6346 15.068 13.6903 15.0042C13.6903 15.0042 13.9113 15.4066 13.949 15.5243C13.949 15.5243 13.838 15.553 13.716 15.4652C13.595 15.3774 13.5669 15.3535 13.4473 15.2367Z" fill="white"/>
<path fill-rule="evenodd" clip-rule="evenodd" d="M14.4726 15.0005C14.4464 15.1023 14.0881 15.5955 14.0264 15.6561C14.0264 15.6561 14.0528 15.8347 14.1865 16.0924C14.3187 16.3482 14.5032 16.5289 14.6018 16.6197C14.6018 16.6197 14.824 16.2371 14.8894 16.0701C14.9626 15.8773 14.9545 15.6879 14.9234 15.6169C14.8476 15.4502 14.5885 15.2092 14.4726 15.0005Z" fill="white"/>
<path fill-rule="evenodd" clip-rule="evenodd" d="M15.0107 16.2922C15.0899 16.4504 15.3285 16.711 15.3657 16.9172C15.3955 17.0787 15.3694 17.2109 15.3248 17.3242C15.2798 17.4333 15.1375 17.6513 15.0419 17.8169C15.0419 17.8169 14.7145 17.5107 14.643 17.292C14.5883 17.1276 14.6089 16.8939 14.6871 16.7486C14.7651 16.602 14.9359 16.4437 15.0107 16.2922Z" fill="white"/>
<path fill-rule="evenodd" clip-rule="evenodd" d="M14.0859 16.2476C14.1697 16.4319 14.3724 16.6146 14.4187 16.775C14.4725 16.9651 14.4905 17.085 14.398 17.3065C14.3155 17.4997 14.2162 17.6135 14.1834 17.7318C14.1834 17.7318 13.9177 17.3903 13.8729 17.2485C13.8292 17.1067 13.8147 16.8732 13.8697 16.7257C13.9229 16.5757 14.0199 16.3837 14.0859 16.2476Z" fill="white"/>
<path fill-rule="evenodd" clip-rule="evenodd" d="M15.3937 17.5469C15.3937 17.5469 14.936 18.0946 14.9465 18.3848C14.9603 18.7461 15.2022 18.9876 15.236 19.2098C15.236 19.2098 15.475 18.9407 15.5673 18.7601C15.6697 18.5577 15.7471 18.3848 15.7222 18.1549C15.6931 17.9244 15.6323 17.7774 15.3937 17.5469Z" fill="white"/>
<path fill-rule="evenodd" clip-rule="evenodd" d="M14.5512 17.4929C14.6236 17.5977 14.827 17.956 14.7698 18.1677C14.7124 18.3822 14.4872 18.6823 14.4111 18.8099C14.4111 18.8099 14.2309 18.4425 14.1895 18.2732C14.1496 18.1059 14.1865 17.8302 14.5512 17.4929Z" fill="white"/>
<path fill-rule="evenodd" clip-rule="evenodd" d="M15.9498 7.03052C15.9809 6.82456 16.2215 6.38214 16.2215 6.1894C16.2215 6.0374 16.0977 5.91479 15.9455 5.91479C15.7912 5.91479 15.668 6.0374 15.668 6.1894C15.668 6.38214 15.9106 6.82456 15.9406 7.03052H15.9498Z" fill="white"/>
<path fill-rule="evenodd" clip-rule="evenodd" d="M16.7196 7.47394C16.9609 6.90538 17.1208 6.48454 17.1146 6.34426C17.1109 6.25961 17.0089 6.19636 16.9138 6.16715C16.8169 6.13719 16.7306 6.13143 16.6678 6.1798C16.5429 6.27524 16.4256 7.04361 16.3828 7.36287C16.5058 7.38557 16.5793 7.40119 16.7196 7.47394Z" fill="white"/>
<path fill-rule="evenodd" clip-rule="evenodd" d="M16.2805 7.35069C16.2196 7.34287 16.1568 7.34027 16.0947 7.33766C16.1332 7.03255 16.2385 6.52371 16.3014 6.32427C16.363 6.12334 16.4425 5.97915 16.5766 5.94287C16.5766 5.94287 16.4729 6.2225 16.4165 6.51069C16.3608 6.79999 16.3173 7.07552 16.2805 7.35069Z" fill="white"/>
<path fill-rule="evenodd" clip-rule="evenodd" d="M16.506 8.02613C16.506 8.02613 16.776 8.30762 17.043 8.36976C17.043 8.36976 16.9335 8.08734 16.506 8.02613ZM16.2842 7.8959C16.4336 7.87562 16.8109 7.91655 17.043 8.0812C17.2747 8.24474 17.3496 8.37962 17.4289 8.52567C17.4289 8.52567 17.0145 8.55767 16.6446 8.34427C16.4694 8.24157 16.3183 8.00548 16.2842 7.8959Z" fill="white"/>
<path fill-rule="evenodd" clip-rule="evenodd" d="M18.6443 9.24367C18.7408 9.18134 18.7958 9.07976 18.8194 8.94562C18.8194 8.94562 18.3898 8.96441 18.0244 8.91827V8.94785C18.0244 8.94785 18.6212 8.95083 18.6443 9.24367ZM18.4922 9.62785C18.5029 9.54953 18.499 9.41129 18.499 9.41129C18.2835 9.61185 17.8408 9.7525 17.8408 9.7525C17.8474 9.63511 17.8853 9.53297 17.8853 9.53297C17.6974 9.64404 17.5918 9.63194 17.5918 9.63194C17.6113 9.49334 17.7077 9.32925 17.7077 9.32925C17.5751 9.49334 17.4062 9.50376 17.4062 9.50376C17.383 9.42134 17.433 9.21725 17.433 9.21725C17.3678 9.29929 17.2455 9.51269 16.8604 9.59474C16.4749 9.67715 16.3037 9.46339 16.3037 9.46339C16.6789 9.48925 17.0291 9.1285 17.0291 9.1285C16.8343 9.05371 16.7683 8.91195 16.7683 8.91195C16.8818 8.8139 16.9963 8.8139 16.9963 8.8139C16.7766 8.71529 16.7312 8.54395 16.7312 8.54395C17.0065 8.67622 17.8534 8.68571 18.3141 8.70897C18.7738 8.73036 19.2319 8.56106 19.2319 8.56106C19.18 9.55883 18.4922 9.62785 18.4922 9.62785Z" fill="white"/>
<path fill-rule="evenodd" clip-rule="evenodd" d="M19.3401 8.6306C19.3232 8.8466 19.2668 9.05944 19.1914 9.21051C19.1914 9.21051 19.4627 9.00865 19.5276 8.83674C19.594 8.66651 19.611 8.54818 19.3401 8.6306Z" fill="white"/>
<path fill-rule="evenodd" clip-rule="evenodd" d="M19.9949 9.33905C19.9949 9.27672 19.943 9.22686 19.8813 9.22686C19.8198 9.22686 19.7684 9.27672 19.7684 9.33905C19.7684 9.40137 19.8198 9.45067 19.8813 9.45067C19.943 9.45067 19.9949 9.40137 19.9949 9.33905ZM19.8147 8.84639C19.9676 8.81011 20.2884 8.77365 20.4301 8.98146C20.5739 9.18798 20.5179 9.57942 20.2325 9.7383C20.2325 9.7383 19.7979 9.36807 19.2729 9.73625C19.2729 9.73625 19.1497 9.6583 18.875 9.59597C18.875 9.59597 19.0374 9.40137 19.2198 9.31932C19.3814 9.24602 19.7184 9.14909 19.8147 8.84639Z" fill="white"/>
<path fill-rule="evenodd" clip-rule="evenodd" d="M18.8161 9.66357C18.8161 9.66357 18.626 9.91734 18.4854 10.029C18.4854 10.029 19.1932 10.0223 19.3718 10.6306C19.3718 10.6306 19.6175 10.258 19.4377 10.015C19.2455 9.75344 19.0685 9.72125 18.8161 9.66357Z" fill="white"/>
<path fill-rule="evenodd" clip-rule="evenodd" d="M18.0395 9.81469C18.0395 9.81469 17.8105 9.88167 17.7344 9.90139C17.7344 9.90139 17.7303 9.77004 17.7381 9.70679C17.6686 9.72335 17.5836 9.74511 17.5094 9.75237C17.5094 9.75237 17.2805 10.258 17.1029 10.4621C17.1029 10.4621 17.092 10.5743 17.1914 10.7446C17.1914 10.7446 17.3208 10.4454 17.5518 10.2056C17.6836 10.0713 17.767 10.0026 18.0395 9.81469Z" fill="white"/>
<path fill-rule="evenodd" clip-rule="evenodd" d="M18.64 9.70679C18.5688 9.72651 18.2026 9.84018 18.0245 9.96688C17.8042 10.1237 17.6521 10.3047 17.6752 10.6158C17.6752 10.6158 17.8548 10.3691 18.0517 10.258C18.2092 10.1693 18.4923 9.92372 18.64 9.70679Z" fill="white"/>
<path fill-rule="evenodd" clip-rule="evenodd" d="M18.6359 7.41943C18.5689 7.41943 18.4375 7.45162 18.4375 7.5586C18.4375 7.66762 18.6076 7.92809 18.6526 8.04343H18.6567C18.7019 7.92809 18.8721 7.66762 18.8721 7.5586C18.8721 7.45162 18.7411 7.41943 18.673 7.41943H18.6359Z" fill="white"/>
<path fill-rule="evenodd" clip-rule="evenodd" d="M18.7852 8.25985C18.8163 8.10822 18.8752 7.71473 18.9706 7.62804C19.06 7.5445 19.192 7.53669 19.2584 7.54022C19.3257 7.5445 19.3953 7.61204 19.3653 7.69966C19.3396 7.79064 19.0456 8.22599 19.0064 8.28106C18.9389 8.26915 18.9526 8.2738 18.7852 8.25985Z" fill="white"/>
<path fill-rule="evenodd" clip-rule="evenodd" d="M18.5242 8.25985C18.4918 8.10822 18.432 7.71473 18.3377 7.62804C18.2477 7.5445 18.1149 7.53669 18.0495 7.54022C17.9841 7.5445 17.9136 7.61204 17.9421 7.69966C17.9685 7.79064 18.2608 8.22599 18.3009 8.28106C18.3686 8.26915 18.3551 8.2738 18.5242 8.25985Z" fill="white"/>
<path fill-rule="evenodd" clip-rule="evenodd" d="M18.3369 6.89086H18.5647V6.64062H18.7485V6.89086H18.978V7.04918H18.7485V7.34295H18.5647V7.04918H18.3369V6.89086Z" fill="white"/>
<path fill-rule="evenodd" clip-rule="evenodd" d="M15.623 5.40606H15.8507V5.15527H16.037V5.40606H16.266V5.56327H16.037V5.85872H15.8507V5.56327H15.623V5.40606Z" fill="white"/>
<path fill-rule="evenodd" clip-rule="evenodd" d="M21.1076 8.50951C21.1054 8.45965 21.1024 8.41184 21.0964 8.36403C21.08 8.24161 21.0772 8.13779 21.0902 8.05054C21.2554 8.11379 21.3664 8.15286 21.5936 8.51621C21.5936 8.51621 21.2321 8.29519 21.1076 8.50951Z" fill="white"/>
<path fill-rule="evenodd" clip-rule="evenodd" d="M20.7896 9.08392C20.7846 8.99406 20.7259 8.70904 20.6514 8.50978C20.5584 8.26215 20.6109 7.90494 20.7221 7.68783C20.8294 7.47871 20.8897 7.28187 20.8699 7.06494C20.8699 7.06494 21.0834 7.13601 21.2062 7.21136C21.2269 7.46308 21.0793 7.71499 21.0094 7.85769C20.925 8.0268 20.9417 8.24745 20.9606 8.38252C20.9931 8.61136 20.9434 8.8549 20.7896 9.08392Z" fill="white"/>
<path fill-rule="evenodd" clip-rule="evenodd" d="M20.7677 7.16127C20.7745 7.13225 20.7737 7.0528 20.7585 7.02118C20.7585 7.02118 20.4229 6.6956 20.1394 6.64071C19.9598 6.60369 19.8497 6.68257 19.7959 6.72629C19.7959 6.72629 19.8964 6.71494 20.0473 6.83736C20.1981 6.95885 20.3854 7.10527 20.5279 7.14211C20.6693 7.17894 20.7004 7.16815 20.7677 7.16127Z" fill="white"/>
<path fill-rule="evenodd" clip-rule="evenodd" d="M19.7684 6.75073C19.6424 6.87631 19.5359 7.0099 19.5381 7.12506C19.5398 7.2445 19.6795 7.54459 19.7528 7.65864C19.8267 7.7725 19.9337 7.92245 19.9202 8.10404C19.9144 8.19445 19.8505 8.28748 19.7766 8.36469C19.7766 8.36469 20.1887 8.26776 20.2381 8.01473C20.2836 7.7885 20.1872 7.63073 20.1201 7.50552C20.0586 7.3872 19.8677 7.11315 19.8201 6.99892C19.7766 6.8951 19.7528 6.80878 19.7684 6.75073Z" fill="white"/>
<path fill-rule="evenodd" clip-rule="evenodd" d="M17.3595 9.59888C17.2759 9.88911 17.1366 10.1611 16.9986 10.3745C16.8732 10.5702 16.7942 10.8858 16.8087 10.9933C16.8087 10.9933 16.621 10.5853 16.7166 10.2971C16.7894 10.0733 16.989 9.73897 17.3595 9.59888Z" fill="white"/>
<path fill-rule="evenodd" clip-rule="evenodd" d="M16.8932 9.69385C16.8932 9.69385 16.6114 9.69961 16.4796 9.78575C16.3086 9.89682 16.1457 10.1404 16.084 10.4321C16.084 10.4321 16.3703 10.3828 16.512 10.2432C16.654 10.103 16.8272 9.89366 16.8932 9.69385Z" fill="white"/>
<path fill-rule="evenodd" clip-rule="evenodd" d="M18.3587 10.2014C18.4136 10.2055 18.5578 10.2388 18.6285 10.26C18.6285 10.26 18.3873 10.3296 18.2679 10.4288C18.1653 10.5123 18.0746 10.6418 18.0347 10.8608C17.9769 11.1664 17.795 11.4952 17.7405 11.5943L17.7204 11.5903C17.7536 11.3798 17.6209 10.9434 17.5869 10.8799C17.5869 10.8799 17.7784 10.7616 17.8652 10.6381C17.9287 10.5471 18.044 10.3956 18.3587 10.2014Z" fill="white"/>
<path fill-rule="evenodd" clip-rule="evenodd" d="M17.1045 10.8577C17.0359 11.018 16.8482 11.3025 16.9343 11.5985C17.0226 11.8954 17.2189 12.0227 17.338 12.275C17.338 12.275 17.4338 11.8201 17.4126 11.4703C17.3912 11.1192 17.2635 10.9844 17.1045 10.8577Z" fill="white"/>
<path fill-rule="evenodd" clip-rule="evenodd" d="M15.9482 11.6879C15.9615 11.514 16.3665 11.0955 16.3462 10.8693C16.3252 10.642 16.0217 10.4825 15.9465 10.4492H15.9425C15.8687 10.4825 15.5645 10.642 15.5428 10.8693C15.5216 11.0955 15.9277 11.514 15.9399 11.6879H15.9482Z" fill="white"/>
<path fill-rule="evenodd" clip-rule="evenodd" d="M16.5616 10.8691C16.5616 10.8691 16.2801 11.4105 16.2291 11.6224C16.1794 11.8327 16.2259 11.9728 16.3218 12.1011C16.4164 12.2277 16.5777 12.3653 16.7294 12.6327C16.7294 12.6327 16.9019 12.4048 16.9238 12.2859C16.9446 12.167 16.9105 11.8825 16.8728 11.7642C16.8359 11.6433 16.6861 11.26 16.5616 10.8691Z" fill="white"/>
<path fill-rule="evenodd" clip-rule="evenodd" d="M15.9485 12.9629C16.0764 12.853 16.1911 12.6894 16.2281 12.5923C16.2629 12.4957 16.2723 12.3545 16.1868 12.2459C16.0846 12.1168 15.9566 11.9715 15.9485 11.8535H15.9419C15.9324 11.9715 15.8056 12.1168 15.7032 12.2459C15.6174 12.3545 15.6266 12.4957 15.6642 12.5923C15.6991 12.6894 15.8144 12.853 15.9432 12.9629H15.9485Z" fill="white"/>
<path fill-rule="evenodd" clip-rule="evenodd" d="M16.4182 12.5969C16.4799 12.6633 16.8085 13.0553 16.8526 13.1696C16.8972 13.2832 16.9724 13.4996 16.8708 13.6507C16.7682 13.8014 16.5346 14.0401 16.3291 14.1419C16.3291 14.1419 16.5513 13.7977 16.5288 13.5158C16.514 13.3352 16.3732 13.1742 16.3465 13.0641C16.3209 12.9551 16.3387 12.7692 16.4182 12.5969Z" fill="white"/>
<path fill-rule="evenodd" clip-rule="evenodd" d="M17.0608 12.3809C17.01 12.4504 16.923 12.6192 16.9093 12.7833C16.899 12.9451 16.9253 13.0754 17.0149 13.3128C17.1278 13.6123 17.3012 13.9457 17.3811 14.0962C17.3811 14.0962 17.536 13.877 17.6213 13.6813C17.6213 13.6813 17.3809 13.3528 17.2772 13.1211C17.1578 12.848 17.1094 12.5957 17.0608 12.3809Z" fill="white"/>
<path fill-rule="evenodd" clip-rule="evenodd" d="M17.1738 12.2542C17.1738 12.2542 17.2775 13.0251 17.7345 13.5967C18.0433 13.9838 18.2953 14.1189 18.4612 14.1189C18.7119 14.1189 18.9648 13.9118 19.0496 13.6735C19.1326 13.4372 19.1066 13.0681 18.9444 12.9373C18.9444 12.9373 18.794 13.3998 18.4723 13.4166C18.1098 13.4372 17.6418 13.0324 17.1738 12.2542Z" fill="white"/>
<path fill-rule="evenodd" clip-rule="evenodd" d="M17.5476 11.9324C17.5094 12.0699 17.4983 12.2812 17.5476 12.4807C17.5861 12.6327 17.6796 12.8295 17.8583 12.9409C18.0126 13.0366 18.3756 13.0594 18.5155 12.7179C18.5155 12.7179 17.8504 12.7677 17.5476 11.9324Z" fill="white"/>
<path fill-rule="evenodd" clip-rule="evenodd" d="M15.9449 14.2202C16.039 14.175 16.1183 14.1418 16.2277 13.9781C16.3107 13.8496 16.3912 13.6116 16.3465 13.4419C16.2897 13.2326 16.1765 13.1491 16.1073 13.0183C16.0514 13.0702 16.0167 13.1108 15.9481 13.1497H15.9449C15.8752 13.1108 15.8399 13.0702 15.7827 13.0183C15.7126 13.1491 15.6008 13.2326 15.5429 13.4419C15.4987 13.6116 15.5783 13.8496 15.6623 13.9781C15.7703 14.1418 15.8506 14.175 15.9449 14.2202Z" fill="white"/>
<path fill-rule="evenodd" clip-rule="evenodd" d="M15.9447 15.5202C15.9899 15.3152 16.4214 14.9212 16.3807 14.7057C16.3216 14.3844 16.1127 14.4523 15.9479 14.3169H15.9447C15.7782 14.4523 15.5673 14.3844 15.5073 14.7057C15.469 14.9212 15.8975 15.3152 15.9425 15.5202H15.9447Z" fill="white"/>
<path fill-rule="evenodd" clip-rule="evenodd" d="M16.4595 15.0388C16.3684 15.2708 16.0423 15.5637 16.0449 15.7449C16.0509 16.2236 16.2609 16.5168 16.3116 16.6745C16.3116 16.6745 16.6984 16.3704 16.7661 16.0215C16.8024 15.8424 16.761 15.3047 16.4595 15.0388Z" fill="white"/>
<path fill-rule="evenodd" clip-rule="evenodd" d="M16.8911 15.378C16.8471 15.2533 16.7049 14.9144 16.5398 14.7964C16.5398 14.7964 16.3292 14.1823 17.0063 13.8035C17.0063 13.8035 17.2847 14.1694 17.3593 14.514C17.433 14.861 17.0638 15.0675 16.8911 15.378Z" fill="white"/>
<path fill-rule="evenodd" clip-rule="evenodd" d="M17.7403 13.8252C17.8479 13.9569 18.0004 14.1366 18.1211 14.1928C18.1211 14.1928 18.1603 14.4674 18.1391 14.6501C18.1031 14.9212 17.9284 15.1973 17.8545 15.3997C17.8545 15.3997 17.5577 15.0161 17.5222 14.7908C17.4876 14.5649 17.4953 14.3796 17.4844 14.2711C17.4844 14.2711 17.6477 14.0053 17.7403 13.8252Z" fill="white"/>
<path fill-rule="evenodd" clip-rule="evenodd" d="M18.5191 15.1431C18.6035 15.0155 18.8754 14.5513 18.8786 14.2129C18.8786 14.2129 18.5446 14.3889 18.2645 14.259C18.2645 14.259 18.2285 14.6998 18.2834 14.8482C18.3264 14.9692 18.3841 15.041 18.5191 15.1431Z" fill="white"/>
<path fill-rule="evenodd" clip-rule="evenodd" d="M18.4424 15.2367C18.3879 15.1895 18.2546 15.068 18.2017 15.0042C18.2017 15.0042 17.9786 15.4066 17.9424 15.5243C17.9424 15.5243 18.0517 15.553 18.1736 15.4652C18.2953 15.3774 18.3219 15.3535 18.4424 15.2367Z" fill="white"/>
<path fill-rule="evenodd" clip-rule="evenodd" d="M17.4168 15.0005C17.4438 15.1023 17.8017 15.5955 17.863 15.6561C17.863 15.6561 17.8347 15.8347 17.7021 16.0924C17.5707 16.3482 17.3869 16.5289 17.2874 16.6197C17.2874 16.6197 17.0667 16.2371 17.0007 16.0701C16.9257 15.8773 16.9349 15.6879 16.9683 15.6169C17.0416 15.4502 17.3016 15.2092 17.4168 15.0005Z" fill="white"/>
<path fill-rule="evenodd" clip-rule="evenodd" d="M15.9479 17.9212C15.9819 17.7862 16.189 17.6252 16.2738 17.3901C16.3254 17.2515 16.3233 17.0894 16.2685 16.9783C16.2029 16.8487 15.9712 16.5315 15.9447 16.4407C15.9157 16.5315 15.6869 16.8487 15.6204 16.9783C15.5647 17.0894 15.5632 17.2515 15.6138 17.3901C15.7006 17.6252 15.9072 17.7862 15.9414 17.9212H15.9479Z" fill="white"/>
<path fill-rule="evenodd" clip-rule="evenodd" d="M16.8777 16.2922C16.7997 16.4504 16.5612 16.711 16.5233 16.9172C16.4935 17.0787 16.5208 17.2109 16.563 17.3242C16.608 17.4333 16.7532 17.6513 16.8473 17.8169C16.8473 17.8169 17.1739 17.5107 17.2459 17.292C17.3008 17.1276 17.2798 16.8939 17.2007 16.7486C17.1227 16.602 16.9528 16.4437 16.8777 16.2922Z" fill="white"/>
<path fill-rule="evenodd" clip-rule="evenodd" d="M17.8049 16.2476C17.7203 16.4319 17.5167 16.6146 17.471 16.775C17.416 16.9651 17.3988 17.085 17.4908 17.3065C17.5745 17.4997 17.6716 17.6135 17.7065 17.7318C17.7065 17.7318 17.9716 17.3903 18.0145 17.2485C18.0614 17.1067 18.0732 16.8732 18.0207 16.7257C17.9652 16.5757 17.8696 16.3837 17.8049 16.2476Z" fill="white"/>
<path fill-rule="evenodd" clip-rule="evenodd" d="M15.9452 20.5388C15.9621 20.3722 16.3097 19.8556 16.3257 19.3084C16.3341 19.0338 16.0889 18.6059 15.9484 18.4424H15.9405C15.8018 18.6059 15.5556 19.0338 15.5637 19.3084C15.5807 19.8556 15.9272 20.3722 15.9452 20.5388Z" fill="white"/>
<path fill-rule="evenodd" clip-rule="evenodd" d="M16.4978 17.5469C16.4978 17.5469 16.9545 18.0946 16.9442 18.3848C16.9311 18.7461 16.6864 18.9876 16.6543 19.2098C16.6543 19.2098 16.4142 18.9407 16.3232 18.7601C16.2205 18.5577 16.1421 18.3848 16.1712 18.1549C16.1968 17.9244 16.2567 17.7774 16.4978 17.5469Z" fill="white"/>
<path fill-rule="evenodd" clip-rule="evenodd" d="M17.3386 17.4929C17.2653 17.5977 17.0634 17.956 17.1204 18.1677C17.1798 18.3822 17.4039 18.6823 17.4785 18.8099C17.4785 18.8099 17.6585 18.4425 17.7001 18.2732C17.7408 18.1059 17.7022 17.8302 17.3386 17.4929Z" fill="white"/>
<path fill-rule="evenodd" clip-rule="evenodd" d="M16.256 21.4172C16.2841 20.9921 16.5282 20.7367 16.5704 20.5158C16.6184 20.2721 16.6019 20.0388 16.412 19.7581C16.256 20.282 16.0882 20.6654 15.9547 20.927C15.9502 20.9333 15.9475 20.9417 15.9445 20.9493C15.941 20.9417 15.9391 20.9333 15.9337 20.927C15.8011 20.6654 15.6323 20.282 15.478 19.7581C15.2875 20.0388 15.271 20.2721 15.3181 20.5158C15.3616 20.7367 15.6046 20.9921 15.6323 21.4172C15.659 21.844 15.1758 22.0059 15.1758 22.0059C15.3382 22.0647 15.5243 22.0911 15.8195 21.8133C15.8735 21.7635 15.9136 21.7078 15.9445 21.6492C15.9757 21.7078 16.0163 21.7635 16.07 21.8133C16.3634 22.0911 16.5507 22.0647 16.7137 22.0059C16.7137 22.0059 16.2297 21.844 16.256 21.4172Z" fill="white"/>
<path fill-rule="evenodd" clip-rule="evenodd" d="M14.7362 18.5852C14.7861 18.7446 14.9365 19.0393 14.9564 19.1292C14.9925 19.298 14.9434 19.5026 14.6331 19.7195C14.6331 19.7195 14.4325 19.5794 14.3526 19.3971C14.2789 19.2248 14.3217 19.1028 14.3985 19.0152C14.4765 18.9262 14.6592 18.7192 14.7362 18.5852Z" fill="white"/>
<path fill-rule="evenodd" clip-rule="evenodd" d="M15.3876 19.2161C15.3876 19.3016 15.3237 19.7835 15.1864 20.0239C14.9922 20.3597 14.7066 20.6084 14.4572 20.6084C14.2268 20.6084 14.1771 20.4713 14.0635 20.417C14.0635 20.417 14.1214 20.1245 14.3813 20.0488C14.7006 19.9532 15.1892 19.5736 15.3876 19.2161Z" fill="white"/>
<path fill-rule="evenodd" clip-rule="evenodd" d="M14.5547 19.8301C14.5014 19.789 14.4543 19.762 14.391 19.6877C14.391 19.6877 14.1452 19.7776 13.9425 19.913C13.7392 20.0487 13.5405 20.2796 13.4336 20.3992C13.4336 20.3992 13.737 20.477 13.9297 20.3897C13.9297 20.3897 13.9991 20.1021 14.2158 19.973C14.2638 19.9452 14.415 19.9006 14.5547 19.8301Z" fill="white"/>
<path fill-rule="evenodd" clip-rule="evenodd" d="M14.3038 19.584C14.255 19.5112 14.1588 19.3775 14.1796 19.1672C14.1796 19.1672 13.7521 19.4372 13.6271 19.5373C13.4977 19.642 13.2303 19.9148 13.1709 20.0046C13.1709 20.0046 13.4947 19.9339 13.7426 19.851C14.0141 19.762 14.2018 19.642 14.3038 19.584Z" fill="white"/>
<path fill-rule="evenodd" clip-rule="evenodd" d="M13.5797 20.041C13.3507 20.124 12.8325 20.2057 12.6172 20.2695C12.4005 20.3337 12.2435 20.4438 12.0371 20.6671C12.0371 20.6671 12.3544 20.756 12.5244 20.8083C12.5244 20.8083 12.794 20.6265 13.089 20.5139C13.2821 20.4403 13.3757 20.2408 13.5797 20.041Z" fill="white"/>
<path fill-rule="evenodd" clip-rule="evenodd" d="M13.0988 21.5559C13.1485 21.5008 13.2111 21.4385 13.163 21.3114C13.1296 21.2169 12.9421 21.1157 12.8305 21.0621C12.6451 20.9739 12.1306 20.8368 11.9618 20.7881C11.9618 20.7881 11.8778 20.8846 11.8345 20.9873C11.8148 21.0268 11.8405 21.0679 11.9133 21.0807C12.0567 21.1053 12.4008 21.0413 12.4857 21.0954C12.5748 21.154 12.5423 21.232 12.5423 21.3114C12.5423 21.3114 12.7 21.2147 12.7986 21.2366C12.9372 21.2655 13.0203 21.3306 13.0988 21.5559Z" fill="white"/>
<path fill-rule="evenodd" clip-rule="evenodd" d="M12.6406 20.845C12.6776 20.8575 12.8787 20.9178 13.0743 21.0407C13.0743 21.0407 13.1604 21.0074 13.2039 20.9285C13.2453 20.8528 13.4204 20.5948 13.5834 20.56C13.5834 20.56 13.4452 20.547 13.3655 20.5222C13.3655 20.5222 13.1992 20.5646 13.0807 20.613C12.9622 20.6608 12.815 20.7334 12.6406 20.845Z" fill="white"/>
<path fill-rule="evenodd" clip-rule="evenodd" d="M13.9675 20.519C13.9371 20.5336 13.8839 20.5592 13.7631 20.5643C13.7631 20.5643 13.3115 20.8748 13.2584 21.1862C13.2143 21.4506 13.3548 21.5782 13.4223 21.611C13.4903 21.6457 13.807 21.7745 14.012 21.3538C14.012 21.3538 13.6617 21.4677 13.5665 21.3016C13.472 21.1334 13.627 20.8904 13.7221 20.8208C13.8458 20.7272 14.0712 20.6655 14.2062 20.6889C14.2062 20.6889 14.0971 20.5851 13.9675 20.519Z" fill="white"/>
<path fill-rule="evenodd" clip-rule="evenodd" d="M11.0062 24.0808C11.0609 23.8518 11.1224 23.6125 11.2274 23.3919C11.4318 22.9621 11.9328 21.8194 12.9776 21.617C13.0764 21.5987 12.8647 21.3567 12.7721 21.3699C12.6776 21.3801 12.4914 21.5007 12.4094 21.5558C12.4094 21.5558 12.4094 21.3111 12.4066 21.267C12.404 21.2214 12.3648 21.2079 12.3241 21.2088C12.2836 21.2093 12.0316 21.2079 11.9508 21.2983C11.7133 21.5723 11.3107 22.3079 11.0831 22.8557C10.8551 23.4028 10.7002 23.5721 10.4594 23.4875C10.2191 23.4028 10.0749 23.1293 9.65676 23.2123C9.51107 23.2423 9.34945 23.3385 9.22363 23.4812C9.25851 23.5481 9.30332 23.6296 9.49982 23.6296C9.6952 23.6296 10.0683 23.7107 10.2772 23.856C10.4868 24.0008 10.7058 24.048 11.0062 24.0808Z" fill="white"/>
<path fill-rule="evenodd" clip-rule="evenodd" d="M15.1774 20.5369C15.2014 20.7144 15.2875 20.8799 15.3831 21.0518C15.3831 21.0518 15.0642 22.508 13.9154 22.6211C13.9154 22.6211 13.9377 22.3196 14.2782 22.089C14.6189 21.8595 15.1277 21.5019 15.0912 20.9609C15.0912 20.9609 15.0006 20.9791 14.8367 21.1826C14.6738 21.3852 14.3153 21.9713 13.7588 21.9757C13.7588 21.9757 13.842 21.7013 14.0879 21.5428C14.3339 21.3852 14.6462 21.1826 14.7876 20.938C14.9297 20.6946 15.0788 20.5819 15.1774 20.5369Z" fill="white"/>
<path fill-rule="evenodd" clip-rule="evenodd" d="M14.6357 25.8429L15.3357 26.8154L15.8665 25.8792L15.6786 25.5454C15.5401 25.791 15.3916 26.0567 15.3074 26.2023C15.2416 26.1129 15.0647 25.8669 14.8332 25.5454L14.6357 25.8429Z" fill="white"/>
<path fill-rule="evenodd" clip-rule="evenodd" d="M14.457 25.0189C13.7736 24.0715 12.9311 22.8983 12.8456 22.7794L13.11 22.5904L12.2764 22.2732L12.2908 23.1761L12.573 22.974L14.2582 25.3178L14.457 25.0189Z" fill="white"/>
<path fill-rule="evenodd" clip-rule="evenodd" d="M8.7005 19.6941C8.906 19.4714 9.25437 19.6645 9.60649 19.9863C9.96106 20.3084 10.1819 20.6379 9.97756 20.8602C9.78574 21.0667 9.42293 20.8903 9.06762 20.5694C8.71456 20.247 8.49237 19.9168 8.7005 19.6941Z" fill="white"/>
<path fill-rule="evenodd" clip-rule="evenodd" d="M9.26894 23.6542C9.25582 23.6443 9.24588 23.6359 9.23557 23.6262C9.04807 23.4638 8.94138 23.2125 8.94138 22.9382C8.94138 22.4119 9.37207 21.9827 9.9042 21.9827C10.4352 21.9827 10.8649 22.4119 10.8649 22.9382C10.8649 23.0095 10.8513 23.1262 10.8513 23.1262C10.8953 23.0449 11.0532 22.6798 11.0853 22.6123C10.9416 22.0999 10.4652 21.7224 9.9042 21.7224C9.4197 21.7224 9.00026 22.0017 8.80095 22.4067C8.87613 21.9245 9.11819 21.4914 9.28901 21.331C9.49413 21.1399 9.84213 21.0782 9.84213 21.0782C9.61376 21.1156 9.31226 20.9755 8.97569 20.667C8.65563 20.3773 8.49213 20.1226 8.48201 19.9102C8.50151 20.2101 8.49213 20.3784 8.40607 20.6223C8.29019 20.9546 7.97294 21.5688 8.08676 22.262C8.14844 22.6424 8.42651 23.2088 8.89207 23.6715C8.99069 23.7751 9.02726 23.9289 9.03944 24.0082C9.03944 24.0082 9.72419 24.0082 9.88676 24.0238C9.88676 24.0238 10.0501 24.0082 10.0476 23.9081C10.0458 23.8073 9.95501 23.7816 9.87326 23.7816C9.79207 23.7816 9.45157 23.7898 9.26894 23.6542Z" fill="white"/>
<path fill-rule="evenodd" clip-rule="evenodd" d="M13.0613 23.8857C12.6199 24.0426 12.18 24.1282 11.763 24.1916C11.4902 24.232 11.2262 24.247 10.9706 24.234C10.9746 24.2757 10.9746 24.3311 10.9502 24.3715C10.9502 24.3715 11.0018 24.4314 11.0018 24.4973C11.2598 24.5066 11.5286 24.4921 11.8029 24.4495C12.2601 24.3799 12.7389 24.2891 13.2216 24.1073L13.0613 23.8857Z" fill="white"/>
<path fill-rule="evenodd" clip-rule="evenodd" d="M13.7822 23.852C14.368 23.5359 14.9383 23.0458 15.4534 22.2644L15.5455 22.1113C15.4046 22.1737 15.2252 22.1288 15.2252 22.1288C15.2145 22.1426 15.1924 22.1777 15.1815 22.1984C14.7015 22.9015 14.1696 23.3443 13.627 23.6339L13.7822 23.852Z" fill="white"/>
<path fill-rule="evenodd" clip-rule="evenodd" d="M9.92657 24.1012C9.84613 24.0882 9.58907 24.0954 9.43532 24.1177C9.26638 24.1447 9.07476 24.178 9.05413 24.2709C9.03557 24.3587 9.09632 24.4515 9.18163 24.5845C9.23395 24.6664 9.35995 24.6191 9.42951 24.5933C9.49851 24.5683 9.89451 24.3576 9.95713 24.2891C10.0214 24.2195 10.0481 24.1213 9.92657 24.1012Z" fill="white"/>
<path fill-rule="evenodd" clip-rule="evenodd" d="M10.3293 24.3601C10.2871 24.3336 10.184 24.2936 10.0767 24.3342C9.96908 24.3736 9.57926 24.6015 9.55414 24.71C9.52676 24.8164 9.58133 24.8689 9.64151 24.8933C9.70151 24.9171 9.77445 24.94 9.82901 24.9457C9.92651 24.9532 10.0212 24.897 10.0718 24.8363C10.1213 24.7749 10.3043 24.5565 10.3293 24.5065C10.3555 24.4583 10.3696 24.3872 10.3293 24.3601Z" fill="white"/>
<path fill-rule="evenodd" clip-rule="evenodd" d="M10.3773 24.6001C10.3199 24.6633 10.1628 24.8523 10.144 24.884C10.1264 24.915 10.154 24.9645 10.2033 24.9582C10.2518 24.9532 10.5213 24.926 10.6756 24.8222C10.8293 24.7173 10.9323 24.5148 10.8258 24.4427C10.7198 24.3695 10.5545 24.4038 10.3773 24.6001Z" fill="white"/>
<path fill-rule="evenodd" clip-rule="evenodd" d="M10.4635 24.0197C10.412 24.0081 10.2085 23.9579 10.1658 24.0238C10.1097 24.1064 10.1489 24.1951 10.3068 24.271C10.4635 24.3447 10.7603 24.4048 10.8205 24.325C10.8772 24.2424 10.7967 24.1064 10.4635 24.0197Z" fill="white"/>
<path fill-rule="evenodd" clip-rule="evenodd" d="M17.1538 18.5852C17.103 18.7446 16.953 19.0393 16.9328 19.1292C16.8975 19.298 16.9453 19.5026 17.2562 19.7195C17.2562 19.7195 17.4564 19.5794 17.5363 19.3971C17.6115 19.2248 17.5688 19.1028 17.4908 19.0152C17.4131 18.9262 17.2318 18.7192 17.1538 18.5852Z" fill="white"/>
<path fill-rule="evenodd" clip-rule="evenodd" d="M16.5 19.2161C16.5 19.3016 16.5636 19.7835 16.7031 20.0239C16.8971 20.3597 17.1816 20.6084 17.4311 20.6084C17.6629 20.6084 17.7126 20.4713 17.8251 20.417C17.8251 20.417 17.7669 20.1245 17.5063 20.0488C17.1889 19.9532 16.6991 19.5736 16.5 19.2161Z" fill="white"/>
<path fill-rule="evenodd" clip-rule="evenodd" d="M17.335 19.8301C17.3886 19.789 17.4332 19.762 17.4973 19.6877C17.4973 19.6877 17.7452 19.7776 17.9479 19.913C18.1493 20.0487 18.3467 20.2796 18.4562 20.3992C18.4562 20.3992 18.1521 20.477 17.9593 20.3897C17.9593 20.3897 17.8892 20.1021 17.6725 19.973C17.6261 19.9452 17.4748 19.9006 17.335 19.8301Z" fill="white"/>
<path fill-rule="evenodd" clip-rule="evenodd" d="M17.5859 19.584C17.6336 19.5112 17.7301 19.3775 17.7078 19.1672C17.7078 19.1672 18.1346 19.4372 18.2626 19.5373C18.3916 19.642 18.6583 19.9148 18.7181 20.0046C18.7181 20.0046 18.3943 19.9339 18.146 19.851C17.8747 19.762 17.6872 19.642 17.5859 19.584Z" fill="white"/>
<path fill-rule="evenodd" clip-rule="evenodd" d="M18.3086 20.041C18.5388 20.124 19.0533 20.2057 19.2712 20.2695C19.4878 20.3337 19.6457 20.4438 19.8519 20.6671C19.8519 20.6671 19.5328 20.756 19.365 20.8083C19.365 20.8083 19.0952 20.6265 18.7982 20.5139C18.6067 20.4403 18.5118 20.2408 18.3086 20.041Z" fill="white"/>
<path fill-rule="evenodd" clip-rule="evenodd" d="M18.7895 21.5559C18.7402 21.5008 18.678 21.4385 18.7243 21.3114C18.7586 21.2169 18.947 21.1157 19.0597 21.0621C19.2455 20.9739 19.7598 20.8368 19.9269 20.7881C19.9269 20.7881 20.0103 20.8846 20.0552 20.9873C20.0741 21.0268 20.0469 21.0679 19.9764 21.0807C19.832 21.1053 19.488 21.0413 19.403 21.0954C19.3134 21.154 19.3451 21.232 19.3451 21.3114C19.3451 21.3114 19.1895 21.2147 19.088 21.2366C18.9525 21.2655 18.8672 21.3306 18.7895 21.5559Z" fill="white"/>
<path fill-rule="evenodd" clip-rule="evenodd" d="M19.2477 20.845C19.2098 20.8575 19.0099 20.9178 18.8144 21.0407C18.8144 21.0407 18.7277 21.0074 18.6848 20.9285C18.6439 20.8528 18.4675 20.5948 18.3057 20.56C18.3057 20.56 18.4433 20.547 18.5215 20.5222C18.5215 20.5222 18.6891 20.5646 18.8093 20.613C18.9276 20.6608 19.0754 20.7334 19.2477 20.845Z" fill="white"/>
<path fill-rule="evenodd" clip-rule="evenodd" d="M17.92 20.519C17.9513 20.5336 18.0041 20.5592 18.1238 20.5643C18.1238 20.5643 18.5771 20.8748 18.6293 21.1862C18.6765 21.4506 18.535 21.5782 18.4661 21.611C18.3973 21.6457 18.0821 21.7745 17.8772 21.3538C17.8772 21.3538 18.2265 21.4677 18.3221 21.3016C18.4168 21.1334 18.2629 20.8904 18.1678 20.8208C18.0431 20.7272 17.8187 20.6655 17.6816 20.6889C17.6816 20.6889 17.7904 20.5851 17.92 20.519Z" fill="white"/>
<path fill-rule="evenodd" clip-rule="evenodd" d="M20.8825 24.0808C20.8275 23.8518 20.7675 23.6125 20.6616 23.3919C20.4582 22.9621 19.957 21.8194 18.91 21.617C18.8125 21.5987 19.0225 21.3567 19.1187 21.3699C19.212 21.3801 19.3982 21.5007 19.4811 21.5558C19.4811 21.5558 19.4811 21.3111 19.4832 21.267C19.4858 21.2214 19.5242 21.2079 19.5636 21.2088C19.6047 21.2093 19.857 21.2079 19.9365 21.2983C20.1762 21.5723 20.5778 22.3079 20.8062 22.8557C21.0344 23.4028 21.1898 23.5721 21.429 23.4875C21.67 23.4028 21.8157 23.1293 22.2329 23.2123C22.3787 23.2423 22.539 23.3385 22.6673 23.4812C22.6307 23.5481 22.5854 23.6296 22.3909 23.6296C22.1931 23.6296 21.8196 23.7107 21.6122 23.856C21.4022 24.0008 21.1838 24.048 20.8825 24.0808Z" fill="white"/>
<path fill-rule="evenodd" clip-rule="evenodd" d="M16.7087 20.5369C16.6872 20.7144 16.6002 20.8799 16.5059 21.0518C16.5059 21.0518 16.8239 22.508 17.9749 22.6211C17.9749 22.6211 17.9505 22.3196 17.6108 22.089C17.2688 21.8595 16.7599 21.5019 16.7965 20.9609C16.7965 20.9609 16.8872 20.9791 17.0502 21.1826C17.2157 21.3852 17.5744 21.9713 18.1285 21.9757C18.1285 21.9757 18.0469 21.7013 17.8007 21.5428C17.5549 21.3852 17.2414 21.1826 17.0999 20.938C16.9596 20.6946 16.8107 20.5819 16.7087 20.5369Z" fill="white"/>
<path fill-rule="evenodd" clip-rule="evenodd" d="M15.9468 21.9495C16.0147 22.1426 16.4488 22.753 16.6389 22.9264C16.8309 23.1003 17.2944 23.5614 17.5427 23.7913C17.5427 23.7913 16.836 23.6176 16.4383 23.2598C16.4383 23.2598 16.1557 23.4228 15.9495 23.4228H15.9395C15.7327 23.4228 15.4498 23.2598 15.4498 23.2598C15.053 23.6176 14.3477 23.7913 14.3477 23.7913C14.5946 23.5614 15.0585 23.1003 15.249 22.9264C15.4408 22.753 15.8763 22.1426 15.9429 21.9495H15.9468Z" fill="white"/>
<path fill-rule="evenodd" clip-rule="evenodd" d="M15.9482 23.5661C16.1042 23.5661 16.2519 23.5049 16.3359 23.469C16.2519 23.6435 16.0952 23.9144 15.9446 24.026H15.9425C15.7918 23.9144 15.6349 23.6435 15.5527 23.469C15.6349 23.5049 15.7824 23.5661 15.9392 23.5661H15.9482Z" fill="white"/>
<path fill-rule="evenodd" clip-rule="evenodd" d="M16.5536 26.8154L19.316 22.9743L19.5969 23.1761L19.614 22.2734L18.777 22.5906L19.0426 22.7797C18.9073 22.9679 16.8418 25.8405 16.5817 26.2024L15.3307 23.9527L15.1762 24.1869L14.0628 25.8567L13.784 25.6718L13.7803 26.5594L14.6257 26.2273L14.342 26.0409C14.4956 25.8104 15.1001 24.906 15.3015 24.6018L16.5536 26.8154Z" fill="white"/>
<path fill-rule="evenodd" clip-rule="evenodd" d="M17.057 25.3067C16.8706 25.0278 16.6833 24.7459 16.5875 24.6016C16.5179 24.7312 16.3758 24.9843 16.2172 25.2645L16.0195 24.9138L16.5571 23.9526L16.7133 24.1867L17.266 25.0163L17.057 25.3067Z" fill="white"/>
<path fill-rule="evenodd" clip-rule="evenodd" d="M17.628 25.5564L17.8265 25.8565L18.1046 25.6716L18.1095 26.5594L17.2637 26.2271L17.546 26.0409C17.517 25.9966 17.4742 25.9281 17.418 25.8461L17.628 25.5564Z" fill="white"/>
<path fill-rule="evenodd" clip-rule="evenodd" d="M23.1885 19.6941C22.9823 19.4714 22.6339 19.6645 22.2795 19.9863C21.9272 20.3084 21.7054 20.6379 21.9109 20.8602C22.1018 21.0667 22.4683 20.8903 22.8212 20.5694C23.173 20.247 23.3955 19.9168 23.1885 19.6941Z" fill="white"/>
<path fill-rule="evenodd" clip-rule="evenodd" d="M22.6204 23.6542C22.6326 23.6443 22.6418 23.6359 22.6528 23.6262C22.8398 23.4638 22.9489 23.2125 22.9489 22.9382C22.9489 22.4119 22.5167 21.9827 21.9853 21.9827C21.4545 21.9827 21.024 22.4119 21.024 22.9382C21.024 23.0095 21.0381 23.1262 21.0381 23.1262C20.9948 23.0449 20.835 22.6798 20.8037 22.6123C20.946 22.0999 21.4213 21.7224 21.9853 21.7224C22.4696 21.7224 22.8891 22.0017 23.0873 22.4067C23.0119 21.9245 22.7725 21.4914 22.6 21.331C22.3954 21.1399 22.0468 21.0782 22.0468 21.0782C22.2746 21.1156 22.5761 20.9755 22.9135 20.667C23.2331 20.3773 23.3989 20.1226 23.407 19.9102C23.3875 20.2101 23.3961 20.3784 23.481 20.6223C23.598 20.9546 23.916 21.5688 23.8037 22.262C23.7411 22.6424 23.4626 23.2088 22.9991 23.6715C22.8988 23.7751 22.8615 23.9289 22.8506 24.0082C22.8506 24.0082 22.1644 24.0082 22.0009 24.0238C22.0009 24.0238 21.8393 24.0082 21.8421 23.9081C21.8451 23.8073 21.9341 23.7816 22.0165 23.7816C22.0963 23.7816 22.4385 23.7898 22.6204 23.6542Z" fill="white"/>
<path fill-rule="evenodd" clip-rule="evenodd" d="M18.1045 23.8508C17.5206 23.5332 16.9499 23.0458 16.4344 22.2644L16.3418 22.1111C16.4834 22.1734 16.6639 22.1288 16.6639 22.1288C16.6742 22.1423 16.6954 22.1777 16.7061 22.1983C17.1865 22.9003 17.7182 23.3442 18.2609 23.6339L18.1045 23.8508Z" fill="white"/>
<path fill-rule="evenodd" clip-rule="evenodd" d="M18.8274 23.8848C19.2691 24.0427 19.709 24.1283 20.1258 24.1916C20.3986 24.2321 20.6651 24.2472 20.9184 24.2342C20.9148 24.2758 20.9148 24.3311 20.9394 24.3717C20.9394 24.3717 20.8893 24.4316 20.8893 24.4974C20.6293 24.5067 20.3619 24.4922 20.0859 24.4496C19.6323 24.38 19.1501 24.2892 18.6689 24.1069L18.8274 23.8848Z" fill="white"/>
<path fill-rule="evenodd" clip-rule="evenodd" d="M21.9622 24.1012C22.0442 24.0882 22.3012 24.0954 22.4542 24.1177C22.6228 24.1447 22.8148 24.178 22.8356 24.2709C22.854 24.3587 22.7933 24.4515 22.7089 24.5845C22.6539 24.6664 22.5287 24.6191 22.461 24.5933C22.3909 24.5683 21.9947 24.3576 21.9302 24.2891C21.8687 24.2195 21.8417 24.1213 21.9622 24.1012Z" fill="white"/>
<path fill-rule="evenodd" clip-rule="evenodd" d="M21.5579 24.3601C21.6012 24.3336 21.7054 24.2936 21.8127 24.3342C21.9192 24.3736 22.3084 24.6015 22.3356 24.71C22.3609 24.8164 22.3073 24.8689 22.2469 24.8933C22.1877 24.9171 22.1136 24.94 22.0596 24.9457C21.9629 24.9532 21.8685 24.897 21.8179 24.8363C21.7671 24.7749 21.5865 24.5565 21.5579 24.5065C21.5333 24.4583 21.52 24.3872 21.5579 24.3601Z" fill="white"/>
<path fill-rule="evenodd" clip-rule="evenodd" d="M21.5122 24.6001C21.5679 24.6633 21.7266 24.8523 21.7444 24.884C21.7639 24.915 21.7346 24.9645 21.6857 24.9582C21.6358 24.9532 21.3684 24.926 21.2141 24.8222C21.0602 24.7173 20.9578 24.5148 21.0643 24.4427C21.1678 24.3695 21.3337 24.4038 21.5122 24.6001Z" fill="white"/>
<path fill-rule="evenodd" clip-rule="evenodd" d="M21.4253 24.0197C21.4761 24.0081 21.6794 23.9579 21.7231 24.0238C21.7771 24.1064 21.7384 24.1951 21.5809 24.271C21.4253 24.3447 21.1281 24.4048 21.0689 24.325C21.0109 24.2424 21.0929 24.1064 21.4253 24.0197Z" fill="white"/>
<mask id="mask0_831:2360" style="mask-type:alpha" maskUnits="userSpaceOnUse" x="0" y="0" width="66" height="32">
<path d="M0 31.6568H65.8297V0.0144043H0V31.6568Z" fill="white"/>
</mask>
<g mask="url(#mask0_831:2360)">
<path fill-rule="evenodd" clip-rule="evenodd" d="M33.9395 31.8285H65.8295V0.186035H33.9395V31.8285Z" fill="#CC003D"/>
<path fill-rule="evenodd" clip-rule="evenodd" d="M59.6289 10.2229C59.6317 10.0828 59.658 9.1005 59.6602 8.96785H59.9011C60.8328 8.96785 60.9892 9.1312 61.0758 10.2229H59.6289ZM62.2798 9.67761C62.1335 8.45603 61.5555 7.82031 60.1901 7.82031H58.4538L58.2178 14.7211H59.483C59.483 14.7211 59.5998 11.5206 59.6066 11.369C59.7451 11.369 61.0738 11.3705 61.2052 11.3705C61.2198 11.51 61.4591 14.7211 61.4591 14.7211H62.7654C62.7654 14.7211 62.3158 9.9805 62.2798 9.67761Z" fill="white"/>
<path fill-rule="evenodd" clip-rule="evenodd" d="M44.2756 19.7005C44.2784 19.5604 44.3046 18.5782 44.3069 18.4456L44.5336 18.4314C45.4653 18.4314 45.6357 18.6089 45.7225 19.7005H44.2756ZM46.9263 19.1552C46.7804 17.9338 46.2019 17.2979 44.8368 17.2979H43.1003L42.8643 24.1987H44.1295C44.1295 24.1987 44.2463 20.9981 44.2533 20.8465C44.392 20.8465 45.7204 20.848 45.8519 20.848C45.8665 20.9875 46.1056 24.1987 46.1056 24.1987H47.4119C47.4119 24.1987 46.9624 19.4582 46.9263 19.1552Z" fill="white"/>
<path fill-rule="evenodd" clip-rule="evenodd" d="M37.4326 7.82031V14.7195H38.7114V8.96766H40.2961V14.7195H41.5769V7.82031H37.4326Z" fill="white"/>
<path fill-rule="evenodd" clip-rule="evenodd" d="M50.9606 10.2231H50.2645C49.9766 10.2231 49.7631 10.1593 49.627 10.0304C49.531 9.94087 49.4839 9.81957 49.4839 9.66143V7.82031H48.2021V9.79017C48.2021 10.2443 48.3833 10.6283 48.7406 10.9334C49.093 11.2356 49.5244 11.3878 50.025 11.3878H50.9606V14.7197H52.2405V7.82031H50.9606V10.2231Z" fill="white"/>
<path fill-rule="evenodd" clip-rule="evenodd" d="M53.6572 7.82031V8.96766H54.72V14.7195H54.7357H55.9987H56.0145V8.96766H57.0772V7.82031H53.6572Z" fill="white"/>
<path fill-rule="evenodd" clip-rule="evenodd" d="M51.7793 17.2976V19.503H50.0238V17.2976H48.7471V24.1997H50.0238V20.6504H51.7793V24.1997H53.056V17.2976H51.7793Z" fill="white"/>
<path fill-rule="evenodd" clip-rule="evenodd" d="M39.1482 23.1315C39.0239 23.1315 38.7114 23.1031 38.7114 23.1031V21.7561V21.6149V20.674C38.7114 20.674 38.8119 20.6506 38.9217 20.6506C39.5705 20.6506 40.3372 20.613 40.3372 21.8899C40.3372 23.0605 39.4947 23.1315 39.1482 23.1315ZM39.3031 19.5559C39.0828 19.5559 38.8871 19.5611 38.7114 19.5691V18.4452H41.0064V17.2979H37.4326V18.4452V24.1972H37.5192H39.3736C41.3088 24.1972 41.6086 22.4904 41.6086 21.8586C41.6086 21.1109 41.3105 19.5559 39.3031 19.5559Z" fill="white"/>
<path fill-rule="evenodd" clip-rule="evenodd" d="M44.0552 11.2823V11.2817C44.0659 9.41418 44.5311 8.79967 45.0216 8.79055C45.5121 8.79967 45.9773 9.41418 45.9879 11.2817V11.2823C45.9773 13.1063 45.5121 13.7292 45.0216 13.7386C44.5311 13.7292 44.0661 13.1063 44.0552 11.2823ZM47.2618 11.0265C47.2397 10.0395 47.0689 9.33232 46.8043 8.83C46.3873 7.97139 45.723 7.65083 45.0371 7.64265C45.0356 7.64265 45.0343 7.64209 45.0328 7.64209C45.0291 7.64209 45.0253 7.64228 45.0216 7.64228C45.0178 7.64228 45.0141 7.64209 45.0103 7.64209C45.0088 7.64209 45.0075 7.64265 45.006 7.64265C44.3201 7.65083 43.656 7.97139 43.2388 8.83C42.9741 9.33232 42.8034 10.0395 42.7813 11.0265C42.7811 11.028 42.7783 11.248 42.7783 11.2497L42.7785 11.2495C42.7793 11.8644 42.8483 12.4607 42.9831 12.9409C43.3343 14.3546 44.1458 14.8547 44.9929 14.8698C44.9987 14.87 45.0049 14.8706 45.0103 14.8706C45.0141 14.8706 45.0178 14.8704 45.0216 14.8704C45.0253 14.8704 45.0291 14.8706 45.0328 14.8706C45.0384 14.8706 45.0446 14.87 45.0503 14.8698C45.8974 14.8547 46.7089 14.3546 47.0601 12.9409C47.1951 12.4607 47.2641 11.8644 47.2646 11.2495L47.2648 11.2497C47.2648 11.248 47.2618 11.028 47.2618 11.0265Z" fill="white"/>
<path fill-rule="evenodd" clip-rule="evenodd" d="M59.4269 24.1977L57.8877 20.1534C58.2072 19.9173 58.456 19.465 58.5667 19.0146C58.6739 18.5769 58.8151 17.2976 58.8151 17.2976H57.5562C57.5485 17.4278 57.5214 17.8656 57.482 18.3106C57.4237 18.9704 57.2279 19.5789 56.5479 19.5789H56.023C56.0221 19.5237 56.023 17.2976 56.023 17.2976H54.7432V24.1997H56.023V20.6954C56.023 20.6954 56.7001 20.6963 56.7957 20.6956L58.0529 24.1977H59.4269Z" fill="white"/>
</g>
</svg>
