<svg width="32" height="32" viewBox="0 0 32 32" fill="none" xmlns="http://www.w3.org/2000/svg">
<path d="M28.6623 6.21729C29.4223 7.19998 30.0658 8.26759 30.5795 9.39868L16.0051 20.1428L9.91406 16.3244V11.7307L16.0051 15.5491L28.6623 6.21729Z" fill="#21A038"/>
<path d="M3.69637 16C3.69637 15.7938 3.70139 15.5891 3.71145 15.3855L0.0201037 15.2046C0.00753957 15.4684 4.46082e-06 15.7348 4.46082e-06 16.0037C-0.0015661 18.1044 0.411602 20.1846 1.21582 22.1251C2.02003 24.0657 3.19945 25.8283 4.68642 27.312L7.30479 24.6948C6.16016 23.5547 5.25213 22.1996 4.63288 20.7075C4.01362 19.2153 3.69536 17.6155 3.69637 16Z" fill="url(#paint0_linear_243:11067)"/>
<path d="M16.0006 3.69551C16.2066 3.69551 16.4113 3.70306 16.6149 3.71311L16.7996 0.0203231C16.535 0.00775833 16.2686 0.00147671 16.0006 0.00147671C13.899 -0.00108619 11.8178 0.411506 9.87618 1.21556C7.93459 2.01962 6.17095 3.19931 4.68652 4.68688L7.30489 7.30538C8.44494 6.16032 9.80008 5.25192 11.2924 4.63241C12.7847 4.0129 14.3847 3.6945 16.0006 3.69551Z" fill="url(#paint1_linear_243:11067)"/>
<path d="M16.0015 28.3046C15.7954 28.3046 15.5906 28.3046 15.3859 28.2883L15.2012 31.9798C15.4667 31.9932 15.7335 31.9999 16.0015 31.9999C18.1021 32.0021 20.1824 31.5892 22.1229 30.785C24.0635 29.9807 25.826 28.8008 27.3093 27.3133L24.6959 24.696C23.5557 25.8405 22.2007 26.7484 20.7086 27.3677C19.2166 27.9869 17.6169 28.3054 16.0015 28.3046Z" fill="url(#paint2_linear_243:11067)"/>
<path d="M22.9356 5.84264L26.0465 3.54957C23.2031 1.24703 19.6538 -0.00639161 15.9951 2.45107e-05V3.69532C18.4726 3.69225 20.8926 4.441 22.9356 5.84264Z" fill="url(#paint3_linear_243:11067)"/>
<path d="M32.0003 16.0001C32.0023 15.0388 31.9182 14.0791 31.749 13.1328L28.3052 15.6709C28.3052 15.7803 28.3052 15.8895 28.3052 16.0001C28.3061 17.7193 27.9457 19.4195 27.2475 20.9905C26.5492 22.5615 25.5286 23.9683 24.252 25.1196L26.7359 27.8651C28.3957 26.3665 29.722 24.536 30.6289 22.4921C31.5359 20.4481 32.0031 18.2363 32.0003 16.0001Z" fill="#21A038"/>
<path d="M16.0001 28.3049C14.2808 28.3055 12.5806 27.9449 11.0094 27.2467C9.43838 26.5485 8.03143 25.528 6.87974 24.2515L4.13574 26.7343C5.63396 28.3944 7.46436 29.721 9.50826 30.6282C11.5522 31.5353 13.7639 32.0028 16.0001 32.0001V28.3049Z" fill="url(#paint4_linear_243:11067)"/>
<path d="M7.74957 6.88041L5.26689 4.13501C3.60663 5.6332 2.2798 7.46365 1.37245 9.50765C0.465118 11.5516 -0.00247372 13.7635 9.84167e-06 15.9999H3.69638C3.69561 14.2808 4.05603 12.5805 4.75426 11.0095C5.45249 9.43859 6.47296 8.03182 7.74957 6.88041Z" fill="url(#paint5_linear_243:11067)"/>
<defs>
<linearGradient id="paint0_linear_243:11067" x1="5.43399" y1="26.8509" x2="1.39551" y2="15.1771" gradientUnits="userSpaceOnUse">
<stop offset="0.14" stop-color="#F1E813"/>
<stop offset="0.3" stop-color="#E6E418"/>
<stop offset="0.58" stop-color="#C9DA26"/>
<stop offset="0.89" stop-color="#A2CC39"/>
</linearGradient>
<linearGradient id="paint1_linear_243:11067" x1="5.7419" y1="5.34025" x2="16.1438" y2="1.37641" gradientUnits="userSpaceOnUse">
<stop offset="0.06" stop-color="#0FA7DF"/>
<stop offset="0.54" stop-color="#0098F8"/>
<stop offset="0.92" stop-color="#0290EA"/>
</linearGradient>
<linearGradient id="paint2_linear_243:11067" x1="14.9575" y1="29.7697" x2="26.72" y2="27.1125" gradientUnits="userSpaceOnUse">
<stop offset="0.12" stop-color="#A2CC39"/>
<stop offset="0.28" stop-color="#86C239"/>
<stop offset="0.87" stop-color="#219F38"/>
</linearGradient>
<linearGradient id="paint3_linear_243:11067" x1="15.2263" y1="1.23765" x2="25.2826" y2="4.34086" gradientUnits="userSpaceOnUse">
<stop offset="0.06" stop-color="#0290EA"/>
<stop offset="0.79" stop-color="#0C89CA"/>
</linearGradient>
<linearGradient id="paint4_linear_243:11067" x1="5.06297" y1="26.2844" x2="16.009" y2="30.3752" gradientUnits="userSpaceOnUse">
<stop offset="0.13" stop-color="#F1E813"/>
<stop offset="0.3" stop-color="#EAE616"/>
<stop offset="0.53" stop-color="#D8DF1F"/>
<stop offset="0.8" stop-color="#BAD52D"/>
<stop offset="0.98" stop-color="#A2CC39"/>
</linearGradient>
<linearGradient id="paint5_linear_243:11067" x1="1.37704" y1="16.4472" x2="5.77111" y2="5.01721" gradientUnits="userSpaceOnUse">
<stop offset="0.07" stop-color="#A2CC39"/>
<stop offset="0.26" stop-color="#81C45E"/>
<stop offset="0.92" stop-color="#0FA7DF"/>
</linearGradient>
</defs>
</svg>
