<svg width="140" height="32" viewBox="0 0 140 32" fill="none" xmlns="http://www.w3.org/2000/svg">
<path fill-rule="evenodd" clip-rule="evenodd" d="M90.2383 32H98.5766L102.159 21.9342L105.884 18.8489L108.818 27.9519C109.726 30.7655 110.66 32 112.697 32H119.081L112.495 14.1373L128.334 0H118.105L108.49 10.066C107.37 11.2378 106.238 12.3912 105.102 13.7688H105.005L109.806 0H101.466L90.2383 32Z" fill="#1AB248"/>
<path fill-rule="evenodd" clip-rule="evenodd" d="M89.8783 0.00126793C92.4932 0.00168879 95.0296 0.00209697 97.1538 0.00228143L95.4326 5.28561C94.8917 6.94558 93.5187 7.73973 90.4924 7.73973C85.2382 7.73973 77.4635 7.73882 72.2086 7.73791L73.9298 2.45459C74.4705 0.793707 75.8433 0 78.8696 0C81.9999 0 86.0246 0.000647744 89.8783 0.00126793ZM74.6258 12.1303C79.8799 12.1303 87.6551 12.1312 92.91 12.1326L91.1888 17.4157C90.6479 19.0761 89.2749 19.8698 86.2485 19.8698C80.9942 19.8698 73.2195 19.8689 67.9647 19.8675L69.6858 14.5849C70.2265 12.9242 71.5995 12.1303 74.6258 12.1303ZM88.4574 24.2621C83.2029 24.2612 75.4282 24.2603 70.1739 24.2603C67.1471 24.2603 65.7746 25.0544 65.2338 26.7139L63.5127 31.9979C68.7676 31.9984 76.5423 32 81.7968 32C84.8229 32 86.1959 31.2056 86.7366 29.5452L88.4574 24.2621Z" fill="#1AB248"/>
<path fill-rule="evenodd" clip-rule="evenodd" d="M52.4298 7.70743L56.9047 7.70926C60.7174 7.71017 59.8471 12.3189 57.9175 16.8106C56.2173 20.7695 53.2039 24.2632 49.6089 24.2627L42.1489 24.2618C39.1733 24.2618 37.8014 25.0559 37.2228 26.7154L35.3809 31.9991L40.8512 32L46.1985 31.9569C50.9407 31.919 54.823 31.5873 59.363 27.6383C64.1608 23.4667 69.7549 12.6296 68.7965 6.36145C68.0457 1.44955 65.3187 0.00228132 58.7152 0.00182505L46.6817 0L39.6752 19.847L44.127 19.8525C46.7765 19.8554 48.1062 19.8876 49.5156 16.217L52.4298 7.70743Z" fill="#1AB248"/>
<path fill-rule="evenodd" clip-rule="evenodd" d="M31.8579 7.73501L28.4922 7.73592C21.7498 7.73912 15.9722 24.2654 23.9443 24.2627L29.0666 24.2618C32.0208 24.2618 34.2139 25.3059 33.2428 28.1213L31.9047 31.9991L26.4721 32L22.0532 31.9569C16.4001 31.9022 12.7521 29.205 11.4386 25.1095C10.0172 20.6776 12.024 11.434 17.8484 5.51257C21.2279 2.07736 25.9092 0.00228132 31.9112 0.00182505L43 0L41.2666 4.84323C40.1467 7.9725 37.8585 7.73912 36.5528 7.73867L31.8579 7.73501Z" fill="#1AB248"/>
</svg>
