<svg width="36" height="32" viewBox="0 0 36 32" fill="none" xmlns="http://www.w3.org/2000/svg">
<path d="M35.5327 14.9687L36 13.4796L34.454 13.5278C34.3234 13.5278 33.3739 13.501 32.4528 12.8362C32.5215 12.8429 32.5901 12.8523 32.6602 12.8523C33.6082 12.8523 34.5254 12.2839 34.893 11.4718L35.5582 10.0041C34.7246 10.0148 33.9624 9.91025 33.9624 9.91025C33.9557 9.90899 33.3551 9.83252 32.6602 9.1262C32.1619 8.6196 31.5451 8.35155 30.8771 8.35155C30.5849 8.35155 30.3237 8.40377 30.0987 8.47481C30.1337 8.35553 30.1674 8.23493 30.1863 8.11028C30.399 6.73647 29.5103 5.68835 29.5103 5.68966L28.348 4.25687L27.6276 5.94028C27.6249 5.94566 27.443 6.33968 27.1172 6.5327C27.0188 6.03814 26.7777 5.48189 26.262 4.94984C25.2897 3.94725 24.1059 3.79848 23.4865 3.79848C23.1997 3.79848 22.9949 3.82928 22.9451 3.83735L21.5418 4.11209C21.6227 3.79979 21.795 3.25698 22.1102 2.76778L22.8845 1.56688L20.9358 1.78802L20.315 0.475826L19.1137 1.09236L18.0027 0L16.8944 1.09236L15.689 0.475826L15.0696 1.78802L13.1222 1.56688L13.8979 2.76778C14.2131 3.25698 14.3854 3.79848 14.4649 4.11078L13.1264 3.84809L13.0805 3.84003C13.0131 3.82928 12.8098 3.79848 12.5216 3.79848C11.9022 3.79848 10.7184 3.94857 9.74874 4.94984C9.23161 5.48058 8.99057 6.03814 8.89093 6.5327C8.56773 6.34238 8.38723 5.95372 8.38723 5.95372L7.66546 4.26087L6.48432 5.70303C6.34029 5.88936 5.62791 6.8745 5.82177 8.11293C5.84201 8.23625 5.87437 8.35692 5.90937 8.4762C5.6858 8.40516 5.42453 8.35281 5.13228 8.35281C4.46437 8.35281 3.84753 8.62092 3.34794 9.12752C2.65567 9.83126 2.05776 9.91025 2.06318 9.91025C2.06318 9.91025 1.43153 10.0229 0.453831 10.0055L1.1151 11.4731C1.48272 12.2867 2.40121 12.8536 3.34794 12.8536C3.41926 12.8536 3.48794 12.8443 3.558 12.8375C2.63953 13.5024 1.69016 13.5292 1.57568 13.5305L0 13.4796L0.476737 14.9674C0.716452 15.734 1.51774 17.0046 3.05298 17.1413C2.88599 17.8383 2.51567 18.6184 1.70227 18.9547L0.52931 19.4359L1.16897 20.5443C1.52985 21.1421 2.377 21.8418 3.58361 21.8418C3.84482 21.8405 4.09664 21.8149 4.33912 21.7641C4.40105 22.0375 4.47912 22.3109 4.57069 22.5816C4.93029 23.6459 4.62051 24.3884 4.61654 24.3964L4.03742 25.604L5.33024 25.9431C5.34639 25.9485 5.73695 26.0544 6.22576 26.0544C6.448 26.0544 6.65946 26.0316 6.85881 25.9846C7.00959 25.9498 7.15369 25.9029 7.29237 25.8467C7.45937 26.1455 7.66275 26.4176 7.89981 26.6616C8.72797 27.5073 9.90098 27.9362 11.3877 27.9362H11.3931L12.4543 27.9228L10.2619 28.8288L11.9264 29.629C12.531 29.9226 13.2489 30.2697 13.9787 30.535L13.7714 31.1006L14.3451 31.3607C14.3962 31.3835 15.4992 31.8754 17.3334 31.9799C17.3334 31.9799 17.7764 32 18.0202 32C18.264 32 18.7016 31.9785 18.7016 31.9785C20.5237 31.8713 21.6186 31.3848 21.6698 31.3607L22.2448 31.0993L22.0347 30.5324C22.7862 30.2589 23.5295 29.8985 24.1086 29.6169L25.7422 28.8275L23.5565 27.9201L24.6218 27.9335C26.1098 27.9335 27.2842 27.5046 28.111 26.6575C28.3467 26.415 28.5501 26.1428 28.7184 25.8439C28.8571 25.9003 29.0025 25.9472 29.1534 25.982C29.3513 26.0289 29.5627 26.0517 29.785 26.0517C30.2657 26.0517 30.6603 25.9458 30.6711 25.9431L31.9693 25.6014L31.4037 24.4165C31.3902 24.3856 31.0805 23.6445 31.44 22.579C31.5316 22.3068 31.6084 22.0334 31.6704 21.7613C31.9141 21.8123 32.1686 21.8391 32.4312 21.8391C33.9678 21.8391 34.7045 20.7629 34.8472 20.5296L35.4802 19.4332L34.3072 18.9534C33.4924 18.617 33.1234 17.8356 32.9578 17.1399C34.4715 17.0113 35.2849 15.7407 35.5327 14.9687ZM14.5673 4.6241L14.5511 4.62816L14.5645 4.61072L14.5673 4.6241Z" fill="white"/>
<path d="M18.0055 4.55835C16.7638 4.55966 15.8332 4.96444 15.6299 5.44026L18.0055 6.37311L20.3811 5.44026C20.1791 4.96444 19.2485 4.55966 18.0055 4.55835Z" fill="white"/>
<path d="M18.0295 29.2535H18.0269H18.0066H17.9838H17.9824C17.2296 29.2589 16.194 29.1048 15.6943 28.96L15.0938 30.5777C15.4897 30.7184 16.831 30.9866 18.0066 30.9866C19.1796 30.9866 20.5223 30.7171 20.9169 30.5777L20.3176 28.96C19.8166 29.106 18.7823 29.2589 18.0295 29.2535Z" fill="white"/>
<path d="M22.5743 27.6453C22.1271 27.8973 21.1293 28.2752 20.5488 28.4509L21.0363 29.7871C21.9346 29.5432 22.6753 29.2577 23.288 28.9521L22.2766 28.617L22.5743 27.6453Z" fill="white"/>
<path d="M13.4403 27.6453L13.7393 28.617L12.7266 28.9521C13.3379 29.2577 14.0826 29.5432 14.9768 29.7871L15.4644 28.4509C14.8866 28.2752 13.8874 27.8959 13.4403 27.6453Z" fill="white"/>
<path d="M18.0033 3.01173C18.9393 3.01173 19.8578 3.23425 20.5635 3.62566C20.6281 3.40983 20.7183 3.14845 20.8409 2.87509L20.5742 2.9072L20.2941 2.9367L20.1756 2.68338L19.8188 1.93281L19.1683 2.2706L18.9151 2.39926L18.7131 2.20087L18.0061 1.50391L17.3004 2.20087L17.0984 2.39926L16.8452 2.2706L16.1907 1.93281L15.8379 2.68338L15.7167 2.9367L15.4366 2.9072L15.1699 2.87509C15.2925 3.14983 15.3814 3.40983 15.4473 3.62566C16.1544 3.23425 17.0701 3.01173 18.0033 3.01173Z" fill="white"/>
<path d="M32.2942 11.6861C32.4153 11.7277 32.5392 11.7464 32.6618 11.7464C33.1911 11.7464 33.7028 11.406 33.8792 11.0159C33.8792 11.0159 32.9082 10.957 31.8646 9.90214C31.5319 9.56035 31.1805 9.4585 30.8788 9.4585C30.4101 9.4585 30.0586 9.70507 30.0586 9.70507C31.3191 10.3726 31.5764 11.4449 32.2942 11.6861Z" fill="white"/>
<path d="M3.34889 11.7464C3.47142 11.7464 3.59534 11.7277 3.71384 11.6861C4.43436 11.4449 4.69292 10.3726 5.95339 9.70507C5.95339 9.70507 5.60054 9.4585 5.13456 9.4585C4.8316 9.4585 4.48007 9.56035 4.14615 9.90214C3.10375 10.957 2.13281 11.0159 2.13281 11.0159C2.30649 11.406 2.81958 11.7464 3.34889 11.7464Z" fill="white"/>
<path d="M32.6355 16.0438C32.6572 16.0451 32.676 16.0451 32.6988 16.0451C34.02 16.0451 34.4684 14.6365 34.4684 14.6365H34.4428C34.2004 14.6365 32.2356 14.5802 30.8471 12.823C29.9327 11.6677 29.184 10.6517 27.7039 10.2523L27.5585 10.2268L27.5262 10.0794C27.4858 9.85419 27.6406 9.64379 27.9921 9.41597C30.0337 8.08503 28.648 6.38816 28.648 6.38816C28.648 6.38816 28.0649 7.74589 26.7599 7.74589C26.729 7.74589 26.6953 7.74456 26.6629 7.74456C26.5148 7.73654 26.372 7.73118 26.228 7.70036L25.9869 7.65345C25.9869 7.65345 26.3586 6.64688 25.4617 5.72201C24.7856 5.02373 23.9628 4.90576 23.4874 4.90576C23.2477 4.90576 23.0956 4.93664 23.0956 4.93664C23.5467 5.52368 23.8726 6.49676 23.3514 7.09715C22.9016 7.61322 21.8027 7.63867 21.8027 8.40801C21.8027 8.73371 22.1084 9.1144 22.6579 9.45613C24.3102 10.4922 25.9506 11.8661 26.632 13.7076C27.4845 16.0049 26.5243 17.5288 25.1533 18.4027C25.1533 18.4027 25.583 18.7968 26.2064 18.8464C26.333 18.8585 26.4569 18.8638 26.5727 18.8638C27.8885 18.8638 28.5686 18.2499 28.5686 18.2499C28.5686 18.2499 28.4567 19.0983 27.7713 19.8865C27.1397 20.6142 26.3101 21.0418 25.0456 21.0606C25.0456 21.0606 25.0052 21.645 25.5654 22.1503C25.9236 22.4693 26.7519 22.5738 26.7519 22.5738C26.7519 22.5738 25.2018 22.8861 25.0308 25.1647C24.9378 26.3991 24.6213 26.8279 24.6213 26.8279H24.6496C28.2467 26.8279 28.1537 23.7573 28.1537 23.7573C28.1537 23.7573 28.4042 24.666 29.4076 24.9032C29.5287 24.9355 29.658 24.9475 29.7819 24.9475C30.1051 24.9475 30.3853 24.8724 30.3853 24.8724C30.3853 24.8724 29.86 23.7694 30.3812 22.2267C30.8135 20.9467 30.7434 19.9977 30.7434 19.9977C30.7434 19.9977 31.2283 20.7268 32.4296 20.7336H32.4417C33.4422 20.7336 33.8785 19.9789 33.8785 19.9789C31.4801 18.9885 31.7171 15.7905 31.7171 15.7905C31.7171 15.7905 32.0282 16.021 32.6355 16.0438ZM31.9137 19.3838C30.9387 18.9054 30.3219 17.6347 30.1724 17.1764C30.0109 19.6961 28.7746 21.4453 27.3296 23.1287C26.5795 24.0012 26.3182 24.8496 26.3182 24.8496C26.3182 24.8496 26.4623 23.8887 27.1114 23.1059C28.4595 21.4935 29.7401 19.487 29.8358 17.167C29.9017 15.5478 29.4829 14.2344 28.8298 13.1527C29.1947 14.2799 29.1436 15.6605 27.9033 16.9485C27.9033 16.9485 30.3718 14.0039 26.9202 10.9855C25.5385 9.83676 24.0275 9.12779 23.2491 8.6251C26.061 9.5379 27.4333 8.53266 27.4333 8.53266C26.535 9.30736 25.3728 9.29398 24.6524 9.18272C24.8476 9.27794 25.0509 9.37708 25.2705 9.4937C27.6406 10.775 29.7711 12.8833 30.1347 15.8039V15.7811C30.6869 18.648 31.9137 19.3838 31.9137 19.3838Z" fill="white"/>
<path d="M9.25473 22.5738C9.25473 22.5738 10.0829 22.4706 10.4412 22.1503C11 21.645 10.961 21.0606 10.961 21.0606C9.69504 21.0432 8.86688 20.6142 8.23119 19.8878C7.55116 19.0997 7.43803 18.2513 7.43803 18.2513C7.43803 18.2513 8.11805 18.8651 9.43244 18.8651C9.551 18.8651 9.67354 18.8598 9.80011 18.8477C10.4236 18.7982 10.8545 18.4041 10.8545 18.4041C9.48365 17.5302 8.5221 16.0049 9.37322 13.7076C10.056 11.8674 11.6949 10.4922 13.3473 9.45613C13.8968 9.1144 14.2025 8.73503 14.2025 8.40801C14.2025 7.63867 13.1049 7.61322 12.6552 7.09715C12.1339 6.49676 12.4612 5.5223 12.911 4.93664C12.911 4.93664 12.7615 4.90576 12.5204 4.90576C12.0464 4.90576 11.2235 5.02373 10.5476 5.72201C9.64793 6.64688 10.021 7.65345 10.021 7.65345L9.77993 7.70036C9.63583 7.73118 9.49172 7.73654 9.34491 7.74456C9.3113 7.74456 9.28159 7.74589 9.2493 7.74589C7.94166 7.74589 7.36121 6.38954 7.36121 6.38954C7.36121 6.38954 5.97543 8.08629 8.01576 9.41723C8.36722 9.64512 8.52072 9.85558 8.48036 10.0807L8.448 10.2282L8.29986 10.2536C6.82258 10.653 6.07249 11.6691 5.15805 12.8244C3.77227 14.5788 1.81014 14.6365 1.56506 14.6365H1.53809C1.53809 14.6365 1.98653 16.0451 3.30767 16.0451C3.32918 16.0451 3.34803 16.0451 3.37092 16.0438C3.97837 16.0223 4.29079 15.7905 4.29079 15.7905C4.29079 15.7905 4.52507 18.9871 2.12931 19.9789C2.12931 19.9789 2.56566 20.7336 3.56624 20.7336H3.57835C4.78092 20.7268 5.26444 19.9977 5.26444 19.9977C5.26444 19.9977 5.19437 20.9467 5.62529 22.2267C6.14652 23.7694 5.62404 24.8724 5.62404 24.8724C5.62404 24.8724 5.9041 24.9475 6.22599 24.9475C6.35117 24.9475 6.47919 24.9355 6.59901 24.9032C7.60092 24.666 7.8528 23.7573 7.8528 23.7573C7.8528 23.7573 7.76116 26.8279 11.3582 26.8279H11.3839C11.3839 26.8279 11.0687 26.3991 10.9771 25.1647C10.8047 22.8861 9.25473 22.5738 9.25473 22.5738ZM8.67699 23.1287C7.23193 21.4453 5.99706 19.6961 5.83404 17.1764C5.68464 17.6333 5.07045 18.9054 4.09554 19.3838C4.09554 19.3838 5.32101 18.648 5.87175 15.7811V15.8039C6.23677 12.8847 8.36589 10.775 10.7374 9.4937C10.9543 9.37569 11.1602 9.27655 11.3542 9.18272C10.6337 9.29398 9.47154 9.30736 8.57332 8.53266C8.57332 8.53266 9.9456 9.5379 12.7561 8.6251C11.9777 9.12779 10.4681 9.83676 9.08634 10.9855C5.63343 14.0039 8.10329 16.9485 8.10329 16.9485C6.86161 15.6591 6.81179 14.2799 7.17675 13.1527C6.52226 14.2357 6.10471 15.5478 6.17213 17.167C6.26635 19.487 7.54706 21.4935 8.89248 23.1059C9.54287 23.8873 9.68968 24.8496 9.68968 24.8496C9.68968 24.8496 9.42569 24.0012 8.67699 23.1287Z" fill="white"/>
<path d="M15.3452 11.3472C15.4045 11.4102 15.4624 11.4786 15.5176 11.5469C15.5311 11.563 15.5432 11.5778 15.5566 11.5965C15.6078 11.6649 15.6604 11.7373 15.7101 11.811C15.7209 11.8257 15.7317 11.8431 15.7438 11.8606C15.8044 11.9517 15.861 12.0455 15.9176 12.142C16.4361 13.0334 17.2669 13.5655 18.0036 13.5668C18.7416 13.5655 19.5698 13.0334 20.091 12.142C20.1489 12.0429 20.2068 11.9464 20.2674 11.8565C20.2768 11.8431 20.2862 11.8311 20.2943 11.8176C20.3455 11.7413 20.3994 11.6662 20.4559 11.5939C20.468 11.5778 20.4788 11.5644 20.4895 11.551C20.5475 11.4799 20.6067 11.4102 20.6673 11.3459C20.6782 11.3352 20.6862 11.3258 20.6956 11.3177C20.9596 11.0484 21.2748 10.8433 21.6868 10.7294L21.5037 10.6235H21.4928L20.763 10.2012L20.0129 9.77368L18.009 10.8593L18.0036 10.8553L17.9996 10.8593L15.9943 9.77368L15.2455 10.1999L14.5143 10.6221H14.5062L14.3203 10.728C14.7338 10.8419 15.0476 11.0443 15.3129 11.3138C15.325 11.3245 15.3331 11.3366 15.3452 11.3472ZM17.1929 11.2601H18.0413H18.8883V11.8391C18.689 11.5965 18.3012 11.6461 18.3012 11.6461V12.4812C18.3012 12.4812 18.316 12.8913 18.4601 13.0696H18.0413H17.6211C17.7679 12.8926 17.7814 12.4812 17.7814 12.4812V11.6461C17.7814 11.6461 17.3949 11.5965 17.1929 11.8391V11.2601Z" fill="white"/>
<path d="M17.8333 10.1368V6.74724L15.665 6.01538L16.2374 9.30058L17.8333 10.1368ZM17.3673 7.5796V8.12371L17.2623 8.07546C17.2569 8.07149 17.1033 8.03657 16.834 7.82485C16.3895 7.48173 16.3815 7.16544 16.3815 7.16544L17.3673 7.5796Z" fill="white"/>
<path d="M19.7758 9.30058L20.3455 6.01538L18.1787 6.74724V10.1368L19.7758 9.30058ZM18.6446 7.5796L19.6304 7.16677C19.6304 7.16677 19.6223 7.48305 19.1766 7.82617C18.9086 8.03796 18.7537 8.07275 18.7483 8.07686L18.6432 8.1251V7.5796H18.6446Z" fill="white"/>
<path d="M14.7671 17.9952C14.9785 18.0716 15.2344 18.0878 15.365 18.0878C15.3704 18.0716 15.3772 18.0516 15.3839 18.0274C15.396 17.9885 15.4067 17.951 15.4149 17.9082C15.4512 17.7205 15.4647 17.5074 15.4673 17.3707C15.3785 17.3157 15.2532 17.2179 15.1832 17.0718C15.1024 16.9029 14.9879 16.8252 14.8195 16.8252C14.6015 16.8252 14.3671 16.9552 14.2675 17.0168C14.188 17.4846 14.5341 17.9095 14.7671 17.9952Z" fill="white"/>
<path d="M19.5562 16.1963C19.1536 16.6319 18.3658 17.3905 18.3267 17.4294L18.2795 17.4776L15.7895 17.4387C15.7881 17.6841 15.7478 17.8931 15.7087 18.0459C15.702 18.0714 15.6952 18.0982 15.6885 18.125L18.6512 18.6545C18.9596 18.4399 19.808 17.8234 20.1366 17.5822C19.8969 17.2337 19.8741 16.8209 19.9279 16.53C19.7717 16.4295 19.6518 16.317 19.5562 16.1963Z" fill="white"/>
<path d="M19.8973 13.2154C19.3236 13.7824 18.7728 13.9915 18.2813 14.0397C18.1924 14.0491 18.1022 14.0545 18.0106 14.0545H18.0039H17.9985C17.9069 14.0545 17.8153 14.0491 17.7265 14.0397C17.6403 14.0317 17.5501 14.0183 17.4598 13.9982C17.4275 14.1256 17.387 14.3923 17.503 14.6442C17.6066 14.8734 17.818 15.0436 18.1264 15.1562L18.2301 15.1965L18.2315 15.3077C18.2315 15.3412 18.2557 16.0622 19.0462 16.262C19.1755 16.1293 19.2927 16.01 19.3789 15.9109C19.2172 15.5329 19.3021 15.1468 19.5364 14.9579C19.5256 14.9981 19.4233 15.9443 20.1855 16.2955L20.3107 16.3545L20.2731 16.4871C20.261 16.5274 20.0064 17.4428 20.9289 17.7832L21.0919 17.8449L21.0191 18.0031C21.003 18.0379 20.6407 18.8689 21.4931 19.3406H23.3422V17.8798C22.685 17.7994 22.4062 17.2739 22.3349 16.9013C22.0291 16.8491 21.7922 16.7177 21.6305 16.5032C21.2427 15.9953 21.5767 15.5302 21.5807 15.5047C21.5793 15.5088 21.5807 16.0046 21.8877 16.3103C22.04 16.4576 22.2204 16.5715 22.4938 16.5971L22.6284 16.6091L22.6406 16.7458C22.6433 16.7753 22.7173 17.4455 23.3436 17.5513L23.3422 14.5679C23.3422 14.1054 23.4782 13.6403 23.6412 13.2114H19.8973V13.2154Z" fill="white"/>
<path d="M14.9209 14.5827L14.8711 16.4832L15.0879 16.5154L15.6185 14.6926L15.3491 14.1323L14.9209 14.5827Z" fill="white"/>
<path d="M20.7705 23.2989C20.7867 23.2989 20.8055 23.3016 20.8231 23.3056C21.153 23.3995 21.2365 24.5842 21.8156 24.6902C21.8721 24.7022 21.9246 24.7049 21.9704 24.7049C22.1374 24.7049 22.237 24.6339 22.3448 24.5079C22.3448 24.5079 22.0539 24.0522 21.8358 23.7452C21.5462 23.3431 21.3214 22.8566 20.7826 22.8566C20.7705 22.8566 20.7543 22.8566 20.7409 22.8579C20.5631 22.8673 20.4541 22.9532 20.4541 22.9532C20.2359 22.8164 20.0325 22.7695 19.848 22.7695C19.51 22.7695 19.2474 22.9236 19.1168 22.9236H19.1114L17.9074 22.8057C17.7189 22.7882 17.5708 22.5993 17.5169 22.5256C17.5034 22.5054 17.4967 22.4933 17.4967 22.4933C17.4967 22.4612 17.4967 22.4277 17.494 22.3982C17.4536 21.4185 16.6914 20.9989 16.4207 20.9922C16.4207 20.9922 16.453 20.806 16.379 20.7349L16.1137 21.0552L15.2423 20.6196L15.8631 21.3421L15.3366 21.9304C15.2706 21.9975 15.2787 22.0886 15.3056 22.1261L15.5332 22.3258L15.8214 22.1515C15.8363 22.1409 15.8619 22.1382 15.8941 22.1382C15.9735 22.1382 16.0934 22.1583 16.2011 22.1583C16.3183 22.1583 16.4207 22.1328 16.4328 22.0229C16.3965 22.3861 16.0584 23.0174 16.2807 23.5134L16.445 23.8873L15.381 23.7345L14.8828 24.5722C14.7293 24.851 14.7049 25.1526 14.8531 25.3161L15.039 25.548C15.039 25.548 15.3003 25.2719 15.3595 25.0909L15.2747 24.9984C15.2033 24.9206 15.2073 24.851 15.2504 24.7666L15.5628 24.2505L16.8193 24.5454L16.8853 24.4329C16.9702 24.2921 17.0927 24.2492 17.2274 24.2492C17.2826 24.2492 17.3391 24.2559 17.3984 24.2653C17.6314 24.3109 18.0152 24.3725 18.399 24.3725C18.8205 24.3725 19.238 24.2974 19.4602 24.0495C19.9153 24.721 20.8378 24.8282 20.7651 25.1687L20.5228 26.3186C20.683 26.312 20.8378 26.3012 20.9847 26.2811L21.2149 25.0842C21.2405 24.9542 21.2648 24.7786 21.2648 24.7786C21.1759 24.6889 20.9604 24.4985 20.8392 24.2679C20.6763 23.957 20.7651 23.7948 20.6129 23.39C20.6184 23.3927 20.6642 23.2989 20.7705 23.2989ZM16.0705 21.6181C16.0086 21.6168 15.9641 21.5645 15.9669 21.5029C15.9723 21.4439 16.0221 21.397 16.0827 21.4024C16.1446 21.4051 16.189 21.4587 16.1864 21.5177C16.181 21.5766 16.1298 21.6222 16.0705 21.6181Z" fill="white"/>
<path d="M14.3576 24.387C14.3576 24.387 14.7738 24.2168 14.8115 24.0948L14.7563 23.9567C14.7172 23.8669 14.7226 23.7691 14.798 23.7155L15.2478 23.4059L15.9993 23.5493C15.9993 23.5493 15.8633 23.3804 15.8768 23.1539L15.1603 23.0024L14.4842 23.4126C14.1947 23.6284 14.1731 23.9809 14.2687 24.1899L14.3576 24.387Z" fill="white"/>
<path d="M19.667 26.3357C19.8016 26.3304 19.9498 26.3277 20.1128 26.3277C20.1128 26.3277 20.4993 25.2032 20.5208 25.167C20.304 25.0718 19.8542 24.8346 19.6805 24.7261C19.795 24.8962 20.0737 25.092 20.0185 25.2421L19.667 26.3357Z" fill="white"/>
<path d="M23.3484 19.6667H12.665V23.6663C12.665 25.3014 13.8542 26.3254 15.609 26.3254C17.0755 26.3254 17.462 26.3817 18.0074 26.9206C18.3831 26.5479 18.6943 26.4086 19.3325 26.3562L19.3474 26.2947L19.6841 25.2585C19.6652 25.2358 19.1145 24.6125 19.1145 24.6125C18.8963 24.6849 18.7131 24.697 18.4047 24.697C18.0882 24.697 17.7313 24.6608 17.3449 24.5884C17.3058 24.5791 17.2694 24.5763 17.2331 24.5763C17.186 24.5763 17.1818 24.5804 17.1697 24.6032L17.1024 24.7131L16.9799 24.9141L16.7496 24.8618L15.7247 24.6219L15.5847 24.8524L15.6062 24.8765L15.7315 25.0132L15.6763 25.1916C15.6009 25.4248 15.3558 25.6968 15.2817 25.7719L15.0259 26.0453L14.7928 25.7518L14.6178 25.5334C14.4333 25.3283 14.3902 25.0132 14.4939 24.6836C14.4911 24.6863 14.4872 24.6876 14.4831 24.6876L14.1936 24.8069L14.0629 24.5255L13.9714 24.3257C13.8138 23.9746 13.8717 23.4612 14.2959 23.1516L15.1215 22.6878L15.9066 22.842C15.9255 22.7669 15.9537 22.4989 15.9766 22.4305C15.9618 22.4292 15.947 22.4251 15.9322 22.4251L15.4797 22.5926L15.0433 22.2924C15.0433 22.2924 14.8724 22.129 15.0271 21.9654L15.45 21.3287L14.3795 19.9911L16.0251 20.664L16.1342 20.5286L16.3564 20.2646L16.6082 20.5031C16.6796 20.5715 16.72 20.6559 16.7401 20.7403C17.194 20.9159 18.0061 21.4346 18.0774 22.2777L17.8229 22.3796V22.3863C17.8809 22.4546 17.9293 22.4828 17.9442 22.4854L19.1184 22.6007C19.1481 22.5953 19.1858 22.582 19.2275 22.5699C19.373 22.5203 19.5925 22.4492 19.8524 22.4492C20.0638 22.4492 20.2685 22.4975 20.4651 22.5887C20.5378 22.5618 20.6268 22.5417 20.7291 22.535L20.7857 22.5337C21.4146 22.5337 21.727 23.0015 21.9775 23.3741C22.0193 23.4384 22.061 23.5001 22.1041 23.5604C22.3236 23.8686 22.6104 24.3204 22.6226 24.3391L22.7518 24.5401L22.593 24.7238C22.4704 24.8645 22.2872 25.0294 21.9721 25.0294C21.9075 25.0294 21.8361 25.0226 21.7593 25.0079C21.692 24.9958 21.6314 24.9758 21.5721 24.9517C21.5627 25.0132 21.5506 25.087 21.5385 25.15L21.3324 26.2195C22.5647 25.918 23.3471 24.9918 23.3471 23.6676L23.3484 19.6667Z" fill="#FFDD2D"/>
<path d="M12.6625 19.3448H20.9703C20.5555 18.9186 20.5609 18.3785 20.6673 18.0273C20.5461 17.9696 20.4464 17.9 20.3576 17.8249C20.033 18.0634 19.0418 18.7818 18.7832 18.9615L18.728 18.999L15.4677 18.4119H15.4016C15.3236 18.4119 15.2091 18.4093 15.0839 18.3945C15.0489 18.5406 14.9222 18.6412 14.7768 18.6412C14.7606 18.6412 14.7418 18.6398 14.7243 18.6358C14.6394 18.621 14.5653 18.5781 14.5155 18.5071C14.4644 18.4375 14.4442 18.3544 14.459 18.2685L14.4711 18.1988C14.1344 17.9629 13.8247 17.4362 13.9621 16.8813L13.9755 16.8223L14.0226 16.7888C14.0293 16.7835 14.0859 16.746 14.1695 16.6977L13.9324 16.6615C13.8436 16.6454 13.7843 16.5636 13.7978 16.4765C13.8126 16.3881 13.8961 16.325 13.9836 16.3425L14.5479 16.431L14.5991 14.4526L15.4393 13.568L15.9632 14.6658L15.4098 16.569L15.908 16.6468C15.9956 16.6601 16.0562 16.7419 16.0427 16.8317C16.0293 16.9108 15.9619 16.9657 15.8824 16.9657C15.8744 16.9657 15.8649 16.9657 15.8569 16.9644L15.4515 16.8988C15.4569 16.9108 15.465 16.9175 15.4703 16.9309C15.5134 17.0193 15.6091 17.0837 15.6657 17.1105L18.1516 17.1494C18.2567 17.0475 18.5179 16.7928 18.7859 16.5234C18.1745 16.2929 17.9523 15.7675 17.9146 15.419C17.5726 15.2743 17.3369 15.0571 17.2062 14.7743C17.0473 14.4245 17.1039 14.0747 17.1456 13.9044C16.8143 13.7838 16.4656 13.564 16.11 13.2129H12.3662C12.5265 13.6418 12.6625 14.1068 12.6625 14.5693V19.3448Z" fill="#FFDD2D"/>
<path d="M16.083 21.4023C16.0223 21.3968 15.971 21.4438 15.9671 21.5027C15.9629 21.5644 16.0088 21.6167 16.0709 21.618C16.1302 21.6233 16.1828 21.5778 16.1882 21.5175C16.1882 21.4585 16.145 21.4035 16.083 21.4023Z" fill="black"/>
<path d="M23.3334 28.6544L22.718 28.4198L22.8876 27.7872L23.0748 27.0969C23.0748 27.0969 21.984 27.6854 20.4474 28.1276C20.011 28.2523 19.6811 28.3086 19.6811 28.3086V28.7777C19.6811 28.7777 18.8596 28.9198 18.0287 28.9198H18.0193H18.0072H17.991H17.9816C17.1507 28.9198 16.3292 28.7777 16.3292 28.7777V28.3086C16.3292 28.3086 15.9979 28.2523 15.563 28.1276C14.0263 27.6854 12.9368 27.0969 12.9368 27.0969L13.1214 27.7872L13.2951 28.4198L12.6783 28.6544L11.9941 28.9091C12.7793 29.2857 13.8661 29.8352 14.8613 30.1059L14.627 30.744C14.627 30.744 15.8888 31.3162 17.991 31.3216V31.3229H17.9978H18.0072H18.0153H18.0207V31.3216C20.1256 31.3162 21.386 30.744 21.386 30.744L21.1504 30.1059C22.1456 29.8352 23.2351 29.2857 24.0162 28.9091L23.3334 28.6544ZM12.7241 28.952L13.7368 28.6169L13.4379 27.6451C13.8836 27.8971 14.8842 28.2751 15.4633 28.4507L14.9744 29.7869C14.0803 29.5417 13.3355 29.2562 12.7241 28.952ZM18.0072 30.9865C16.8316 30.9865 15.4889 30.7171 15.0943 30.5778L15.6949 28.96C16.1932 29.1047 17.2301 29.2589 17.9829 29.2535H17.9843H18.0072H18.0274H18.0301C18.7829 29.2589 19.8172 29.1047 20.3182 28.96L20.9174 30.5778C20.5228 30.7185 19.1815 30.9865 18.0072 30.9865ZM21.0373 29.7869L20.5498 28.4507C21.1302 28.2751 22.1281 27.8971 22.5752 27.6451L22.2776 28.6169L23.2889 28.952C22.6762 29.2562 21.9355 29.5417 21.0373 29.7869Z" fill="black"/>
<path d="M18.0036 3.40332C19.2561 3.40332 20.2581 3.81616 20.8115 4.25712C20.8115 4.25712 20.9758 3.27197 21.5374 2.40212L20.5287 2.51603L20.0008 1.39955L18.9868 1.91961L18.0036 0.951904L17.0232 1.91961L16.0078 1.39955L15.4813 2.51603L14.4727 2.40212C15.0342 3.27197 15.1985 4.25712 15.1985 4.25712C15.7534 3.81616 16.7526 3.40332 18.0036 3.40332ZM15.4355 2.90744L15.7157 2.93694L15.8368 2.68355L16.1897 1.93298L16.8441 2.2694L17.0973 2.39813L17.2994 2.19973L18.005 1.50277L18.712 2.19973L18.914 2.39813L19.1672 2.2694L19.8176 1.93298L20.1746 2.68355L20.2931 2.93694L20.5732 2.90744L20.8398 2.87526C20.7172 3.15001 20.6271 3.41 20.5624 3.62583C19.8567 3.23442 18.9383 3.01197 18.0023 3.01197C17.0704 3.01197 16.1533 3.23442 15.445 3.62583C15.379 3.41 15.2901 3.14869 15.1676 2.87526L15.4355 2.90744Z" fill="black"/>
<path d="M32.6992 16.4748C34.3193 16.4748 34.8606 14.8342 34.8835 14.7645L35.064 14.1869L34.4566 14.2057H34.4539C34.2398 14.2057 32.4528 14.1587 31.1854 12.5557L31.0656 12.4069C30.2374 11.3588 29.4523 10.363 28.049 9.90861C28.0894 9.87243 28.1474 9.82684 28.2268 9.77588C28.9715 9.28804 29.4052 8.69563 29.5142 8.00806C29.6731 6.97326 29.0106 6.14897 28.9809 6.11548L28.5298 5.56062L28.2484 6.21871C28.2295 6.26027 27.7555 7.31379 26.7589 7.31379H26.6848C26.6161 7.30969 26.5515 7.30704 26.4869 7.30173C26.5219 6.83125 26.4356 6.10342 25.7732 5.42122C24.9772 4.5996 23.9995 4.47632 23.4878 4.47632C23.2144 4.47632 23.0326 4.5098 23.0137 4.51249L22.3322 4.64652L22.7524 5.19739C23.0824 5.62229 23.3814 6.40636 23.0272 6.81654C22.9141 6.94649 22.6811 7.05238 22.4575 7.15827C21.9983 7.36866 21.3721 7.66089 21.3721 8.40605C21.3721 8.88859 21.7478 9.3926 22.4293 9.82147C24.4466 11.0841 25.691 12.4016 26.2283 13.8558C27.0592 16.0928 25.9751 17.3688 24.922 18.0403L24.4493 18.3431L24.8627 18.7211C24.9179 18.7694 25.4243 19.2131 26.1717 19.2774C26.3131 19.2867 26.4491 19.2948 26.5757 19.2948C27.0551 19.2948 27.4632 19.2198 27.7945 19.1192C27.7029 19.2787 27.5911 19.4409 27.4497 19.6044C26.8478 20.2987 26.1071 20.615 25.0418 20.6311L24.6459 20.6378L24.615 21.0332C24.6109 21.1122 24.5812 21.8455 25.2789 22.4687C25.3852 22.5652 25.5145 22.6443 25.6492 22.71C25.1765 23.1335 24.6958 23.8707 24.6029 25.1345C24.5247 26.1893 24.2716 26.5794 24.2688 26.5835L23.8311 27.2483L24.6217 27.2589C25.9279 27.2589 26.9286 26.8998 27.6221 26.1893C28.0315 25.7686 28.2658 25.2941 28.4045 24.8732C28.6321 25.0662 28.9258 25.2351 29.3082 25.3249C29.4537 25.3584 29.6125 25.3772 29.7836 25.3772C30.1525 25.3772 30.4609 25.2994 30.4959 25.2914L31.001 25.1573L30.7775 24.6882C30.7613 24.6507 30.3398 23.7098 30.7936 22.3668C30.9889 21.7865 31.0885 21.2664 31.137 20.8616C31.4548 21.0265 31.8804 21.1632 32.4311 21.1646C33.6809 21.1646 34.2318 20.2357 34.2573 20.1968L34.5038 19.7706L34.0472 19.583C32.5578 18.9678 32.2278 17.3152 32.1619 16.4198C32.2965 16.4453 32.45 16.4694 32.6237 16.4748H32.6992ZM33.8802 19.9784C33.8802 19.9784 33.4439 20.733 32.4433 20.733H32.4311C31.2299 20.7263 30.7451 19.9971 30.7451 19.9971C30.7451 19.9971 30.8152 20.9461 30.3815 22.2261C29.8604 23.7687 30.3855 24.8719 30.3855 24.8719C30.3855 24.8719 30.1054 24.9469 29.7822 24.9469C29.6584 24.9469 29.5291 24.9349 29.4078 24.9027C28.4045 24.6655 28.1541 23.7567 28.1541 23.7567C28.1541 23.7567 28.247 26.8274 24.65 26.8274H24.6217C24.6217 26.8274 24.9381 26.3985 25.0324 25.164C25.2034 22.8856 26.7535 22.5732 26.7535 22.5732C26.7535 22.5732 25.9267 22.47 25.5684 22.1497C25.0082 21.6444 25.0472 21.06 25.0472 21.06C26.3131 21.0426 27.1413 20.6137 27.7729 19.8859C28.4571 19.0978 28.5702 18.2494 28.5702 18.2494C28.5702 18.2494 27.8901 18.8632 26.5743 18.8632C26.4585 18.8632 26.3346 18.8579 26.2081 18.8458C25.5859 18.7963 25.155 18.4022 25.155 18.4022C26.5246 17.5283 27.4861 16.003 26.6337 13.7057C25.9509 11.8654 24.3106 10.4903 22.6595 9.45416C22.1101 9.1125 21.8044 8.73313 21.8044 8.40605C21.8044 7.63677 22.9033 7.61265 23.3544 7.09525C23.8743 6.49484 23.5484 5.52038 23.0972 4.93471C23.0972 4.93471 23.2494 4.90384 23.4892 4.90384C23.9645 4.90384 24.7873 5.02312 25.4634 5.72008C26.3616 6.64491 25.9886 7.65148 25.9886 7.65148L26.2296 7.6984C26.3737 7.72921 26.5165 7.73458 26.6646 7.74127C26.697 7.74127 26.7292 7.74266 26.7616 7.74266C28.0665 7.74266 28.6496 6.38493 28.6496 6.38493C28.6496 6.38493 30.0368 8.08307 27.9952 9.41262C27.6437 9.6405 27.4888 9.85096 27.5292 10.0761L27.5615 10.2236L27.7069 10.249C29.187 10.6484 29.9358 11.6644 30.8502 12.8198C32.2386 14.5769 34.2034 14.6332 34.4459 14.6332H34.4715C34.4715 14.6332 34.023 16.0419 32.7019 16.0419C32.6803 16.0419 32.6614 16.0419 32.6386 16.0405C32.0312 16.0191 31.7201 15.7872 31.7201 15.7872C31.7201 15.7872 31.4817 18.9865 33.8802 19.9784Z" fill="black"/>
<path d="M29.8516 10.086C30.4563 10.4063 30.8078 10.8352 31.1162 11.2158C31.4192 11.5871 31.7074 11.945 32.1572 12.0937C32.3174 12.1487 32.4872 12.1742 32.6595 12.1742C33.3356 12.1742 34.0143 11.7627 34.2716 11.193L34.5301 10.6221L33.9038 10.5845C33.8743 10.5832 33.0689 10.5108 32.172 9.59811C31.803 9.22417 31.3573 9.0271 30.8765 9.0271C30.2893 9.0271 29.8543 9.31933 29.8059 9.34875L29.2295 9.75224L29.8516 10.086ZM30.8779 9.45869C31.1795 9.45869 31.531 9.5606 31.8636 9.90233C32.9073 10.9572 33.8782 11.0161 33.8782 11.0161C33.7018 11.4048 33.1901 11.7466 32.6608 11.7466C32.5383 11.7466 32.4158 11.7278 32.2932 11.6863C31.5754 11.445 31.3182 10.3728 30.0563 9.70533C30.0563 9.70533 30.4092 9.45869 30.8779 9.45869Z" fill="black"/>
<path d="M30.1386 15.781V15.8024C29.775 12.8832 27.6445 10.7749 25.2743 9.49223C25.0547 9.3756 24.8527 9.27647 24.6562 9.18131C25.378 9.29251 26.5402 9.30596 27.4371 8.53125C27.4371 8.53125 26.0648 9.5365 23.2529 8.62376C24.0313 9.12631 25.5436 9.83542 26.924 10.984C30.3756 14.0024 27.9057 16.9471 27.9057 16.9471C29.1461 15.659 29.1972 14.2785 28.8322 13.1513C29.4854 14.2329 29.9029 15.5464 29.8382 17.1656C29.7427 19.4856 28.4619 21.4921 27.1139 23.1045C26.4661 23.8872 26.3207 24.8482 26.3207 24.8482C26.3207 24.8482 26.5819 23.9998 27.332 23.1273C28.7771 21.4438 30.0119 19.6947 30.1736 17.1749C30.3231 17.632 30.9385 18.904 31.9148 19.3825C31.9176 19.3838 30.6907 18.6479 30.1386 15.781Z" fill="black"/>
<path d="M11.7396 26.5824C11.7382 26.5784 11.4878 26.1884 11.407 25.1336C11.3127 23.8696 10.8332 23.1325 10.3593 22.709C10.4966 22.6446 10.6232 22.5656 10.7296 22.4677C11.4259 21.8444 11.3962 21.1112 11.3922 21.0323L11.3653 20.6369L10.9666 20.6302C9.90405 20.6127 9.16203 20.2964 8.56002 19.6034C8.42002 19.4399 8.30688 19.2777 8.21524 19.1182C8.54659 19.2188 8.95197 19.2939 9.43271 19.2939C9.56199 19.2939 9.69531 19.2858 9.8367 19.2764C10.5841 19.212 11.0905 18.7698 11.1471 18.7201L11.5605 18.3421L11.0878 18.0393C10.0307 17.3665 8.95058 16.0905 9.78013 13.8548C10.3175 12.4006 11.5605 11.0831 13.5805 9.82049C14.2619 9.39162 14.635 8.88761 14.635 8.40506C14.635 7.65991 14.0101 7.36642 13.551 7.15729C13.3274 7.05139 13.0944 6.9455 12.9812 6.81556C12.6257 6.40669 12.926 5.62132 13.2547 5.19641L13.6775 4.64555L12.9934 4.51152C12.9732 4.50883 12.7941 4.47534 12.5193 4.47534C12.0076 4.47534 11.0326 4.59862 10.2353 5.42024C9.57145 6.10383 9.48385 6.83159 9.51759 7.30075C9.45288 7.30605 9.38831 7.3087 9.32096 7.31281H9.24824C8.24898 7.31281 7.77632 6.25929 7.75746 6.21774L7.476 5.55964L7.02074 6.11451C6.9952 6.148 6.32993 6.97366 6.4915 8.00707C6.59928 8.69464 7.03291 9.28705 7.77764 9.7749C7.85842 9.82579 7.91499 9.87145 7.95542 9.90763C6.55343 10.362 5.76973 11.3592 4.94143 12.4073L4.82161 12.5561C3.55572 14.1591 1.76463 14.206 1.55052 14.206L0.94043 14.1872L1.12627 14.7649C1.1478 14.8346 1.68785 16.4751 3.30926 16.4751L3.3874 16.4724C3.55843 16.4671 3.71193 16.4443 3.84935 16.4175C3.78199 17.3115 3.45204 18.9641 1.9612 19.5806L1.50607 19.7683L1.75253 20.1945C1.77674 20.2334 2.32892 21.1622 3.58132 21.1622C4.12803 21.1609 4.55359 21.0242 4.87276 20.8594C4.92125 21.2641 5.0209 21.7841 5.21621 22.3645C5.67002 23.7075 5.24724 24.6484 5.23103 24.6859L5.00753 25.155L5.51381 25.289C5.54749 25.2971 5.85858 25.3748 6.22625 25.3748C6.39861 25.3748 6.55753 25.3561 6.70031 25.3225C7.08405 25.2328 7.38033 25.0639 7.60529 24.8709C7.74257 25.2917 7.97831 25.7662 8.38634 26.1871C9.08125 26.8974 10.0805 27.2566 11.3868 27.2566L12.1787 27.2459L11.7396 26.5824ZM11.3571 26.8278C7.76011 26.8278 7.85174 23.7571 7.85174 23.7571C7.85174 23.7571 7.60118 24.6658 6.59789 24.9031C6.47807 24.9352 6.35011 24.9472 6.22493 24.9472C5.90166 24.9472 5.62291 24.8722 5.62291 24.8722C5.62291 24.8722 6.14547 23.7691 5.62424 22.2264C5.19332 20.9464 5.26332 19.9975 5.26332 19.9975C5.26332 19.9975 4.77986 20.7266 3.57729 20.7333H3.56518C2.56453 20.7333 2.12819 19.9787 2.12819 19.9787C4.52533 18.9882 4.28966 15.7902 4.28966 15.7902C4.28966 15.7902 3.97863 16.0208 3.36987 16.0435C3.34836 16.0449 3.32812 16.0449 3.30661 16.0449C1.98415 16.0449 1.53703 14.6363 1.53703 14.6363H1.56394C1.80771 14.6363 3.76989 14.5799 5.15832 12.8228C6.07269 11.6674 6.82284 10.6528 8.30019 10.2521L8.44833 10.2266L8.48056 10.0792C8.52105 9.85402 8.36748 9.64356 8.01602 9.41574C5.97437 8.0848 7.36148 6.38795 7.36148 6.38795C7.36148 6.38795 7.94192 7.74433 9.24963 7.74433C9.28185 7.74433 9.31149 7.74301 9.34517 7.74301C9.49199 7.73492 9.63748 7.72962 9.78013 7.69874L10.0212 7.65182C10.0212 7.65182 9.6482 6.64525 10.5478 5.72048C11.2239 5.02214 12.0467 4.90424 12.5207 4.90424C12.7618 4.90424 12.9113 4.93504 12.9113 4.93504C12.4614 5.52209 12.1356 6.49517 12.6554 7.09566C13.1051 7.61167 14.2027 7.63711 14.2027 8.40645C14.2027 8.73215 13.897 9.11278 13.3476 9.45457C11.6951 10.4907 10.0549 11.8658 9.37342 13.706C8.52237 16.0034 9.48259 17.5273 10.8549 18.4025C10.8549 18.4025 10.4239 18.7966 9.80037 18.8462C9.6738 18.8582 9.55127 18.8635 9.43271 18.8635C8.11831 18.8635 7.43829 18.2497 7.43829 18.2497C7.43829 18.2497 7.55136 19.0981 8.23145 19.8863C8.86715 20.614 9.69531 21.0429 10.9613 21.0604C10.9613 21.0604 11.0016 21.6447 10.4414 22.15C10.0818 22.469 9.25499 22.5735 9.25499 22.5735C9.25499 22.5735 10.8064 22.8858 10.976 25.1644C11.069 26.3988 11.3827 26.8278 11.3827 26.8278H11.3571Z" fill="black"/>
<path d="M3.3444 12.1755C3.51808 12.1755 3.68779 12.1501 3.8481 12.0951C4.30052 11.9463 4.5874 11.5884 4.89043 11.2172C5.20014 10.8366 5.54895 10.4076 6.15361 10.0873L6.77574 9.75486L6.19807 9.3515C6.14958 9.32069 5.71594 9.02979 5.13014 9.02979C4.64801 9.02979 4.20095 9.22553 3.83321 9.60079C2.93637 10.5122 2.13243 10.586 2.10272 10.5873L1.47656 10.6234L1.73375 11.1957C1.9923 11.7627 2.66967 12.1755 3.3444 12.1755ZM4.14166 9.90369C4.47565 9.56196 4.82711 9.46005 5.13014 9.46005C5.59606 9.46005 5.94897 9.70662 5.94897 9.70662C4.68837 10.3755 4.4298 11.4463 3.70936 11.6877C3.59086 11.7292 3.46693 11.748 3.3444 11.748C2.81516 11.748 2.30339 11.4075 2.12833 11.0175C2.12833 11.0162 3.09794 10.9572 4.14166 9.90369Z" fill="black"/>
<path d="M6.17368 17.167C6.10626 15.5479 6.52382 14.2344 7.17823 13.1528C6.81334 14.28 6.86317 15.6605 8.10484 16.9485C8.10484 16.9485 5.63498 14.0039 9.08789 10.9855C10.4696 9.83688 11.9806 9.12778 12.7576 8.62522C9.94715 9.53796 8.57487 8.53271 8.57487 8.53271C9.4717 9.30742 10.6339 9.29397 11.3558 9.18139C11.1605 9.27654 10.9558 9.37581 10.7389 9.49237C8.36606 10.7751 6.23693 12.8834 5.87204 15.8026V15.7798C5.32117 18.6467 4.0957 19.3825 4.0957 19.3825C5.07075 18.904 5.6848 17.6335 5.83433 17.175C5.99723 19.6948 7.23216 21.4439 8.67715 23.1274C9.42724 24 9.69123 24.8483 9.69123 24.8483C9.69123 24.8483 9.54442 23.8874 8.89397 23.1046C7.54861 21.4949 6.2679 19.4871 6.17368 17.167Z" fill="black"/>
<path d="M17.1943 11.26V11.839C17.3951 11.5964 17.7829 11.646 17.7829 11.646V12.481C17.7829 12.481 17.7694 12.8911 17.6227 13.0695H18.0427H18.4616C18.3175 12.8925 18.3027 12.481 18.3027 12.481V11.646C18.3027 11.646 18.6905 11.5964 18.8899 11.839V11.26H18.0427H17.1943Z" fill="black"/>
<path d="M16.8354 7.82622C17.1033 8.038 17.2582 8.07286 17.2636 8.07684L17.3686 8.12508V7.57958L16.3828 7.16675C16.3828 7.16814 16.3923 7.4831 16.8354 7.82622Z" fill="black"/>
<path d="M19.1736 7.82622C19.6194 7.4831 19.6274 7.16675 19.6274 7.16675L18.6416 7.57958V8.12508L18.7453 8.07684C18.7521 8.07286 18.9056 8.038 19.1736 7.82622Z" fill="black"/>
<path d="M20.9494 5.60548C20.9494 4.77856 19.5501 4.03467 18.0055 4.03467H18.0041H18.0001H17.996C16.4513 4.03467 15.0522 4.77856 15.0522 5.60548L15.0832 5.80925L15.6999 9.33292L15.0805 9.69075L13.4779 10.6223H13.4832C13.4832 10.6223 13.1224 10.8059 12.9554 10.9198C12.3453 11.3421 12.216 11.9572 12.5702 12.212C12.6578 11.7106 13.0563 11.1852 13.8025 11.1852C14.3398 11.1852 14.7492 11.4614 15.0805 11.8755C15.1653 11.98 15.2461 12.0913 15.3215 12.212C15.4144 12.3634 15.5073 12.496 15.6003 12.6247H11.4727C11.7757 13.2318 12.0638 13.8752 12.0638 14.5736V23.6662C12.0638 25.867 13.7647 26.9178 15.6043 26.9178C17.0264 26.9178 17.2176 26.8535 18.0027 27.6309C18.7838 26.8522 18.9751 26.9178 20.3985 26.9178C22.2395 26.9178 23.9376 25.867 23.9376 23.6662V14.5736C23.9376 13.8752 24.2259 13.2318 24.5302 12.6247H20.4013C20.4928 12.4974 20.5857 12.3634 20.6787 12.212C20.7554 12.0913 20.8348 11.98 20.9184 11.8755C21.2524 11.46 21.6604 11.1852 22.1977 11.1852C22.9438 11.1852 23.341 11.7093 23.4299 12.212C23.7841 11.9572 23.6562 11.3421 23.0421 10.9198C22.8778 10.8059 22.5169 10.6223 22.5169 10.6223H22.5223L20.9197 9.69075L20.303 9.33292L20.9197 5.80925L20.9494 5.60548ZM15.6595 6.01564L17.8277 6.74745V10.1371L16.2319 9.29946L15.6595 6.01564ZM16.108 13.2158C16.4635 13.5683 16.8123 13.7868 17.1436 13.9074C17.1005 14.0776 17.0439 14.4288 17.2042 14.7786C17.3348 15.06 17.5718 15.2772 17.9126 15.422C17.9503 15.7705 18.1711 16.2945 18.7838 16.5264C18.5158 16.7958 18.2546 17.0491 18.1482 17.1523L15.6635 17.1135C15.607 17.0852 15.5114 17.0223 15.4683 16.9325C15.4629 16.9204 15.4548 16.9137 15.4508 16.9003L15.8561 16.966C15.8656 16.9674 15.8736 16.9674 15.8818 16.9674C15.9598 16.9674 16.0285 16.9137 16.042 16.8334C16.0555 16.7435 15.9949 16.6617 15.9074 16.6483L15.4091 16.5706L15.9625 14.6687L15.4387 13.571L14.5983 14.4556L14.5472 16.4339L13.9829 16.3454C13.8953 16.328 13.8118 16.3924 13.7971 16.4795C13.7836 16.5666 13.8428 16.6483 13.9317 16.6645L14.1687 16.7006C14.0839 16.7489 14.0287 16.7864 14.0219 16.7917L13.9735 16.8253L13.96 16.8843C13.8226 17.4391 14.1337 17.9659 14.469 18.2017L14.4569 18.2715C14.4435 18.3572 14.4623 18.4403 14.5134 18.5101C14.5619 18.5811 14.6374 18.624 14.7209 18.6387C14.7384 18.6414 14.7572 18.6427 14.7734 18.6427C14.9188 18.6427 15.0455 18.5422 15.0818 18.3962C15.207 18.4108 15.3215 18.4135 15.3996 18.4135H15.4656L18.726 18.9992L18.7811 18.9631C19.0411 18.7821 20.0309 18.0637 20.3554 17.8265C20.4443 17.9029 20.544 17.9725 20.6652 18.0302C20.5601 18.3814 20.5534 18.9215 20.9695 19.3477H12.6604V14.5748C12.6604 14.1124 12.5244 13.6474 12.3641 13.2185H16.108V13.2158ZM20.1373 17.5825C19.8073 17.8238 18.9589 18.4403 18.6519 18.6548L15.6892 18.1254C15.6959 18.0986 15.7026 18.0731 15.7093 18.0463C15.7484 17.8935 15.7875 17.6844 15.7902 17.4391L18.2802 17.4794L18.3273 17.4311C18.365 17.3936 19.1542 16.635 19.5568 16.1979C19.6524 16.3173 19.7723 16.4313 19.9286 16.5317C19.8747 16.8213 19.8976 17.2341 20.1373 17.5825ZM15.1774 17.0719C15.2475 17.218 15.374 17.3158 15.4616 17.3708C15.4589 17.5075 15.4454 17.7206 15.4091 17.9083C15.4009 17.9498 15.3902 17.9887 15.3781 18.0275C15.3713 18.0517 15.3646 18.0718 15.3592 18.0878C15.2286 18.0878 14.9714 18.0718 14.7613 17.9954C14.5283 17.9096 14.1808 17.4847 14.2616 17.0169C14.3627 16.9553 14.5956 16.8253 14.8138 16.8253C14.9821 16.824 15.0966 16.903 15.1774 17.0719ZM14.869 16.4835L14.9188 14.5843L15.3471 14.1326L15.6164 14.6929L15.0858 16.5156L14.869 16.4835ZM20.1104 26.3295C19.9487 26.3295 19.7993 26.3322 19.6646 26.3375L20.0174 25.2452C20.0726 25.0937 19.7938 24.8993 19.6794 24.7291C19.8531 24.8377 20.303 25.0749 20.5198 25.1701C20.4968 25.2049 20.1104 26.3295 20.1104 26.3295ZM21.2173 25.0883L20.9871 26.2839C20.8402 26.3039 20.6841 26.3147 20.5238 26.3214L20.7662 25.1714C20.8389 24.8296 19.9164 24.7237 19.4612 24.0522C19.2391 24.3015 18.8202 24.3752 18.4 24.3752C18.0162 24.3752 17.6325 24.3136 17.3994 24.268C17.3402 24.2587 17.2836 24.252 17.2284 24.252C17.0937 24.252 16.9712 24.2935 16.8864 24.4356L16.819 24.5481L15.5626 24.2532L15.2501 24.768C15.2057 24.8511 15.203 24.9221 15.2744 24.9998L15.3592 25.0923C15.3013 25.2746 15.0401 25.5494 15.0401 25.5494L14.8529 25.3175C14.7047 25.1526 14.7289 24.8525 14.8838 24.5736L15.3821 23.736L16.446 23.8887L16.2803 23.5134C16.0581 23.0175 16.3962 22.3862 16.4325 22.023C16.4204 22.1329 16.3194 22.1571 16.2009 22.1571C16.0932 22.1571 15.9733 22.137 15.8939 22.137C15.8629 22.137 15.8359 22.1396 15.8211 22.1503L15.5329 22.3246L15.3053 22.1249C15.2784 22.086 15.269 21.9962 15.3363 21.9292L15.8629 21.3421L15.2407 20.6197L16.112 21.0553L16.3773 20.7349C16.45 20.806 16.4191 20.9923 16.4191 20.9923C16.6911 20.999 17.4533 21.4185 17.4937 22.3969C17.4965 22.4264 17.4965 22.46 17.4965 22.4921C17.4965 22.4921 17.5032 22.5042 17.5166 22.5243C17.5705 22.598 17.7186 22.787 17.9071 22.8044L19.1111 22.9224H19.1165C19.2485 22.9224 19.5111 22.7682 19.8478 22.7682C20.0309 22.7682 20.2356 22.8151 20.4537 22.9518C20.4537 22.9518 20.5628 22.8661 20.7406 22.8566C20.7541 22.8554 20.7689 22.8554 20.7824 22.8554C21.3224 22.8554 21.546 23.3406 21.8355 23.7439C22.0536 24.0509 22.3445 24.5066 22.3445 24.5066C22.2368 24.6339 22.1371 24.7036 21.9701 24.7036C21.9243 24.7036 21.8718 24.6996 21.8152 24.6889C21.2362 24.583 21.1527 23.3981 20.8227 23.3044C20.8053 23.299 20.7864 23.2977 20.7703 23.2977C20.6638 23.2977 20.6167 23.3914 20.6167 23.3914C20.7675 23.7949 20.68 23.9584 20.8416 24.2694C20.9629 24.4999 21.1783 24.6902 21.2671 24.78C21.2671 24.7827 21.2429 24.957 21.2173 25.0883ZM14.7518 23.9571L14.807 24.0951C14.7707 24.2158 14.3532 24.3873 14.3532 24.3873L14.263 24.1917C14.1673 23.9826 14.1876 23.63 14.4785 23.4142L15.1545 23.0041L15.871 23.1556C15.8575 23.3821 15.9935 23.551 15.9935 23.551L15.242 23.4075L14.7922 23.7171C14.7168 23.7694 14.7115 23.8673 14.7518 23.9571ZM21.3305 26.2182L21.5365 25.1486C21.5473 25.0857 21.5607 25.0119 21.5702 24.9503C21.6281 24.9744 21.69 24.9945 21.7574 25.0065C21.8341 25.0212 21.9055 25.028 21.9701 25.028C22.2853 25.028 22.4684 24.8631 22.5909 24.7224L22.7499 24.5388L22.6206 24.3377C22.6085 24.3176 22.323 23.8673 22.1021 23.559C22.0591 23.4987 22.0172 23.4384 21.9755 23.3727C21.7251 23.0001 21.4113 22.5324 20.7824 22.5324L20.7258 22.5336C20.6221 22.5403 20.5332 22.5605 20.4618 22.5872C20.2639 22.4948 20.0605 22.4479 19.8491 22.4479C19.5892 22.4479 19.3697 22.5189 19.2242 22.5686C19.1825 22.5806 19.1448 22.5939 19.1151 22.5993L17.9395 22.4841C17.9247 22.4814 17.8762 22.4533 17.8183 22.3835V22.3782L18.0728 22.2763C18.0015 21.4332 17.188 20.9146 16.7341 20.739C16.714 20.6546 16.6736 20.5701 16.6022 20.5017L16.349 20.2632L16.1268 20.5286L16.0178 20.6639L14.372 19.9911L15.4427 21.3287L15.0198 21.9653C14.865 22.1289 15.036 22.2924 15.036 22.2924L15.4723 22.5913L15.9248 22.4238C15.941 22.4238 15.9545 22.4277 15.9693 22.4291C15.9477 22.4975 15.9195 22.7656 15.9006 22.8406L15.1155 22.6864L14.2899 23.1502C13.8657 23.4598 13.8078 23.9731 13.9653 24.3243L14.0569 24.524L14.1876 24.8055L14.4757 24.6862C14.4798 24.6848 14.4839 24.6836 14.4865 24.6808C14.3828 25.0106 14.4246 25.3242 14.6104 25.5306L14.7855 25.7504L15.0185 26.044L15.2744 25.7705C15.3497 25.6955 15.5935 25.4233 15.6689 25.1901L15.7242 25.0119L15.5989 24.8752L15.5787 24.8511L15.7187 24.6205L16.7436 24.8604L16.9738 24.9127L17.0964 24.7116L17.1638 24.6017C17.1759 24.579 17.1799 24.5749 17.227 24.5749C17.2634 24.5749 17.2998 24.579 17.3389 24.5871C17.7253 24.6594 18.0822 24.6956 18.3987 24.6956C18.7057 24.6956 18.8889 24.6836 19.1085 24.6112C19.1085 24.6112 19.6592 25.233 19.678 25.2572L19.3414 26.2919L19.3265 26.3549C18.6883 26.4058 18.3772 26.5452 18.0015 26.9192C17.456 26.3804 17.0695 26.3241 15.6029 26.3241C13.8482 26.3241 12.659 25.3001 12.659 23.6649V19.6667H23.341L23.3438 23.6649C23.3451 24.9918 22.5627 25.9166 21.3305 26.2182ZM23.6401 13.2158C23.4771 13.6447 23.341 14.1098 23.341 14.5722L23.3424 17.5557C22.7163 17.4512 22.6421 16.7797 22.6394 16.7502L22.6273 16.6135L22.4927 16.6014C22.2206 16.5759 22.0402 16.4608 21.888 16.3132C21.581 16.0076 21.5796 15.5118 21.581 15.5078C21.5769 15.5332 21.2429 15.9983 21.6308 16.5063C21.7937 16.7207 22.0293 16.852 22.3351 16.9044C22.4065 17.2769 22.6852 17.8024 23.3424 17.8827V19.3438H21.4948C20.6423 18.8719 21.0032 18.0409 21.0207 18.0061L21.0934 17.8479L20.9305 17.7863C20.008 17.4458 20.2612 16.5291 20.2746 16.4902L20.3124 16.3562L20.1872 16.2972C19.4248 15.9461 19.5286 14.9985 19.538 14.9595C19.3037 15.1486 19.2189 15.5346 19.3804 15.9125C19.2929 16.0117 19.1757 16.1323 19.0478 16.2637C18.2587 16.064 18.2344 15.3415 18.2344 15.3081L18.2331 15.1968L18.1294 15.1566C17.821 15.0426 17.6095 14.8724 17.5059 14.6432C17.3887 14.3899 17.4304 14.1245 17.4627 13.9972C17.553 14.0173 17.6432 14.0321 17.7294 14.0388C17.8183 14.0481 17.9098 14.0535 18.0015 14.0535H18.0068H18.0136C18.1052 14.0535 18.1953 14.0481 18.2843 14.0388C18.7758 13.9905 19.3265 13.7801 19.9002 13.2144H23.6401V13.2158ZM20.7608 10.2001L21.4907 10.6223H21.5015L21.6846 10.7282C21.2725 10.8421 20.9574 11.0472 20.6935 11.3166C20.6841 11.3247 20.6746 11.3353 20.6652 11.3447C20.6046 11.4091 20.544 11.4788 20.4874 11.5498C20.4767 11.5632 20.4659 11.5779 20.4537 11.5927C20.3972 11.6651 20.3447 11.7388 20.2935 11.8165C20.2854 11.8299 20.276 11.8433 20.2666 11.8554C20.206 11.9452 20.1481 12.0417 20.0901 12.1408C19.5703 13.0322 18.7407 13.5643 18.0027 13.5656C17.2661 13.5643 16.4366 13.0322 15.9168 12.1408C15.8601 12.0444 15.8036 11.9505 15.743 11.8594C15.7308 11.842 15.7201 11.8246 15.7093 11.8099C15.6582 11.7361 15.607 11.6637 15.5544 11.5954C15.541 11.5766 15.5289 11.5619 15.5154 11.5458C15.4589 11.4774 15.4009 11.4091 15.343 11.3461C15.3309 11.3367 15.3229 11.3247 15.3108 11.3139C15.0455 11.0445 14.7316 10.8407 14.3182 10.7282L14.504 10.6223H14.5121L15.242 10.2001L15.9922 9.77259L17.996 10.8581L18.0001 10.8542L18.0055 10.8581L20.0093 9.77259L20.7608 10.2001ZM19.7723 9.30072L18.1751 10.1384V6.74745L20.3419 6.01564L19.7723 9.30072ZM18.0015 6.37487L15.6258 5.44065C15.8279 4.96482 16.7597 4.56005 18.0015 4.55873C19.2444 4.56005 20.1763 4.96482 20.377 5.44065L18.0015 6.37487Z" fill="black"/>
</svg>
